<?xml version="1.0" encoding="UTF-8" standalone="no"?>
<!-- Generator: Adobe Illustrator 23.0.6, SVG Export Plug-In . SVG Version: 6.00 Build 0)  -->

<svg
   version="1.1"
   id="Layer_1"
   x="0px"
   y="0px"
   viewBox="0 0 500 500"
   xml:space="preserve"
   sodipodi:docname="Ameris_Bank_logo.svg"
   width="500"
   height="500"
   inkscape:version="1.3.2 (091e20e, 2023-11-25, custom)"
   xmlns:inkscape="http://www.inkscape.org/namespaces/inkscape"
   xmlns:sodipodi="http://sodipodi.sourceforge.net/DTD/sodipodi-0.dtd"
   xmlns="http://www.w3.org/2000/svg"
   xmlns:svg="http://www.w3.org/2000/svg"><defs
   id="defs15">
	

		
		
	</defs><sodipodi:namedview
   id="namedview15"
   pagecolor="#505050"
   bordercolor="#ffffff"
   borderopacity="1"
   inkscape:showpageshadow="0"
   inkscape:pageopacity="0"
   inkscape:pagecheckerboard="1"
   inkscape:deskcolor="#d1d1d1"
   inkscape:zoom="0.54580692"
   inkscape:cx="1590.306"
   inkscape:cy="333.45125"
   inkscape:window-width="5120"
   inkscape:window-height="2054"
   inkscape:window-x="-11"
   inkscape:window-y="-11"
   inkscape:window-maximized="1"
   inkscape:current-layer="Layer_1" />
<style
   type="text/css"
   id="style1">
	.st0{fill:#102A54;}
	.st1{fill:#E20F38;}
</style>
<g
   id="XMLID_14_"
   transform="translate(-0.8)">
			<g
   id="g14">
				<g
   id="g13">
					<path
   class="st1"
   d="m 212.7,193.6 c 0,-0.1 0,-0.1 0,0 h -0.3 -50 -4.4 c 9.8,10.7 19.2,22.9 31.8,22.9 5.3,0 10.1,-1.8 13.9,-4.8 l 17.2,32.2 V 202 c 0,-4.6 -3.7,-8.3 -8.2,-8.4 z"
   id="path11" />
					<path
   class="st1"
   d="m 289.2,193.5 h -0.3 c 0,0 0,0 0,0 -4.6,0.1 -8.2,3.9 -8.2,8.5 v 41.8 l 17.2,-32.3 c 3.8,2.9 8.6,4.7 13.8,4.7 12.6,0 21.9,-12.1 31.7,-22.7 h -4.1 z"
   id="path12" />
					<path
   class="st1"
   d="M 250.8,0 C 112.9,0 0.8,112.2 0.8,250 c 0,137.8 112.2,250 250,250 137.8,0 250,-112.2 250,-250 C 500.8,112.2 388.6,0 250.8,0 Z m 229.4,219.5 c -24.1,-31.7 -55.7,-57.6 -91.7,-74.8 0.4,-2.3 0.6,-4.7 0.6,-7 0,-6.4 -1.4,-12.6 -3.9,-18.1 28,7.7 54.4,20.6 77.9,38.2 8.4,19.4 14.2,40.1 17.1,61.7 z M 444.8,123.9 C 415.7,107.8 383.7,97.7 350.4,94.2 v 0.1 c -1.6,-0.2 -3.3,-0.3 -5,-0.3 -13.4,0 -25.8,6.1 -34,16.2 L 293.6,95.3 c 31.1,-16.3 65.7,-25.4 101,-26.4 19.6,15.5 36.5,34.1 50.2,55 z m -74.2,13.8 c 0,6.3 -2.3,12.2 -6.4,16.7 l -38.5,-32.3 c 4.7,-6 11.9,-9.6 19.7,-9.6 13.9,0 25.2,11.3 25.2,25.2 z m 0,-85.6 c -32.4,4 -63.8,14.3 -92.2,30.3 L 265.2,71.3 316.7,28.1 c 19.1,5.7 37.2,13.8 53.9,24 z M 250.8,18.6 c 14.9,0 29.4,1.4 43.6,4.1 L 250.8,59.2 207.2,22.7 c 14.1,-2.7 28.7,-4.1 43.6,-4.1 z m -66,9.5 51.5,43.2 -13.2,11.1 C 194.7,66.3 163.3,56.1 130.9,52.1 c 16.7,-10.2 34.8,-18.3 53.9,-24 z m -77.9,40.8 c 35.3,1 69.9,10 101,26.4 l -18.2,15.2 C 181.5,100.2 169.1,94 155.5,94 c -2.3,0 -4.6,0.2 -6.8,0.5 -32.4,3.7 -63.6,13.8 -91.9,29.4 13.6,-20.9 30.6,-39.5 50.1,-55 z m 46.2,43.7 c 0.8,-0.1 1.6,-0.1 2.5,-0.1 8,0 15.3,3.7 20,9.9 L 137,154.7 c -4.2,-4.6 -6.6,-10.6 -6.6,-17 0,-12.8 9.5,-23.3 21.9,-24.9 0.2,-0.1 0.5,-0.1 0.8,-0.2 z M 38.5,157.8 c 23.2,-17.5 49.4,-30.4 77.2,-38.1 -2.5,5.5 -3.9,11.5 -3.9,17.9 0,2.5 0.2,4.9 0.6,7.3 -35.8,17.2 -67.1,43 -91.1,74.6 2.9,-21.6 8.8,-42.3 17.2,-61.7 z m -19.1,98.3 c 23,-40.5 58.2,-73.5 100,-93.9 1,1.5 2.2,3 3.4,4.4 l -2.6,2.2 c -5.1,4.3 -10,8.7 -14.6,13.3 h -0.1 l -0.3,0.3 c -0.1,0.2 -0.3,0.3 -0.4,0.5 C 65.2,222.1 40,273.2 32.9,328.2 24.8,305.6 20.1,281.4 19.4,256.1 Z M 94.3,420.4 C 76.6,404.1 61.4,385.1 49.5,364.1 c 0,-1.3 -0.1,-2.5 -0.1,-3.8 0,-46.7 14,-91.5 39.5,-129.3 0.7,8.5 3,16.8 6.8,24.3 -9.8,27.1 -14.7,55.5 -14.7,84.5 0,27.4 4.5,54.7 13.3,80.6 z m 48.1,34 c -6.3,-3.3 -12.4,-7 -18.3,-10.8 -16.3,-32.4 -24.6,-67.3 -24.6,-103.8 0,-22.6 3.2,-44.8 9.6,-66.2 3.6,3.4 7.5,6.5 11.9,9 0.4,0.2 0.7,0.4 1.1,0.6 8.8,5 15.9,12.1 20.9,20.5 -7.9,24.7 -11.9,50.4 -11.9,76.5 0.1,25.4 3.8,50.3 11.3,74.2 z m 193.2,10.9 c -26.3,10.4 -54.9,16.1 -84.9,16.1 -30,0 -58.6,-5.7 -84.9,-16.1 -10.7,-27.1 -16.2,-55.7 -16.2,-85.1 0,-11.7 0.9,-23.3 2.6,-34.8 3.1,15.3 12.6,28.4 25.4,36.3 1.2,39 12.5,73.2 70.1,73.2 h 5.7 c 57.5,0 68.8,-34.1 70.1,-73.1 12.9,-7.9 22.4,-21 25.6,-36.4 1.7,11.5 2.6,23.1 2.6,34.8 0.1,29.4 -5.3,58 -16.1,85.1 z M 196.7,388.9 c 2.4,0.4 4.9,0.7 7.4,0.7 0.5,0 1,0 1.5,0 14.3,0 27.7,-5.4 37.9,-15.4 2.7,-2.6 5.1,-5.5 7.2,-8.6 2.1,3.1 4.5,5.9 7.2,8.6 10.2,10 23.7,15.4 37.9,15.4 0.5,0 1,0 1.5,0 2.5,-0.1 4.9,-0.3 7.3,-0.7 -2.3,31.5 -13.3,47.4 -51.1,47.4 h -5.7 C 210,436.4 199,420.4 196.7,388.9 Z m 135.1,-56.7 v 0 2.1 c 0,19.8 -15.6,36.3 -34.8,36.8 -9.8,0.2 -19,-3.3 -26,-10.1 -6.2,-6.1 -10,-14 -10.7,-22.5 7.1,-6.7 14,-12.9 20.7,-18.4 -9.7,-2.7 -19.8,-4.2 -30.2,-4.2 -10.3,0 -20.4,1.5 -30.1,4.2 6.6,5.6 13.6,11.8 20.7,18.5 -0.7,8.6 -4.5,16.5 -10.7,22.5 -7,6.8 -16.2,10.4 -26,10.1 -19.2,-0.5 -34.8,-17 -34.8,-36.8 v -2.1 h -0.1 c -0.2,-26.7 -14.6,-51.4 -37.7,-64.7 v 0 c -0.2,-0.1 -0.4,-0.2 -0.6,-0.4 0,0 -0.1,-0.1 -0.1,-0.1 v 0 c -0.2,-0.1 -0.5,-0.3 -0.7,-0.4 -14.3,-8.5 -23.2,-24 -23.2,-40.7 0,-11.1 3.9,-21.9 11.1,-30.4 4.4,-4.3 9,-8.5 13.8,-12.6 L 251.1,83.4 369.4,183 c 4.5,3.8 8.9,7.8 13.1,11.9 v 0 c 0.2,0.2 0.3,0.3 0.5,0.5 7.2,8.5 11.2,19.3 11.2,30.5 0,16.6 -8.9,32.2 -23.2,40.7 -0.2,0.1 -0.5,0.3 -0.7,0.4 v 0 c -0.1,0 -0.1,0.1 -0.2,0.1 -0.2,0.1 -0.4,0.2 -0.6,0.3 v 0 c -23.1,13.4 -37.5,38.1 -37.7,64.8 z m 45.5,111.5 c -5.9,3.8 -11.9,7.4 -18.1,10.7 7.4,-23.9 11.2,-48.8 11.2,-74.2 0,-26.1 -4,-51.9 -12,-76.6 5,-8.3 12.1,-15.4 20.9,-20.4 0.4,-0.2 0.8,-0.4 1.1,-0.6 4.3,-2.6 8.3,-5.6 11.9,-9 6.4,21.4 9.6,43.6 9.6,66.2 0,36.6 -8.3,71.5 -24.6,103.9 z m 74.8,-79.6 c -12,21.1 -27.2,40.1 -45,56.5 8.8,-25.9 13.4,-53.3 13.4,-80.8 0,-29 -4.9,-57.4 -14.7,-84.5 3.8,-7.6 6.1,-15.8 6.8,-24.4 25.6,37.8 39.6,82.7 39.6,129.4 -0.1,1.3 -0.1,2.5 -0.1,3.8 z m -70.7,-195.3 -3,-2.5 c 1.2,-1.4 2.3,-2.8 3.3,-4.3 42,20.4 77.3,53.5 100.4,94.1 -0.7,25.2 -5.4,49.5 -13.5,72.1 -8,-61.8 -38.8,-118.7 -87.2,-159.4 z"
   id="path13" />
				</g>
			</g>
		</g>
</svg>
