<?xml version="1.0" encoding="UTF-8" standalone="no"?>
<!-- Generator: Adobe Illustrator 23.0.1, SVG Export Plug-In . SVG Version: 6.00 Build 0)  -->

<svg
   id="Layer_1"
   width="181.91266"
   height="182.10001"
   version="1.1"
   viewBox="0 0 181.91266 182.10001"
   xml:space="preserve"
   sodipodi:docname="Axos_Financial_Inc_Logo_Color.svg"
   inkscape:version="1.3.2 (091e20e, 2023-11-25, custom)"
   xmlns:inkscape="http://www.inkscape.org/namespaces/inkscape"
   xmlns:sodipodi="http://sodipodi.sourceforge.net/DTD/sodipodi-0.dtd"
   xmlns="http://www.w3.org/2000/svg"
   xmlns:svg="http://www.w3.org/2000/svg"><defs
   id="defs1">
	

		
	
			
			
			
			
			
			
			
		
				
				
				
				
				
				
				
				
				
			
				
			
				
			
				
			
				
			
				
			
				
			</defs><sodipodi:namedview
   id="namedview1"
   pagecolor="#505050"
   bordercolor="#ffffff"
   borderopacity="1"
   inkscape:showpageshadow="0"
   inkscape:pageopacity="0"
   inkscape:pagecheckerboard="1"
   inkscape:deskcolor="#d1d1d1"
   inkscape:zoom="1.1606137"
   inkscape:cx="624.23874"
   inkscape:cy="308.45751"
   inkscape:window-width="5120"
   inkscape:window-height="2054"
   inkscape:window-x="-11"
   inkscape:window-y="-11"
   inkscape:window-maximized="1"
   inkscape:current-layer="Layer_1" />
<style
   id="style885"
   type="text/css">
	.st0{fill:#FAA74A;}
	.st1{fill:#1E3860;}
</style>
<path
   id="path887"
   class="st0"
   d="m 18.05,2.25 c -3,-3 -8.2,-3 -11.2,0 l -4.6,4.6 c -3,3 -3,8.2 0,11.2 l 73,73 -73,73 c -3,3 -3,8.2 0,11.2 l 4.6,4.6 c 3,3 8.2,3 11.2,0 l 88.6,-88.6 z" /><g
   id="g893"
   transform="translate(-268.95,-163.65)">
					<path
   id="path891"
   class="st1"
   d="M 448.6,170.6 444,166 c -3,-3 -8.2,-3 -11.2,0 l -61.8,61.8 15.8,15.8 61.9,-61.8 c 2.9,-3.2 2.9,-8.2 -0.1,-11.2 z" />
				</g><g
   id="g903"
   transform="translate(-268.95,-163.65)">
					<path
   id="path901"
   class="st1"
   d="m 448.6,338.7 -4.6,4.6 c -3,3 -8.2,3 -11.2,0 l -61.8,-61.9 15.8,-15.8 61.9,61.8 c 2.9,3.2 2.9,8.1 -0.1,11.3 z" />
				</g>

</svg>
