<?xml version="1.0" encoding="UTF-8" standalone="no"?>
<!-- Created with Inkscape (http://www.inkscape.org/) -->

<svg
   version="1.0"
   width="27.000008"
   height="27.000008"
   id="svg2374"
   sodipodi:docname="Banco_Popular_de_Puerto_Rico.svg"
   inkscape:version="1.3.2 (091e20e, 2023-11-25, custom)"
   xmlns:inkscape="http://www.inkscape.org/namespaces/inkscape"
   xmlns:sodipodi="http://sodipodi.sourceforge.net/DTD/sodipodi-0.dtd"
   xmlns="http://www.w3.org/2000/svg"
   xmlns:svg="http://www.w3.org/2000/svg">
  <sodipodi:namedview
     id="namedview1"
     pagecolor="#505050"
     bordercolor="#ffffff"
     borderopacity="1"
     inkscape:showpageshadow="0"
     inkscape:pageopacity="0"
     inkscape:pagecheckerboard="1"
     inkscape:deskcolor="#d1d1d1"
     inkscape:zoom="9.1408465"
     inkscape:cx="30.139441"
     inkscape:cy="24.614788"
     inkscape:window-width="5120"
     inkscape:window-height="2054"
     inkscape:window-x="-11"
     inkscape:window-y="-11"
     inkscape:window-maximized="1"
     inkscape:current-layer="svg2374" />
  <defs
     id="defs2376" />
  <path
     d="m 22.458744,18.828755 -1.849994,-3.71626 -0.0038,-0.0012 c 0.9225,-0.92001 2.037497,-2.266255 2.037497,-4.537506 0,-1.2262537 -0.201243,-2.1899987 -0.582503,-3.0324937 1.177501,1.6912462 1.871261,3.7424847 1.871261,5.9574887 0,1.951256 -0.543746,3.76751 -1.472511,5.33001 z m -2.999993,3.236236 v -6.364993 l 2.140008,4.376258 c -0.616265,0.760001 -1.337509,1.428738 -2.140008,1.988735 z M 5.7312588,20.497494 c 0.02625,-0.0088 0.05625,-0.01875 0.079987,-0.02499 l 0.00124,-0.0013 c 0.08625,-0.02874 0.1475137,-0.04999 0.1475137,-0.04999 v -0.01125 C 7.3187387,19.907509 8.541235,18.68877 8.8224925,16.933761 V 22.8475 C 7.6474888,22.261257 6.6024913,21.462497 5.7312525,20.497494 Z M 4.6349913,7.9462437 V 19.053745 c -1.0137376,-1.609993 -1.608735,-3.511238 -1.608735,-5.555 0,-2.042504 0.5949975,-3.94249 1.608735,-5.5525013 z M 8.8224987,4.1525075 V 9.6512412 C 8.4774975,7.8450013 6.8087575,6.8824963 5.7074925,6.5275 6.5825075,5.5525013 7.6375013,4.7450063 8.8224987,4.1525075 Z M 13.478756,8.57624 C 13.091259,6.5287587 12.007504,4.9587437 10.253754,3.5612487 11.270007,3.2312587 12.352505,3.047505 13.478756,3.047505 Z m 5.979995,-2.4837488 c 2.432499,1.7325025 2.836248,6.1350058 0,8.4362598 z M 15.186252,3.1987575 c 1.04374,0.1725 2.033749,0.4974937 2.950002,0.95375 V 6.9425012 C 17.619991,5.4187587 16.636258,4.2200087 15.186252,3.1987575 Z m 2.950002,9.3287465 V 22.8475 c -1.027509,0.512505 -2.148763,0.861244 -3.33376,1.012496 v -7.057495 c 0.793762,-0.423755 2.523746,-1.80376 3.33376,-4.274997 z m -3.33376,-8.0687528 c 3.511257,2.1862413 3.382511,8.4412578 0,10.9012408 z m -1.323738,7.5975038 v 11.896249 c -1.166248,0 -2.285003,-0.200005 -3.331261,-0.552503 v -6.568756 c 0.777511,-0.429993 2.747498,-1.864986 3.331261,-4.77499 z M 10.147495,5.14 c 3.043748,1.9812575 3.302499,7.973746 0,10.273743 z m -2.8400037,8.137492 -0.005,-0.0087 c 0,0 1.2112625,-0.729999 1.520005,-2.232513 v 4.479999 C 8.5612462,14.151235 7.5324988,13.42999 7.3074888,13.277479 Z M 5.9600063,12.8475 V 7.8612512 c 2.1412475,0.8637438 2.4975012,3.7174988 0,4.9862488 z m 0,6.19749 v -5.269985 c 2.4149899,1.299992 2.198735,4.16874 0,5.269985 z M 0,0 V 27.000007 H 27.000007 V 0 H 0"
     style="fill:#ee3a3f;fill-rule:nonzero;stroke:none;stroke-width:1.25"
     id="BPPR" />
</svg>
