<?xml version="1.0" encoding="UTF-8" standalone="no"?>
<!-- Generator: Adobe Illustrator 22.0.1, SVG Export Plug-In . SVG Version: 6.00 Build 0)  -->

<svg
   version="1.1"
   id="Santander"
   x="0px"
   y="0px"
   viewBox="0 0 43.801472 41.5"
   xml:space="preserve"
   sodipodi:docname="Banco_Santander_Logotipo.svg"
   width="43.801472"
   height="41.5"
   inkscape:version="1.3.2 (091e20e, 2023-11-25, custom)"
   xmlns:inkscape="http://www.inkscape.org/namespaces/inkscape"
   xmlns:sodipodi="http://sodipodi.sourceforge.net/DTD/sodipodi-0.dtd"
   xmlns="http://www.w3.org/2000/svg"
   xmlns:svg="http://www.w3.org/2000/svg"
   xmlns:rdf="http://www.w3.org/1999/02/22-rdf-syntax-ns#"
   xmlns:cc="http://creativecommons.org/ns#"
   xmlns:dc="http://purl.org/dc/elements/1.1/"><defs
   id="defs13">
	
</defs><sodipodi:namedview
   id="namedview11"
   pagecolor="#ffffff"
   bordercolor="#666666"
   borderopacity="1.0"
   inkscape:pageshadow="2"
   inkscape:pageopacity="0.0"
   inkscape:pagecheckerboard="0"
   showgrid="false"
   fit-margin-top="0"
   fit-margin-left="0"
   fit-margin-right="0"
   fit-margin-bottom="0"
   inkscape:zoom="2.3575884"
   inkscape:cx="69.350528"
   inkscape:cy="117.49294"
   inkscape:window-width="5120"
   inkscape:window-height="2054"
   inkscape:window-x="-11"
   inkscape:window-y="-11"
   inkscape:window-maximized="1"
   inkscape:current-layer="Santander"
   inkscape:showpageshadow="0"
   inkscape:deskcolor="#d1d1d1" />
<style
   type="text/css"
   id="style2">
	.st0{fill:#EA1D25;}
</style>
<title
   id="title4">Santander</title>    
<path
   class="st0"
   d="M 31.5,19.1 C 31.4,17.6 31,16.1 30.2,14.8 L 23.4,2.9 C 22.9,2 22.5,1 22.3,0 L 22,0.5 c -1.7,2.9 -1.7,6.6 0,9.5 l 5.5,9.5 c 1.7,2.9 1.7,6.6 0,9.5 l -0.3,0.5 c -0.2,-1 -0.6,-2 -1.1,-2.9 l -5,-8.7 -3.2,-5.6 C 17.4,11.4 17,10.4 16.8,9.4 l -0.3,0.5 c -1.7,2.9 -1.7,6.5 0,9.5 v 0 l 5.5,9.5 c 1.7,2.9 1.7,6.6 0,9.5 l -0.3,0.5 c -0.2,-1 -0.6,-2 -1.1,-2.9 L 13.7,24.1 C 12.8,22.5 12.4,20.7 12.4,18.9 5.1,20.8 0,24.9 0,29.6 0,36.2 9.8,41.5 21.9,41.5 34,41.5 43.8,36.2 43.8,29.6 43.9,25.1 38.9,21 31.5,19.1 Z"
   id="path6"
   sodipodi:nodetypes="ccccccccccccccscccccccsscc" />
<metadata
   id="metadata830"><rdf:RDF><cc:Work
       rdf:about=""><dc:title>Santander</dc:title></cc:Work></rdf:RDF></metadata></svg>
