<?xml version="1.0" encoding="UTF-8" standalone="no"?>
<!-- Generator: Adobe Illustrator 14.0.0, SVG Export Plug-In . SVG Version: 6.00 Build 43363)  -->

<svg
   version="1.0"
   id="Layer_1"
   x="0px"
   y="0px"
   width="61.348301"
   height="65.733574"
   viewBox="0 0 93.512339 840.36863"
   enable-background="new 0 0 595.276 841.891"
   xml:space="preserve"
   sodipodi:version="0.32"
   inkscape:version="1.3.2 (091e20e, 2023-11-25, custom)"
   sodipodi:docname="barclays.svg"
   inkscape:output_extension="org.inkscape.output.svg.inkscape"
   xmlns:inkscape="http://www.inkscape.org/namespaces/inkscape"
   xmlns:sodipodi="http://sodipodi.sourceforge.net/DTD/sodipodi-0.dtd"
   xmlns:xlink="http://www.w3.org/1999/xlink"
   xmlns="http://www.w3.org/2000/svg"
   xmlns:svg="http://www.w3.org/2000/svg"
   xmlns:rdf="http://www.w3.org/1999/02/22-rdf-syntax-ns#"
   xmlns:cc="http://creativecommons.org/ns#"
   xmlns:dc="http://purl.org/dc/elements/1.1/"><metadata
   id="metadata4205"><rdf:RDF><cc:Work
       rdf:about=""><dc:format>image/svg+xml</dc:format><dc:type
         rdf:resource="http://purl.org/dc/dcmitype/StillImage" /></cc:Work></rdf:RDF></metadata><defs
   id="defs4203"><inkscape:perspective
   sodipodi:type="inkscape:persp3d"
   inkscape:vp_x="0 : 419.42313 : 1"
   inkscape:vp_y="0 : 1000 : 0"
   inkscape:vp_z="595.276 : 419.42313 : 1"
   inkscape:persp3d-origin="297.638 : 279.10796 : 1"
   id="perspective4207" />
	<defs
   id="defs4018">
		<path
   d="m -203.862,562.153 v -114.52 c 0.001,-6.594 4.899,-11.354 11.362,-11.354 -6.463,0 -11.702,-5.348 -11.702,-11.939 l -0.03,-32.203 c 0,-2.888 2.294,-5.227 5.118,-5.227 H 79.182 c 11.734,0 21.246,9.703 21.246,21.671 v 164.288 c 0,5.41 -4.301,10.952 -9.608,10.952 h -273.436 c -11.739,0 -21.246,-12.784 -21.246,-21.668"
   id="SVGID_676_" />
	</defs>
	<clipPath
   id="SVGID_677_">
		<use
   height="841.89099"
   width="595.276"
   y="0"
   x="0"
   style="overflow:visible"
   id="use4022"
   overflow="visible"
   xlink:href="#SVGID_676_" />
	</clipPath>
	
	
	
	
	
	
	
	
	
	
	
	
	
	
	
	
	
	
	
	
</defs><sodipodi:namedview
   inkscape:window-height="978"
   inkscape:window-width="2753"
   inkscape:pageshadow="2"
   inkscape:pageopacity="0.0"
   guidetolerance="10.0"
   gridtolerance="10.0"
   objecttolerance="10.0"
   borderopacity="1.0"
   bordercolor="#666666"
   pagecolor="#ffffff"
   id="base"
   showgrid="false"
   inkscape:zoom="1.0975293"
   inkscape:cx="345.32109"
   inkscape:cy="38.267773"
   inkscape:window-x="1561"
   inkscape:window-y="410"
   inkscape:current-layer="Layer_1"
   inkscape:showpageshadow="0"
   inkscape:pagecheckerboard="1"
   inkscape:deskcolor="#d1d1d1"
   inkscape:window-maximized="0" />





















































































































































































































































<path
   transform="matrix(26.77527,0,0,26.77527,-510.60869,-13101.943)"
   clip-path="url(#SVGID_677_)"
   d="m 19.741,489.332 c -0.832,0 -1.004,0.145 -1.274,0.446 -0.106,-0.007 -0.217,-0.009 -0.333,-0.009 -0.64,0 -1.462,0.094 -2.163,0.563 -0.677,0.447 -0.999,1.238 -0.638,1.817 0,0 0.242,-0.355 1.038,-0.355 0.112,0 0.236,0.012 0.368,0.023 1.1,0.13 1.914,0.709 1.815,2.238 -0.088,1.528 -0.661,3.232 -3.005,3.252 0,0 -0.302,0 -0.624,-0.03 -1.091,-0.119 -1.434,-0.804 -1.434,-0.804 0,0 0.943,-0.256 0.951,-1.453 -0.008,-0.814 -0.717,-1.559 -1.74,-1.86 -0.335,-0.098 -0.703,-0.146 -1.086,-0.146 -1.206,0 -2.56,0.505 -3.473,1.697 -2.07,2.733 -2.238,6.717 -1.733,10.422 0.508,3.713 2.863,7.152 2.932,7.246 0.05,0.066 0.095,0.102 0.146,0.102 0.026,0 0.053,-0.012 0.081,-0.035 1.017,-0.987 1.987,-2.336 2.402,-3.238 0.444,0.354 0.212,1.107 -0.032,1.911 -0.232,0.822 -0.796,1.913 -1,2.265 -0.197,0.344 -0.461,0.744 -0.106,0.953 0.036,0.022 0.082,0.034 0.137,0.034 0.456,0 1.529,-0.795 2.726,-2.391 1.34,-1.796 2.02,-3.39 2.02,-3.39 0.098,0.022 0.262,0.188 0.235,0.64 -0.018,0.459 -0.49,2.167 -1.409,3.757 -0.929,1.589 -1.787,2.583 -1.96,2.809 -0.107,0.131 -0.016,0.213 0.053,0.266 0.068,0.046 1.711,1.58 4.098,2.876 2.828,1.507 4.082,1.778 4.082,1.778 0,0 1.251,-0.264 4.079,-1.77 2.386,-1.298 4.036,-2.839 4.097,-2.891 0.069,-0.047 0.157,-0.121 0.053,-0.265 -0.163,-0.216 -1.024,-1.215 -1.951,-2.804 -0.916,-1.579 -1.406,-3.298 -1.413,-3.751 -0.019,-0.457 0.135,-0.608 0.229,-0.646 0,0 0.687,1.604 2.027,3.39 1.203,1.598 2.266,2.391 2.724,2.391 0.058,0 0.104,-0.012 0.142,-0.034 0.344,-0.209 0.088,-0.615 -0.114,-0.955 -0.188,-0.35 -0.76,-1.434 -1.003,-2.263 -0.233,-0.813 -0.475,-1.565 -0.023,-1.911 0.416,0.902 1.379,2.258 2.399,3.231 0.027,0.028 0.058,0.042 0.088,0.042 0.045,0 0.093,-0.035 0.135,-0.096 0.075,-0.1 2.434,-3.533 2.938,-7.252 0.506,-3.713 0.339,-7.688 -1.733,-10.422 -0.907,-1.195 -2.271,-1.703 -3.485,-1.703 -0.379,0 -0.741,0.049 -1.072,0.144 -1.031,0.31 -1.737,1.062 -1.731,1.868 0,1.197 0.948,1.453 0.948,1.453 0,0 -0.317,0.668 -1.447,0.804 -0.211,0.026 -0.416,0.038 -0.612,0.038 -0.85,0 -1.566,-0.27 -2.226,-1.202 -0.64,-0.897 -0.619,-2.744 -0.656,-3.36 -0.029,-0.625 -0.163,-2.027 -0.82,-2.599 -0.655,-0.587 -1.453,-0.784 -2.448,-0.823 -0.073,0.002 -0.138,0.002 -0.199,0.002"
   id="path4050"
   style="fill:#00afe9" />














</svg>
