<?xml version="1.0" encoding="UTF-8" standalone="no"?>
<svg
   width="133"
   height="72.099998"
   version="1.1"
   id="svg6"
   sodipodi:docname="bofa.svg"
   inkscape:version="1.3.2 (091e20e, 2023-11-25, custom)"
   xmlns:inkscape="http://www.inkscape.org/namespaces/inkscape"
   xmlns:sodipodi="http://sodipodi.sourceforge.net/DTD/sodipodi-0.dtd"
   xmlns="http://www.w3.org/2000/svg"
   xmlns:svg="http://www.w3.org/2000/svg">
  <defs
     id="defs6" />
  <sodipodi:namedview
     id="namedview6"
     pagecolor="#505050"
     bordercolor="#ffffff"
     borderopacity="1"
     inkscape:showpageshadow="0"
     inkscape:pageopacity="0"
     inkscape:pagecheckerboard="1"
     inkscape:deskcolor="#d1d1d1"
     inkscape:zoom="1.9744975"
     inkscape:cx="-452.5202"
     inkscape:cy="91.162436"
     inkscape:window-width="5120"
     inkscape:window-height="2054"
     inkscape:window-x="-11"
     inkscape:window-y="-11"
     inkscape:window-maximized="1"
     inkscape:current-layer="svg6" />
  <g
     fill="none"
     id="g6"
     transform="translate(-587)">
    <path
       d="m 653.3,72.1 c 21,-18 50.5,-35.5 66.7,-41.8 -2.5,-1.6 -6.4,-3.9 -10.8,-6.4 -20.9,6.9 -45.3,22.2 -67.1,39.5 3.7,2.8 7.6,5.7 11.2,8.7 z"
       fill="#e31837"
       id="path1" />
    <path
       d="m 643.7,23.2 c -3.1,-1.5 -6.5,-2.9 -9.1,-4.1 -7.9,3.9 -18.2,9.8 -31.2,19.1 2.8,1.5 5.8,3.3 9,5.1 10,-7.4 20.1,-14.4 31.3,-20.1 z"
       fill="#012169"
       id="path2" />
    <path
       d="m 662.4,14.6 c -3.8,-2.1 -17,-7 -26.1,-9.1 -2.7,1 -6.5,2.5 -9.1,3.6 3.3,0.9 15.6,4.2 26.1,9.5 2.7,-1.3 6.5,-2.9 9.1,-4 z"
       fill="#e31837"
       id="path3" />
    <path
       d="m 617.7,13.3 c -11.7,5.4 -24,12.8 -30.7,17.1 2.4,1.1 4.8,2 8.1,3.6 14.8,-10 26.4,-16.1 31,-18.1 -3.3,-1.2 -6.4,-2 -8.4,-2.6 z"
       fill="#012169"
       id="path4" />
    <path
       d="m 671.2,11.5 c 2.7,-0.9 5.8,-1.7 8.5,-2.5 -7.8,-3.3 -17.6,-6.8 -26.4,-9 -1.4,0.4 -5.6,1.5 -8.5,2.4 3,0.9 12.9,3.2 26.4,9.1 z m -49.3,37.6 c 3.2,1.9 6.6,4.5 9.9,6.7 21.9,-17 43.5,-30.1 67.2,-37.5 -3.3,-1.7 -6.2,-3.2 -9.9,-5 -14.2,3.6 -38.5,13.3 -67.2,35.8 z"
       fill="#e31837"
       id="path5" />
  </g>
</svg>
