<?xml version="1.0" encoding="UTF-8" standalone="no"?>
<svg
   x="0px"
   y="0px"
   width="78.660004"
   height="78.660004"
   version="1.1"
   id="svg2"
   sodipodi:docname="Cathay_Bank_logo.svg"
   inkscape:version="1.3.2 (091e20e, 2023-11-25, custom)"
   xmlns:inkscape="http://www.inkscape.org/namespaces/inkscape"
   xmlns:sodipodi="http://sodipodi.sourceforge.net/DTD/sodipodi-0.dtd"
   xmlns="http://www.w3.org/2000/svg"
   xmlns:svg="http://www.w3.org/2000/svg">
  <defs
     id="defs2" />
  <sodipodi:namedview
     id="namedview2"
     pagecolor="#505050"
     bordercolor="#ffffff"
     borderopacity="1"
     inkscape:showpageshadow="0"
     inkscape:pageopacity="0"
     inkscape:pagecheckerboard="1"
     inkscape:deskcolor="#d1d1d1"
     inkscape:zoom="7.414"
     inkscape:cx="138.3194"
     inkscape:cy="28.864311"
     inkscape:window-width="5120"
     inkscape:window-height="2054"
     inkscape:window-x="-11"
     inkscape:window-y="-11"
     inkscape:window-maximized="1"
     inkscape:current-layer="svg2" />
  <path
     fill="#d22630"
     d="M 66.61,0 H 12.26 C 5.49,0 0,5.49 0,12.26 V 66.4 c 0,6.77 5.49,12.26 12.26,12.26 H 66.4 c 6.78,0 12.26,-5.49 12.26,-12.26 V 12.05 C 78.66,5.39 73.27,0 66.61,0 m 2.22,34.41 H 34.41 v 9.83 h 34.42 v 19.49 c 0,2.81 -2.28,5.09 -5.09,5.09 H 14.92 c -2.81,0 -5.09,-2.28 -5.09,-5.09 V 14.92 c 0,-2.81 2.28,-5.09 5.09,-5.09 h 48.82 c 2.81,0 5.09,2.28 5.09,5.09 z M 63.85,17.27 V 29.44 H 29.43 V 49.23 H 63.85 V 61.4 c 0,1.36 -1.1,2.46 -2.46,2.46 H 17.27 c -1.36,0 -2.46,-1.1 -2.46,-2.46 V 17.27 c 0,-1.36 1.1,-2.46 2.46,-2.46 H 61.4 c 1.35,0 2.45,1.1 2.45,2.46"
     id="path2" />
</svg>
