<?xml version="1.0" encoding="UTF-8" standalone="no"?>
<!-- Generator: Adobe Illustrator 22.0.1, SVG Export Plug-In . SVG Version: 6.00 Build 0)  -->

<svg
   version="1.1"
   id="Layer_1"
   x="0px"
   y="0px"
   width="47.412556"
   height="47.412556"
   viewBox="0 0 47.412555 47.412555"
   enable-background="new 0 0 250.1 54.77"
   xml:space="preserve"
   sodipodi:docname="Citizens_Financial_Group.svg"
   inkscape:version="1.3.2 (091e20e, 2023-11-25, custom)"
   xmlns:inkscape="http://www.inkscape.org/namespaces/inkscape"
   xmlns:sodipodi="http://sodipodi.sourceforge.net/DTD/sodipodi-0.dtd"
   xmlns="http://www.w3.org/2000/svg"
   xmlns:svg="http://www.w3.org/2000/svg"><defs
   id="defs1" /><sodipodi:namedview
   id="namedview1"
   pagecolor="#505050"
   bordercolor="#ffffff"
   borderopacity="1"
   inkscape:showpageshadow="0"
   inkscape:pageopacity="0"
   inkscape:pagecheckerboard="1"
   inkscape:deskcolor="#d1d1d1"
   inkscape:zoom="5.2403934"
   inkscape:cx="90.737463"
   inkscape:cy="5.7247611"
   inkscape:window-width="5120"
   inkscape:window-height="2054"
   inkscape:window-x="-11"
   inkscape:window-y="-11"
   inkscape:window-maximized="1"
   inkscape:current-layer="Layer_1" />
<path
   fill="#00965e"
   d="m 46.291278,46.291278 c 1.48,-1.48 1.51,-3.91 0,-5.41 l -8.84,-8.84 6.14,0.06 c 2.4,0.06 3.79,-1.62 3.79,-3.73 0,-2.16 -1.69,-3.85 -3.79,-3.85 h -7.64 c -1.68,0 -3.04,1.04 -3.56,2.4 -0.96,2.5 -2.93,4.48 -5.47,5.47 -1.37,0.54 -2.4,1.88 -2.4,3.56 v 7.64 c 0,2.1 1.68,3.79 3.85,3.79 2.1,0 3.79,-1.39 3.73,-3.79 l -0.06,-6.14 8.84,8.84 c 1.5,1.5 3.93,1.47 5.41,0 m 0,-45.1699998 c -1.47,-1.47999998 -3.91,-1.50999998 -5.41,0 l -8.84,8.84 0.06,-6.14 c 0.06,-2.4 -1.63,-3.78999998 -3.73,-3.78999998 -2.16,0 -3.85,1.68999998 -3.85,3.78999998 v 7.6399998 c 0,1.68 1.04,3.04 2.4,3.56 2.5,0.96 4.47,2.93 5.47,5.47 0.54,1.37 1.88,2.4 3.56,2.4 h 7.64 c 2.1,0 3.79,-1.68 3.79,-3.85 0,-2.1 -1.39,-3.79 -3.79,-3.73 l -6.14,0.06 8.84,-8.8399998 c 1.5,-1.5 1.47,-3.94 0,-5.41 m -45.1699998,0 c -1.47999998,1.48 -1.49999998,3.91 0,5.41 l 8.84,8.8399998 -6.14,-0.06 c -2.4,-0.06 -3.78999998,1.62 -3.78999998,3.73 0,2.16 1.68999998,3.85 3.78999998,3.85 h 7.6399998 c 1.68,0 3.04,-1.04 3.56,-2.4 0.96,-2.5 2.93,-4.48 5.47,-5.47 1.37,-0.54 2.4,-1.88 2.4,-3.56 V 3.8212782 c 0,-2.1 -1.68,-3.78999998 -3.85,-3.78999998 -2.1,0 -3.79,1.38999998 -3.73,3.78999998 l 0.06,6.14 -8.8399998,-8.84 c -1.5,-1.50999998 -3.94,-1.47999998 -5.41,0 m 0,45.1699998 c 1.47,1.48 3.91,1.51 5.41,0 l 8.8399998,-8.84 -0.06,6.14 c -0.06,2.4 1.62,3.79 3.73,3.79 2.16,0 3.85,-1.69 3.85,-3.79 v -7.64 c 0,-1.68 -1.04,-3.04 -2.4,-3.56 -2.5,-0.96 -4.47,-2.93 -5.47,-5.47 -0.54,-1.37 -1.88,-2.4 -3.56,-2.4 H 3.8212782 c -2.1,0 -3.78999998,1.68 -3.78999998,3.85 0,2.1 1.38999998,3.79 3.78999998,3.73 l 6.14,-0.06 -8.84,8.84 c -1.50999998,1.5 -1.47999998,3.93 0,5.41"
   id="path1"
   sodipodi:nodetypes="ccccsssccsssccscccccsssccsssccsccsccsssccsssccccccccsssccssscccc" />
</svg>
