<?xml version="1.0" encoding="UTF-8" standalone="no"?>
<svg
   width="118.51466"
   height="82.999916"
   viewBox="0 0 118.51466 82.999916"
   fill="none"
   version="1.1"
   id="svg28"
   sodipodi:docname="Credit_Suisse_Logo_2022.svg"
   inkscape:version="1.3.2 (091e20e, 2023-11-25, custom)"
   xmlns:inkscape="http://www.inkscape.org/namespaces/inkscape"
   xmlns:sodipodi="http://sodipodi.sourceforge.net/DTD/sodipodi-0.dtd"
   xmlns="http://www.w3.org/2000/svg"
   xmlns:svg="http://www.w3.org/2000/svg">
  <defs
     id="defs28" />
  <sodipodi:namedview
     id="namedview28"
     pagecolor="#505050"
     bordercolor="#ffffff"
     borderopacity="1"
     inkscape:showpageshadow="0"
     inkscape:pageopacity="0"
     inkscape:pagecheckerboard="1"
     inkscape:deskcolor="#d1d1d1"
     inkscape:zoom="2.0225655"
     inkscape:cx="-190.59952"
     inkscape:cy="39.553726"
     inkscape:window-width="5120"
     inkscape:window-height="2054"
     inkscape:window-x="-11"
     inkscape:window-y="-11"
     inkscape:window-maximized="1"
     inkscape:current-layer="svg28" />
  <path
     d="m 91.966986,61.9132 c -9.954,-1.6017 -20.708,-2.5169 -28.602,-1.1441 -0.457,0.1144 -0.801,-0.2288 -0.801,-0.6864 0,-2.7458 0,-11.6694 -2.173,-22.7668 0,-0.2288 -0.115,-0.3432 -0.343,-0.4576 C 34.076986,18.6678 10.623986,6.5407902 1.0139856,1.9645602 0.32798558,1.6213402 -0.35901442,2.5365902 0.21298558,3.1086202 28.242986,28.8499 38.081986,72.6673 39.339986,78.502 c 0.114,0.3432 0.458,0.572 0.801,0.572 31.461,-6.0635 63.037004,1.4873 71.847004,3.8898 0.686,0.2288 1.144,-0.6864 0.686,-1.144 -6.521,-6.9788 -13.385004,-13.4999 -20.364004,-19.6778 0,-0.1144 -0.115,-0.2288 -0.343,-0.2288 z"
     fill="#183964"
     id="path13" />
  <path
     d="M 118.39799,66.3755 C 93.113986,32.5114 57.190986,7.5709802 45.864986,0.13460515 c -0.687,-0.457623 -1.373,0.343217 -0.915,1.02965505 8.694,11.4405398 13.156,24.5972398 15.33,35.5801398 0,0.2289 0.114,0.3433 0.229,0.4577 10.411,7.3219 21.051,15.5592 31.576,24.5972 0.114,0.1144 0.229,0.1144 0.343,0.1144 10.983004,1.8305 21.051004,4.3474 25.169004,5.4915 0.687,0.2288 1.144,-0.4576 0.801,-1.0297 z"
     fill="#183964"
     id="path14" />
  <path
     d="m 91.966986,61.9132 c -9.954,-1.6017 -20.708,-2.5169 -28.602,-1.1441 -0.457,0.1144 -0.801,-0.2288 -0.801,-0.6864 0,-2.7458 0,-11.6694 -2.173,-22.7668 0,-0.2288 -0.115,-0.3432 -0.343,-0.4576 C 34.076986,18.6678 10.623986,6.5407902 1.0139856,1.9645602 0.32798558,1.6213402 -0.35901442,2.5365902 0.21298558,3.1086202 28.242986,28.8499 38.081986,72.6673 39.339986,78.502 c 0.114,0.3432 0.458,0.572 0.801,0.572 31.461,-6.0635 63.037004,1.4873 71.847004,3.8898 0.686,0.2288 1.144,-0.6864 0.686,-1.144 -6.521,-6.9788 -13.385004,-13.4999 -20.364004,-19.6778 0,-0.1144 -0.115,-0.2288 -0.343,-0.2288 z"
     fill="#183964"
     id="path27" />
  <path
     d="M 118.39799,66.3755 C 93.113986,32.5114 57.190986,7.5709802 45.864986,0.13460515 c -0.687,-0.457623 -1.373,0.343217 -0.915,1.02965505 8.694,11.4405398 13.156,24.5972398 15.33,35.5801398 0,0.2289 0.114,0.3433 0.229,0.4577 10.411,7.3219 21.051,15.5592 31.576,24.5972 0.114,0.1144 0.229,0.1144 0.343,0.1144 10.983004,1.8305 21.051004,4.3474 25.169004,5.4915 0.687,0.2288 1.144,-0.4576 0.801,-1.0297 z"
     fill="#183964"
     id="path28" />
</svg>
