<?xml version="1.0" encoding="UTF-8" standalone="no"?>
<svg
   width="37.484062"
   height="32"
   viewBox="0 0 37.484063 32"
   version="1.1"
   id="svg2"
   sodipodi:docname="Customers_Bank_logo.svg"
   inkscape:version="1.3.2 (091e20e, 2023-11-25, custom)"
   xmlns:inkscape="http://www.inkscape.org/namespaces/inkscape"
   xmlns:sodipodi="http://sodipodi.sourceforge.net/DTD/sodipodi-0.dtd"
   xmlns="http://www.w3.org/2000/svg"
   xmlns:svg="http://www.w3.org/2000/svg">
  <defs
     id="defs2" />
  <sodipodi:namedview
     id="namedview2"
     pagecolor="#505050"
     bordercolor="#ffffff"
     borderopacity="1"
     inkscape:showpageshadow="0"
     inkscape:pageopacity="0"
     inkscape:pagecheckerboard="1"
     inkscape:deskcolor="#d1d1d1"
     inkscape:zoom="5.4241268"
     inkscape:cx="15.947267"
     inkscape:cy="4.7933983"
     inkscape:window-width="5120"
     inkscape:window-height="2054"
     inkscape:window-x="-11"
     inkscape:window-y="-11"
     inkscape:window-maximized="1"
     inkscape:current-layer="svg2" />
  <path
     d="m 26.469031,32 h -15.454 A 11.013,11.013 0 0 1 3.0679016e-5,21.01 10.821,10.821 0 0 1 1.2170307,16 10.827,10.827 0 0 1 3.0679016e-5,10.987 11.014,11.014 0 0 1 11.015031,4.8451223e-8 h 15.454 A 11.014,11.014 0 0 1 37.484031,10.987 a 10.826,10.826 0 0 1 -1.217,5.013 10.822,10.822 0 0 1 1.217,5.011 11.013,11.013 0 0 1 -11.015,10.989 z m -6.759,-10.025 v 8.091 h 6.759 a 9.078,9.078 0 0 0 9.08,-9.056 8.979,8.979 0 0 0 -0.549,-3.077 11,11 0 0 1 -8.528,4.042 z M 2.4870307,17.932 a 9.028,9.028 0 0 0 8.5280003,12.134 h 6.759 v -8.091 h -6.759 A 10.99,10.99 0 0 1 2.4870307,17.932 Z m 8.5280003,-5.98 A 9.077,9.077 0 0 0 3.4580307,16 9.077,9.077 0 0 0 11.014031,20.046 h 15.455 a 9.076,9.076 0 0 0 7.556,-4.046 9.077,9.077 0 0 0 -7.556,-4.046 z m 8.7,-10.022 v 8.091 h 6.759 a 11,11 0 0 1 8.526,4.043 8.98,8.98 0 0 0 0.551,-3.077 9.078,9.078 0 0 0 -9.08,-9.057 z m -8.7,0 a 9.078,9.078 0 0 0 -9.0800003,9.057 8.979,8.979 0 0 0 0.551,3.077 10.993,10.993 0 0 1 8.5280003,-4.043 h 6.759 v -8.09 z"
     fill="#009dff"
     id="path2" />
</svg>
