<?xml version="1.0" encoding="UTF-8" standalone="no"?>
<svg
   x="0px"
   y="0px"
   width="38.5"
   height="38.509998"
   version="1.1"
   id="svg3"
   sodipodi:docname="East_West_Bank.svg"
   inkscape:version="1.3.2 (091e20e, 2023-11-25, custom)"
   xmlns:inkscape="http://www.inkscape.org/namespaces/inkscape"
   xmlns:sodipodi="http://sodipodi.sourceforge.net/DTD/sodipodi-0.dtd"
   xmlns="http://www.w3.org/2000/svg"
   xmlns:svg="http://www.w3.org/2000/svg">
  <defs
     id="defs3" />
  <sodipodi:namedview
     id="namedview3"
     pagecolor="#505050"
     bordercolor="#ffffff"
     borderopacity="1"
     inkscape:showpageshadow="0"
     inkscape:pageopacity="0"
     inkscape:pagecheckerboard="1"
     inkscape:deskcolor="#d1d1d1"
     inkscape:zoom="24.713333"
     inkscape:cx="26.605072"
     inkscape:cy="7.4049096"
     inkscape:window-width="5120"
     inkscape:window-height="2054"
     inkscape:window-x="-11"
     inkscape:window-y="-11"
     inkscape:window-maximized="1"
     inkscape:current-layer="svg3" />
  <path
     id="path2"
     d="M 5.5996094 0 C 4.95961 0 4.3500781 0.060546875 4.3300781 0.060546875 C 1.8900806 0.26054668 0.13078117 2.0296117 0.05078125 4.3496094 C 0.05078125 4.3496094 0 5.0091412 0 5.6191406 L 0 32.900391 C 0 33.54039 0.050546885 34.149688 0.060546875 34.179688 C 0.26054668 36.619685 2.0298461 38.380938 4.3398438 38.460938 C 4.3398438 38.460938 4.9993756 38.509766 5.609375 38.509766 L 32.900391 38.509766 C 33.54039 38.509766 34.149922 38.449219 34.169922 38.449219 C 36.609919 38.249219 38.369219 36.47992 38.449219 34.169922 C 38.449219 34.139922 38.5 33.51039 38.5 32.900391 L 38.5 5.5996094 C 38.5 4.96961 38.439453 4.3500781 38.439453 4.3300781 C 38.239453 1.8900806 36.470154 0.13078117 34.160156 0.05078125 C 34.130156 0.05078125 33.500624 0 32.890625 0 L 5.5996094 0 z M 5.5996094 0.83984375 L 32.890625 0.83984375 C 33.470624 0.83984375 34.089375 0.890625 34.109375 0.890625 C 36.029373 0.96062493 37.42961 2.3703927 37.599609 4.4003906 C 37.599609 4.4103906 37.650391 5.0093756 37.650391 5.609375 L 37.650391 32.880859 C 37.650391 33.460859 37.599609 34.079609 37.599609 34.099609 C 37.529609 36.019607 36.120076 37.419844 34.080078 37.589844 C 34.080078 37.589844 33.490624 37.650391 32.890625 37.650391 L 5.5996094 37.650391 C 5.01961 37.650391 4.4008594 37.599609 4.3808594 37.599609 C 2.4608613 37.529609 1.0606248 36.119842 0.890625 34.089844 C 0.890625 34.079844 0.83984375 33.480859 0.83984375 32.880859 L 0.83984375 5.609375 C 0.83984375 5.0293756 0.890625 4.410625 0.890625 4.390625 C 0.96062493 2.4706269 2.3701583 1.0703905 4.4101562 0.90039062 C 4.4101562 0.89039064 4.99961 0.83984375 5.5996094 0.83984375 z M 5.609375 1.8105469 C 5.1793754 1.8105469 4.7109375 1.8496094 4.7109375 1.8496094 C 3.0009392 1.9996092 1.9193749 3.2092202 1.859375 4.6992188 C 1.859375 4.6992187 1.8203125 5.1396098 1.8203125 5.5996094 L 1.8203125 21.880859 L 5.6308594 21.130859 L 5.9296875 1.8105469 L 5.609375 1.8105469 z M 7.0195312 1.8105469 L 7.3007812 20.820312 L 10.490234 20.199219 L 10.820312 1.8105469 L 7.0195312 1.8105469 z M 11.820312 1.8105469 L 12.160156 19.869141 L 15.660156 19.179688 L 15.660156 1.8105469 L 11.820312 1.8105469 z M 16.609375 1.8105469 L 17.359375 5.6191406 L 36.679688 5.9199219 L 36.679688 5.5996094 C 36.679688 5.1696098 36.640625 4.6992188 36.640625 4.6992188 C 36.480625 2.9892205 35.279061 1.9096093 33.789062 1.8496094 C 33.789062 1.8496094 33.350625 1.8105469 32.890625 1.8105469 L 16.609375 1.8105469 z M 36.679688 7 L 17.669922 7.2890625 L 18.289062 10.480469 L 36.679688 10.810547 L 36.679688 7 z M 36.679688 11.810547 L 18.619141 12.150391 L 19.310547 15.650391 L 36.679688 15.650391 L 36.679688 11.810547 z M 36.679688 16.609375 L 32.869141 17.359375 L 32.570312 36.679688 L 32.890625 36.679688 C 33.320625 36.679688 33.789062 36.640625 33.789062 36.640625 C 35.499061 36.480625 36.580625 35.279061 36.640625 33.789062 C 36.640625 33.789062 36.679688 33.350625 36.679688 32.890625 L 36.679688 16.609375 z M 31.199219 17.660156 L 28.009766 18.279297 L 27.679688 36.669922 L 31.490234 36.669922 L 31.199219 17.660156 z M 26.339844 18.619141 L 22.839844 19.310547 L 22.839844 36.669922 L 22.839844 36.679688 L 26.679688 36.679688 L 26.339844 18.619141 z M 1.8203125 22.830078 L 1.8203125 26.669922 L 19.880859 26.330078 L 19.189453 22.830078 L 1.8203125 22.830078 z M 1.8203125 27.679688 L 1.8203125 31.480469 L 20.830078 31.199219 L 20.210938 28.009766 L 1.8203125 27.679688 z M 1.8105469 32.560547 L 1.8105469 32.880859 C 1.8105469 33.310859 1.8496094 33.779297 1.8496094 33.779297 C 2.0096092 35.489295 3.2092202 36.570859 4.6992188 36.630859 C 4.6992188 36.630859 5.1396098 36.669922 5.5996094 36.669922 L 21.880859 36.669922 L 21.130859 32.859375 L 1.8105469 32.560547 z " />
</svg>
