<?xml version="1.0" encoding="UTF-8" standalone="no"?>
<!-- Generator: Adobe Illustrator 22.0.1, SVG Export Plug-In . SVG Version: 6.00 Build 0)  -->

<svg
   version="1.1"
   id="Layer_1"
   x="0px"
   y="0px"
   width="40.099609"
   height="35.699219"
   viewBox="0 0 40.099611 35.699221"
   xml:space="preserve"
   sodipodi:docname="Fifth_Third_Bank.svg"
   inkscape:version="1.3.2 (091e20e, 2023-11-25, custom)"
   xmlns:inkscape="http://www.inkscape.org/namespaces/inkscape"
   xmlns:sodipodi="http://sodipodi.sourceforge.net/DTD/sodipodi-0.dtd"
   xmlns="http://www.w3.org/2000/svg"
   xmlns:svg="http://www.w3.org/2000/svg"
   xmlns:rdf="http://www.w3.org/1999/02/22-rdf-syntax-ns#"
   xmlns:cc="http://creativecommons.org/ns#"><sodipodi:namedview
   id="namedview1"
   pagecolor="#505050"
   bordercolor="#ffffff"
   borderopacity="1"
   inkscape:showpageshadow="0"
   inkscape:pageopacity="0"
   inkscape:pagecheckerboard="1"
   inkscape:deskcolor="#d1d1d1"
   inkscape:zoom="19.416628"
   inkscape:cx="32.31766"
   inkscape:cy="16.841235"
   inkscape:window-width="5120"
   inkscape:window-height="2054"
   inkscape:window-x="-11"
   inkscape:window-y="-11"
   inkscape:window-maximized="1"
   inkscape:current-layer="Layer_1" /><defs
   id="defs49">
	
	
	
	
	
	
	
	
	
	
	
	
	
	
	
	
	
	
</defs>
<style
   type="text/css"
   id="style2">
	.st0{fill:#1B459C;}
	.st1{fill:#00AE64;}
	.st2{fill:#FFFFFF;}
</style>

<desc
   id="desc6">Created with Sketch.</desc>
<path
   id="path28"
   class="st1"
   d="m 0,0 v 25 c 0,5.899988 4.7992303,10.599218 10.699219,10.699218 h 29.40039 v -25 C 39.999609,4.799231 35.300379,0 29.400391,0 Z M 1.9003906,1.9003906 H 29.400391 c 4.799985,0 8.699218,3.8992332 8.699218,8.6992184 v 23.099609 h -27.5 C 5.7996246,33.699218 1.9003906,29.799985 1.9003906,25 Z M 3.1992188,3.1992188 V 25 c 0,4.199985 3.4000117,7.5 7.5000002,7.5 H 36.900391 V 10.699218 c 0,-4.0999861 -3.399622,-7.4999992 -7.59961,-7.4999992 z m 19.4003902,3 H 24 L 18,29 16.599609,29.099609 Z M 6.5,6.7988282 h 9.800781 L 16.199219,11.90039 H 6.5 Z m 0.099609,6.4999998 h 6.800782 c 0.899999,0.1 1.700391,0.5 2.40039,1 0.799999,0.599999 1.399219,1.500001 1.699219,2.5 0.3,1.099999 0.1,2.4 -0.5,3 C 16.300001,20.598827 15.30039,21 14.400391,21 H 6.9003906 c 0,0 3.9988274,-0.701176 3.2988284,-4.201172 -0.6,-1.699999 -1.899611,-3.000001 -3.59961,-3.5 z m 16.5,0.601562 H 29.5 c 0.799999,0 1.600782,0.298829 2.300781,0.798828 0.799999,0.6 1.39961,1.400783 1.59961,2.300782 0.299999,0.999999 3.9e-4,1.998829 -0.59961,2.798828 -0.699999,0.799999 -1.601563,1.200391 -2.601562,1.40039 0.699999,0.3 1.400391,0.701173 1.90039,1.201172 0.7,0.5 1.100782,1.29961 1.300782,2.09961 0.199999,0.999999 -0.100782,1.999219 -0.800782,2.699218 -0.199999,0.2 -1.09883,1.400391 -3.298828,1.400391 h -6.201172 c 0,0 4.000781,-0.799613 3.300782,-4.099609 -0.2,-0.6 -0.500001,-1.300782 -1,-1.800782 -0.7,-0.699999 -1.401173,-1.2 -2.201172,-1.5 4.199996,-0.899999 3.201172,-4 3.201172,-4 -0.5,-1.599998 -1.700783,-2.798828 -3.300782,-3.298828 z" />
<metadata
   id="metadata866"><rdf:RDF><cc:Work
       rdf:about="" /></rdf:RDF></metadata></svg>
