<?xml version="1.0" encoding="UTF-8" standalone="no"?>
<svg
   version="1.1"
   id="Layer_1"
   x="0px"
   y="0px"
   viewBox="0 0 29.437849 29.607364"
   xml:space="preserve"
   width="136.17061"
   height="136.17188"
   sodipodi:docname="First_Horizon_Bank.svg"
   inkscape:version="1.3.2 (091e20e, 2023-11-25, custom)"
   xmlns:inkscape="http://www.inkscape.org/namespaces/inkscape"
   xmlns:sodipodi="http://sodipodi.sourceforge.net/DTD/sodipodi-0.dtd"
   xmlns:xlink="http://www.w3.org/1999/xlink"
   xmlns="http://www.w3.org/2000/svg"
   xmlns:svg="http://www.w3.org/2000/svg"><defs
   id="defs21">
	<defs
   id="defs7">
		<rect
   id="SVGID_5_"
   width="184.88797"
   height="25.422974"
   x="0"
   y="0" />
	</defs>
	<clipPath
   id="SVGID_6_">
		<use
   xlink:href="#SVGID_5_"
   style="overflow:visible"
   id="use7" />
	</clipPath>
	
	
	
	
	
	
	
	
	
	
	
	
	
	
	
	
	
	
	
	
	
	
	
</defs><sodipodi:namedview
   id="namedview21"
   pagecolor="#505050"
   bordercolor="#ffffff"
   borderopacity="1"
   inkscape:showpageshadow="0"
   inkscape:pageopacity="0"
   inkscape:pagecheckerboard="1"
   inkscape:deskcolor="#d1d1d1"
   inkscape:zoom="6.1298752"
   inkscape:cx="116.56029"
   inkscape:cy="6.8516893"
   inkscape:window-width="5120"
   inkscape:window-height="2054"
   inkscape:window-x="-11"
   inkscape:window-y="-11"
   inkscape:window-maximized="1"
   inkscape:current-layer="Layer_1" />
<style
   type="text/css"
   id="style1">
	.st0{clip-path:url(#SVGID_2_);fill:#0057A7;}
	.st1{clip-path:url(#SVGID_4_);fill:#0057A7;}
	.st2{clip-path:url(#SVGID_6_);fill:#0057A7;}
	@media (prefers-color-scheme: dark) { .st0,.st1,.st2 {fill:#FFFFFF;} }
	.st3{clip-path:url(#SVGID_6_);fill:#FFFFFF;}
	.st4{clip-path:url(#SVGID_6_);fill:#FE3B1F;}
	.st5{clip-path:url(#SVGID_6_);fill:#0057A7;}
</style>


<path
   id="polygon8"
   clip-path="url(#SVGID_6_)"
   style="stroke-width:0.84905"
   class="st3"
   d="M -2.3252262e-4,0.17654221 V 21.728556 L 3.3796413,25.314669 H 25.137894 V 0.17654221 Z M 9.3400311,2.0727185 H 23.241358 V 16.407076 C 21.089015,9.7420625 15.914227,4.4237716 9.3400311,2.0727185 Z M 1.8970254,3.3851508 C 6.449621,3.4148448 10.644992,4.9780979 13.991955,7.5838526 l -4.1561562,5.0474564 -5.3676319,0.135209 2.9349448,3.273149 -3.8392251,5.822656 6.6641994,-3.02256 3.980204,3.02256 v -5.18591 l 4.819944,-3.323988 c 1.7032,2.936015 2.679669,6.34477 2.679669,9.97701 v 0.08762 H 3.8523333 c -1.079992,0 -1.9553079,-0.874621 -1.9553079,-1.954587 z M 14.20829,7.7554784 c 1.745642,1.3975816 3.252035,3.0828756 4.447487,4.9821946 L 14.20829,12.631309 Z"
   transform="matrix(1.1777872,0,0,1.1777872,-0.07184898,-0.20792916)" />
</svg>
