<?xml version="1.0" encoding="UTF-8" standalone="no"?>
<svg
   x="0px"
   y="0px"
   width="35.349998"
   height="35.349998"
   version="1.1"
   id="svg1"
   sodipodi:docname="First_National_of_Nebraska_logo.svg"
   inkscape:version="1.3.2 (091e20e, 2023-11-25, custom)"
   xmlns:inkscape="http://www.inkscape.org/namespaces/inkscape"
   xmlns:sodipodi="http://sodipodi.sourceforge.net/DTD/sodipodi-0.dtd"
   xmlns="http://www.w3.org/2000/svg"
   xmlns:svg="http://www.w3.org/2000/svg">
  <defs
     id="defs1" />
  <sodipodi:namedview
     id="namedview1"
     pagecolor="#505050"
     bordercolor="#ffffff"
     borderopacity="1"
     inkscape:showpageshadow="0"
     inkscape:pageopacity="0"
     inkscape:pagecheckerboard="1"
     inkscape:deskcolor="#d1d1d1"
     inkscape:zoom="4.3687414"
     inkscape:cx="212.07481"
     inkscape:cy="8.9270562"
     inkscape:window-width="5120"
     inkscape:window-height="2054"
     inkscape:window-x="-11"
     inkscape:window-y="-11"
     inkscape:window-maximized="1"
     inkscape:current-layer="svg1" />
  <path
     fill="#006341"
     d="m 35.35,17.67 c 0,8.1 -5.4,14.97 -13.01,16.93 V 29.2 C 27,27.24 29.95,22.82 29.95,17.67 29.95,10.8 24.55,5.4 17.68,5.4 10.8,5.4 5.16,10.8 5.16,17.67 c 0,5.89 4.17,10.8 9.57,12.03 V 15.47 h -2.95 v -3.68 c 0,0 3.44,0 4.66,-3.68 h 4.17 V 35.1 c -0.98,0.25 -1.96,0.25 -2.95,0.25 C 7.86,35.34 0,27.49 0,17.67 0,7.85 7.86,0 17.68,0 27.49,0 35.35,7.85 35.35,17.67"
     id="path1"
     sodipodi:nodetypes="cccsssccccccccssc" />
</svg>
