<?xml version="1.0" encoding="UTF-8" standalone="no"?>
<svg
   x="0px"
   y="0px"
   width="62.5"
   height="31.299999"
   version="1.1"
   id="svg4"
   sodipodi:docname="First_Hawaiian_Bank_logo.svg"
   inkscape:version="1.3.2 (091e20e, 2023-11-25, custom)"
   xmlns:inkscape="http://www.inkscape.org/namespaces/inkscape"
   xmlns:sodipodi="http://sodipodi.sourceforge.net/DTD/sodipodi-0.dtd"
   xmlns="http://www.w3.org/2000/svg"
   xmlns:svg="http://www.w3.org/2000/svg">
  <defs
     id="defs4" />
  <sodipodi:namedview
     id="namedview4"
     pagecolor="#505050"
     bordercolor="#ffffff"
     borderopacity="1"
     inkscape:showpageshadow="0"
     inkscape:pageopacity="0"
     inkscape:pagecheckerboard="1"
     inkscape:deskcolor="#d1d1d1"
     inkscape:zoom="3.0891667"
     inkscape:cx="351.71298"
     inkscape:cy="39.816563"
     inkscape:window-width="5120"
     inkscape:window-height="2054"
     inkscape:window-x="-11"
     inkscape:window-y="-11"
     inkscape:window-maximized="1"
     inkscape:current-layer="svg4" />
  <path
     fill="#f0ab36"
     d="m 38.5,9.3 c -12.1,0 -22,9.9 -22,22 h 13.3 c 0,-7.7 6,-14.8 15.5,-14.8 8.1,0 14.4,6.6 14.4,14.8 h 0.8 c 0,-12.1 -9.8,-22 -22,-22 z"
     id="path1" />
  <path
     fill="#a1252c"
     d="M 31.2,0 C 14,0 0,14 0,31.3 h 14.8 c 0,-13.1 10.6,-23.7 23.6,-23.7 13,0 23.3,10.6 23.3,23.7 h 0.8 C 62.5,14 48.5,0 31.2,0 Z"
     id="path2" />
  <path
     fill="#6a2427"
     d="m 45.1,18.2 c -7.4,0 -13.5,5.9 -13.5,13.1 h 0.8 c 0,-3.5 2.9,-6.4 6.4,-6.4 3.5,0 6.4,2.9 6.4,6.4 h 13.4 c 0,-7.2 -6,-13.1 -13.5,-13.1 z"
     id="path3" />
</svg>
