<?xml version="1.0" encoding="utf-8"?>
<!-- Generator: Adobe Illustrator 23.0.6, SVG Export Plug-In . SVG Version: 6.00 Build 0)  -->
<svg version="1.1" id="Layer_1" xmlns="http://www.w3.org/2000/svg" xmlns:xlink="http://www.w3.org/1999/xlink" x="0px" y="0px"
	 viewBox="0 0 2490 500" style="enable-background:new 0 0 2490 500;" xml:space="preserve">
<style type="text/css">
	.st0{fill:#102A54;}
	.st1{fill:#E20F38;}
</style>
<g id="XMLID_8_">
	<g>
		<g id="XMLID_17_">
			<g>
				<path class="st0" d="M771.2,324.7c6,13.6,11.1,19.6,21.7,27.7v2.4h-61.1c2.1-10.5,0-23.2-6-38l-16-40.1h-67.5L626,316.9
					c-5.7,15.4-7.8,28-6,38h-43.1v-2.4c11.1-8.4,16.9-14.2,22.6-27.7l61.1-150.9c3.9-10.8,3.9-19.9-0.6-27.4V144h37L771.2,324.7z
					 M650.7,255.8h50.6l-25.3-63L650.7,255.8z"/>
				<path class="st0" d="M1024.7,315.1c0.5,26.4,0.7,28.9,7.3,37.4v2.4h-54.5c6.3-11.4,7.1-19.3,7.1-34.9l0-139.5l-70.5,175.9h-7.2
					l-71.7-175.6l0,139.2c0,16.8,4.1,26.9,8.2,34.9H803v-2.4c8-6.7,8.1-18.2,8.1-37.4l-0.4-144.3c0-13.4-4.3-20.2-10.3-24.4V144
					h61.9l56.9,140.7L977.1,144h53.6v2.4c-4.8,4.2-7.8,9.9-7.8,16.3L1024.7,315.1z"/>
				<path class="st0" d="M1206.8,312.7l-13.9,44c-4.8-1.2-8.7-1.8-11.7-1.8h-122.3v-2.4c4.5-4.2,6.9-9.6,6.9-16.3V162.7
					c0-6.6-2.4-12-6.9-16.3V144h106.6c8.1,0,13.6-0.9,16.6-2.7h1.2v44h-1.2c-6-14.8-12.9-19.6-30.1-19.6h-47.6v58.7h48.2
					c4.5,0,7.8-1.2,10.5-3.9h1.2v31.6h-1.2c-5.7-3.9-11.7-6-18.1-6h-40.7V332h59.6c17.2,0,30.7-6.9,40.7-20.5L1206.8,312.7z"/>
				<path class="st0" d="M1605.5,179.5c-15.1-11.4-31.3-17.2-48.5-17.2c-21.4,0-33.4,11.4-33.4,25.9c0,9,5.7,17.2,17.2,24.4
					c3.3,2.1,11.1,6.6,23.5,13c17.2,8.7,27.4,15.4,39.2,26.5c12,10.8,17.8,24.7,17.8,41.6c0,18.4-6.3,33.7-19.3,46.7
					c-12.9,13-30.1,19.3-51.8,19.3c-21.4,0-42.2-5.1-62.4-15.4l-9-43.1h2.1c6.9,9.3,16.3,17.5,28,23.8c11.7,6.3,23.8,9.6,35.5,9.6
					c22.9,0,36.7-13.9,36.7-33.1c0-9.6-5.1-18.7-9.6-24.4c-2.1-2.7-6-6-11.4-9.3c-5.1-3.6-9-6-11.7-7.5c-2.4-1.5-6.9-3.9-13.3-7.2
					c-8.1-4.2-14.5-7.5-19-10.2c-4.2-2.7-9-6.6-14.5-11.1c-10.8-9.3-15.4-20.5-15.4-35.8c0-17.5,6.3-31.3,19-41.3
					c12.7-10.2,28.9-15.4,49.1-15.4c7.8,0,16.3,0.9,25.6,2.4c9.3,1.5,16.6,3.3,21.1,4.8L1605.5,179.5z"/>
				<path class="st0" d="M1859.8,251.3c10.5,9.9,16,22.9,16,39.5c0,18.7-7.2,34.6-22,47.6c-14.5,12.9-36.4,19.3-66,19.3
					c-14.5,0-37.4-1.2-68.7-3.6v-2.4c4.5-4.2,6.9-9.6,6.9-16.3V161.9c0-6.6-2.4-12-6.9-16.3v-2.4c28.9-2.4,49.7-3.6,62.3-3.6
					c49.4,0,72,20.2,72,50.3c0,19.3-9.9,35.2-25.9,43.7C1838.4,235.6,1849.3,241.4,1859.8,251.3 M1777.9,160.3
					c-2.4,0-6.9,0.3-13.9,0.6v68.4h5.4c19.6,0,32.8-3,39.5-9.3c6.6-6.3,9.9-14.8,9.9-25.3C1818.8,171.5,1806.5,160.3,1777.9,160.3
					 M1835.1,292.3c0-30.1-17.5-45.2-52.1-45.2c-6.6,0-13,0.3-19,1.2v84.6c9.6,0.9,17.5,1.5,23.2,1.5
					C1819.1,334.4,1835.1,320.3,1835.1,292.3"/>
				<path class="st0" d="M2309.4,143.2h53.3c-5.1,6.9-7.8,18.7-7.8,34.9v141c0,16.3,2.7,28,7.8,34.9h-53.3v-2.4
					c4.5-4.2,6.9-9.6,6.9-16.3V161.9c0-6.6-2.4-12.1-6.9-16.3V143.2z M2391.6,230.2l69.6,94c9.9,14.2,19.3,23.5,28,28.3v1.5
					c-26.8,8.1-54.2-0.9-69-25.9l-65.4-89.8l61.1-67.8c7.5-8.7,9-17.5,4.5-26.2v-1.2h50L2391.6,230.2z"/>
				<path class="st0" d="M2064.5,323.9c6,13.6,11.2,19.6,21.7,27.7v2.4H2025c2.1-10.6,0-23.2-6-38l-16-40.1h-67.5l-16.3,40.1
					c-5.7,15.4-7.8,28-6,38h-43.1v-2.4c11.2-8.4,16.9-14.2,22.6-27.7l61.2-151c3.9-10.8,3.9-19.9-0.6-27.4v-2.4h37.1L2064.5,323.9z
					 M1943.9,254.9h50.6l-25.3-63L1943.9,254.9z"/>
				<path class="st0" d="M2289,143.1v2.4c-4.5,4.2-6.9,9.6-6.9,16.3v193.8h-7.8l-146.8-155.2v118.8c0,16,2.4,27.7,7.5,35h-38.6v-2.4
					c4.5-4.2,6.9-9.6,6.9-16.3V169.9c0-10.6-5.4-20.5-13-24.4v-2.4h37.7l130.2,137.1V178c0-16.3-2.7-28-7.8-35H2289z"/>
				<path class="st0" d="M1375,335c6.1,8.2,13.3,14.2,21.8,17.8v2.4c-8.2,1.5-15.1,2.4-21.2,2.1c-20.9,0-35.4-6.4-43-19.1
					l-45.1-66.9c-4.5-7.6-12.1-11.5-22.1-11.5h-2.1v60.2c0,16.3,2.7,28.1,7.9,35.1h-53.5v-2.4c4.5-4.2,7-9.7,7-16.3V162.3
					c0-6.7-2.4-12.1-7-16.3v-2.4c23.6-0.9,44.5-1.5,62.9-1.5c49.9,0,73.8,15.4,73.8,52.9c0,23.9-13.3,42.6-39.9,56.9L1375,335z
					 M1264.9,240c19.7,0,32.7-3.9,39.6-12.1c7-8.2,10.6-18.5,10.6-31.5c0-23.3-9.1-32.1-35.7-32.1c-7,0-12.4,0-16,0.3V240H1264.9z"
					/>
				<path class="st0" d="M1405.1,143.9h52.2v2.4c-4.5,4.2-6.9,9.7-6.9,16.3v173.8c0,6.6,2.4,12.1,6.9,16.3v2.4h-52.2v-2.4
					c4.5-4.5,6.9-10,6.9-16.3V162.6c0-6.3-2.4-11.8-6.9-16.3V143.9z"/>
			</g>
		</g>
		<g id="XMLID_14_">
			<g>
				<g>
					<path class="st1" d="M212.7,193.6C212.7,193.5,212.7,193.5,212.7,193.6l-0.3,0h-50H158c9.8,10.7,19.2,22.9,31.8,22.9
						c5.3,0,10.1-1.8,13.9-4.8l17.2,32.2V202C220.9,197.4,217.2,193.7,212.7,193.6z"/>
					<path class="st1" d="M289.2,193.5h-0.3c0,0,0,0,0,0c-4.6,0.1-8.2,3.9-8.2,8.5v41.8l17.2-32.3c3.8,2.9,8.6,4.7,13.8,4.7
						c12.6,0,21.9-12.1,31.7-22.7h-4.1H289.2z"/>
					<path class="st1" d="M250.8,0C112.9,0,0.8,112.2,0.8,250s112.2,250,250,250c137.8,0,250-112.2,250-250S388.6,0,250.8,0z
						 M480.2,219.5c-24.1-31.7-55.7-57.6-91.7-74.8c0.4-2.3,0.6-4.7,0.6-7c0-6.4-1.4-12.6-3.9-18.1c28,7.7,54.4,20.6,77.9,38.2
						C471.5,177.2,477.3,197.9,480.2,219.5z M444.8,123.9c-29.1-16.1-61.1-26.2-94.4-29.7l0,0.1c-1.6-0.2-3.3-0.3-5-0.3
						c-13.4,0-25.8,6.1-34,16.2l-17.8-14.9c31.1-16.3,65.7-25.4,101-26.4C414.2,84.4,431.1,103,444.8,123.9z M370.6,137.7
						c0,6.3-2.3,12.2-6.4,16.7l-38.5-32.3c4.7-6,11.9-9.6,19.7-9.6C359.3,112.5,370.6,123.8,370.6,137.7z M370.6,52.1
						c-32.4,4-63.8,14.3-92.2,30.3l-13.2-11.1l51.5-43.2C335.8,33.8,353.9,41.9,370.6,52.1z M250.8,18.6c14.9,0,29.4,1.4,43.6,4.1
						l-43.6,36.5l-43.6-36.5C221.3,20,235.9,18.6,250.8,18.6z M184.8,28.1l51.5,43.2l-13.2,11.1c-28.4-16.1-59.8-26.3-92.2-30.3
						C147.6,41.9,165.7,33.8,184.8,28.1z M106.9,68.9c35.3,1,69.9,10,101,26.4l-18.2,15.2c-8.2-10.3-20.6-16.5-34.2-16.5
						c-2.3,0-4.6,0.2-6.8,0.5c-32.4,3.7-63.6,13.8-91.9,29.4C70.4,103,87.4,84.4,106.9,68.9z M153.1,112.6c0.8-0.1,1.6-0.1,2.5-0.1
						c8,0,15.3,3.7,20,9.9L137,154.7c-4.2-4.6-6.6-10.6-6.6-17c0-12.8,9.5-23.3,21.9-24.9C152.5,112.7,152.8,112.7,153.1,112.6
						L153.1,112.6z M38.5,157.8c23.2-17.5,49.4-30.4,77.2-38.1c-2.5,5.5-3.9,11.5-3.9,17.9c0,2.5,0.2,4.9,0.6,7.3
						c-35.8,17.2-67.1,43-91.1,74.6C24.2,197.9,30.1,177.2,38.5,157.8z M19.4,256.1c23-40.5,58.2-73.5,100-93.9c1,1.5,2.2,3,3.4,4.4
						l-2.6,2.2c-5.1,4.3-10,8.7-14.6,13.3l-0.1,0l-0.3,0.3c-0.1,0.2-0.3,0.3-0.4,0.5C65.2,222.1,40,273.2,32.9,328.2
						C24.8,305.6,20.1,281.4,19.4,256.1z M94.3,420.4c-17.7-16.3-32.9-35.3-44.8-56.3c0-1.3-0.1-2.5-0.1-3.8
						c0-46.7,14-91.5,39.5-129.3c0.7,8.5,3,16.8,6.8,24.3C85.9,282.4,81,310.8,81,339.8C81,367.2,85.5,394.5,94.3,420.4z
						 M142.4,454.4c-6.3-3.3-12.4-7-18.3-10.8c-16.3-32.4-24.6-67.3-24.6-103.8c0-22.6,3.2-44.8,9.6-66.2c3.6,3.4,7.5,6.5,11.9,9
						c0.4,0.2,0.7,0.4,1.1,0.6c8.8,5,15.9,12.1,20.9,20.5c-7.9,24.7-11.9,50.4-11.9,76.5C131.2,405.6,134.9,430.5,142.4,454.4z
						 M335.6,465.3c-26.3,10.4-54.9,16.1-84.9,16.1c-30,0-58.6-5.7-84.9-16.1c-10.7-27.1-16.2-55.7-16.2-85.1
						c0-11.7,0.9-23.3,2.6-34.8c3.1,15.3,12.6,28.4,25.4,36.3c1.2,39,12.5,73.2,70.1,73.2h5.7c57.5,0,68.8-34.1,70.1-73.1
						c12.9-7.9,22.4-21,25.6-36.4c1.7,11.5,2.6,23.1,2.6,34.8C351.8,409.6,346.4,438.2,335.6,465.3z M196.7,388.9
						c2.4,0.4,4.9,0.7,7.4,0.7c0.5,0,1,0,1.5,0c14.3,0,27.7-5.4,37.9-15.4c2.7-2.6,5.1-5.5,7.2-8.6c2.1,3.1,4.5,5.9,7.2,8.6
						c10.2,10,23.7,15.4,37.9,15.4c0.5,0,1,0,1.5,0c2.5-0.1,4.9-0.3,7.3-0.7c-2.3,31.5-13.3,47.4-51.1,47.4h-5.7
						C210,436.4,199,420.4,196.7,388.9z M331.8,332.2L331.8,332.2l0,2.1c0,19.8-15.6,36.3-34.8,36.8c-9.8,0.2-19-3.3-26-10.1
						c-6.2-6.1-10-14-10.7-22.5c7.1-6.7,14-12.9,20.7-18.4c-9.7-2.7-19.8-4.2-30.2-4.2c-10.3,0-20.4,1.5-30.1,4.2
						c6.6,5.6,13.6,11.8,20.7,18.5c-0.7,8.6-4.5,16.5-10.7,22.5c-7,6.8-16.2,10.4-26,10.1c-19.2-0.5-34.8-17-34.8-36.8v-2.1h-0.1
						c-0.2-26.7-14.6-51.4-37.7-64.7l0,0c-0.2-0.1-0.4-0.2-0.6-0.4c0,0-0.1-0.1-0.1-0.1l0,0c-0.2-0.1-0.5-0.3-0.7-0.4
						c-14.3-8.5-23.2-24-23.2-40.7c0-11.1,3.9-21.9,11.1-30.4c4.4-4.3,9-8.5,13.8-12.6l118.7-99.6L369.4,183
						c4.5,3.8,8.9,7.8,13.1,11.9l0,0c0.2,0.2,0.3,0.3,0.5,0.5c7.2,8.5,11.2,19.3,11.2,30.5c0,16.6-8.9,32.2-23.2,40.7
						c-0.2,0.1-0.5,0.3-0.7,0.4v0c-0.1,0-0.1,0.1-0.2,0.1c-0.2,0.1-0.4,0.2-0.6,0.3l0,0C346.4,280.8,332,305.5,331.8,332.2z
						 M377.3,443.7c-5.9,3.8-11.9,7.4-18.1,10.7c7.4-23.9,11.2-48.8,11.2-74.2c0-26.1-4-51.9-12-76.6c5-8.3,12.1-15.4,20.9-20.4
						c0.4-0.2,0.8-0.4,1.1-0.6c4.3-2.6,8.3-5.6,11.9-9c6.4,21.4,9.6,43.6,9.6,66.2C401.9,376.4,393.6,411.3,377.3,443.7z
						 M452.1,364.1c-12,21.1-27.2,40.1-45,56.5c8.8-25.9,13.4-53.3,13.4-80.8c0-29-4.9-57.4-14.7-84.5c3.8-7.6,6.1-15.8,6.8-24.4
						c25.6,37.8,39.6,82.7,39.6,129.4C452.1,361.6,452.1,362.8,452.1,364.1z M381.4,168.8l-3-2.5c1.2-1.4,2.3-2.8,3.3-4.3
						c42,20.4,77.3,53.5,100.4,94.1c-0.7,25.2-5.4,49.5-13.5,72.1C460.6,266.4,429.8,209.5,381.4,168.8z"/>
				</g>
			</g>
		</g>
	</g>
</g>
</svg>
