<svg xmlns="http://www.w3.org/2000/svg" height="103.09" width="294.35" viewBox="0 0 296 105.09">
 <g transform="matrix(1.3333 0 0 -1.3333 -116.26 158.55)">
  <path d="m115.57 118-21.782-50.084c-1.0396-2.3969-2.2522-5.181-4.6318-6.186l-1.3564-0.57275 13.044-0.02783c-0.70801 0.47661-1.3443 1.0594-1.7139 1.7812-0.60094 1.1984 0.03472 2.6985 0.54932 3.9521l3.8789 9.1685h25.437l2.3071-5.3071 1.626-3.8276c0.5077-1.2502 1.1439-2.7523 0.54638-3.9507-0.373-0.72528-1.0084-1.3052-1.7095-1.7783h13.22c-0.9843 1.195-2.0027 2.4687-1.9336 4.4063l3e-3 43.368c0 0.88414-0.14251 2.4451 1.125 2.7041 2.756 0.56295 6.3171 0.59086 8.8901 0.1626 2.2932-0.39026 3.5614-1.1502 5.1328-2.4902 1.4816-1.3435 2.6096-2.7348 3.3867-4.4443 0.49387-1.4816 0.86351-2.8221 0.93602-4.5352 0.0691-2.3969-0.84924-4.1439-1.9233-6.0469-1.3435-2.421-3.4599-4.097-5.6807-5.2954-1.7303-0.66656-3.7755-1.3738-5.1328-1.5879l36.51-46.723h7.6948l-0.17578 0.67822c-0.69765 0.30046-1.3578 0.63182-1.8896 1.2466l-33.781 42.56 0.26953 0.10693c1.6232 0.77708 3.088 1.9727 4.5454 3.1919 6.4239 5.3843 8.3812 14.992 2.8242 21.661-1.5887 1.903-3.6158 3.4395-5.8711 4.5688-3.7231 1.8339-7.9572 2.2009-12.05 1.5688-1.34-0.1934-2.6619-0.47665-4.002-0.70459-1.8166-0.30047-3.6514-0.49383-5.4888-0.19336-0.81162 0.12088-1.6053 0.30068-2.3789 0.4043l-2.0273 0.37207c1.1466-0.91868 2.5898-2.4346 2.5898-3.9888l0.28271-39.352zm148.84-1.7593c-5.2436-0.15708-10.212-2.774-12.52-7.9336-2.3485-5.2496 0.6005-10.863 5.187-13.83 6.1614-3.9821 15.186-10.154 16.17-14.481 0.78054-3.4088 0.21814-7.0041-2.272-9.3457-2.3623-2.4728-4.821-4.0267-8.4888-4.2788-2.4798-0.16923-4.756-0.02389-7.1045 0.53906-1.6371 0.49042-2.8944 1.533-4.3726 2.3101l-0.0894-0.0542c-0.0173-2.5937-0.0381-5.9613-0.0381-8.8521l0.40723 0.33398c0.68729 0.56986 1.547 0.88078 2.4346 0.93604 2.1931 0.13469 4.3798-0.49658 6.5625-0.49658 4.7799-0.1416 10.848 1.5533 13.072 3.5288 0 0 1.7432 1.3058 2.6792 2.4697 0.31428 0.26248 1.6756 2.1169 2.4009 3.564 0.93596 2.2898 1.3994 4.8805 1.3579 7.4604-0.15542 8.6066-10.455 15.594-18.396 20.602-2.6283 1.6578-5.3598 4.4134-4.0957 7.6875 1.2502 3.2292 4.5386 5.0326 7.9336 4.9014 2.1758-0.0794 4.4027-0.8286 6.3091-2.0581 1.3331-0.85652 2.5592-1.8795 3.5815-3.0952l0.66651-0.79834 0.0146 9.5537-0.0146 1.0078-0.29297-0.34131c-0.26248-0.30738-0.55583-0.58084-0.87012-0.83642-0.88414-0.71837-2.1348-0.20393-3.126 0.20361-2.273 0.93789-4.7137 1.3751-7.0972 1.3037zm14.105-0.59326v-7.8325c0.0553 0.0725 0.10618 0.15829 0.17871 0.24463 0.21068 0.31774 0.44242 0.68755 0.72217 1.0606 0.60095 0.79089 1.6064 1.0225 2.5562 1.0225h8.0742v-45.561c0-0.94286-0.8623-1.8589-1.5703-2.7568l-0.59766-0.7002h11.317l-0.60059 0.7251c-0.70801 0.90141-1.5718 1.7787-1.5718 2.7319v45.561h8.0786c0.94975 0 1.9543-0.23157 2.5518-1.0225 0.28665-0.373 0.51097-0.74281 0.7251-1.0606 0.0691-0.0863 0.12397-0.1721 0.17578-0.24463v7.8325zm-102.32-7e-3 -11.052-7e-3 0.66943-0.40723c1.0568-0.65274 1.9248-1.5518 2.543-2.6294 0.51115-0.8427 0.88027-1.7648 1.2671-2.6455l22.915-49.988c3.9856 9.4355 8.1126 18.718 12.098 28.206l8.5415 19.932 0.52881 1.2803c0.66311 1.5852 1.5301 3.6753 2.5869 4.4282 0.58022 0.41099 1.7199 0.96093 1.9409 0.96093 0.15887 0 0.69364-0.69528 0.94922-1.1235 0.33846-0.58713 0.33838-1.5775 0.33838-2.3892v-44.992c0-1.1121-0.40727-2.1869-1.1118-3.0469-0.68383-0.83925-1.4776-1.7365-1.7988-2.0991h32.319l-8e-3 8.3789c-0.25903-0.52151-0.86244-1.7972-1.4634-2.2808-0.74255-0.58713-2.0345-0.58594-3.0879-0.58594h-17.88l3e-3 18.933h13.428c0.373 0 1.1772-0.2874 1.7505-0.82617l1.0474-1.0122v9.5566l-0.70166-0.84961c-0.37645-0.45934-0.9632-0.92578-1.5469-0.92578h-13.978l5e-3 18.637h17.203c1.5473 0 3.4148 0.10686 4.292-1.3506 0.13123-0.22104 0.26238-0.44212 0.38671-0.65625 0.12434-0.21758 0.19082-0.3286 0.29444-0.51855l0.25488-0.45557v8.4756h-42.812l0.71485-0.8291c0.98084-1.043 1.1403-2.6148 0.55664-3.9756l-15.504-36.437c-5.8575 12.613-11.356 24.881-17.051 37.563-0.53187 1.1812-0.68761 2.1201 0.40722 2.9663zm-60.63-10.884 10.503-23.193h-20.53z" fill="#00264f"/>
 </g>
</svg>
