<svg xmlns="http://www.w3.org/2000/svg" x="0px" y="0px" width="300px" height="60.81px">
<path fill="#00A851" d="M21.54,29.28C16.56,36.73,9.22,42.65,0.5,46.12V31.53c8.72-3.47,16.06-9.39,21.04-16.84V29.28z M21.54,14.69
	c4.98,7.45,12.32,13.36,21.04,16.84V16.94C33.87,13.47,26.52,7.55,21.54,0.1V14.69z M21.54,43.87c4.98,7.45,12.32,13.37,21.04,16.84
	V46.12c-8.72-3.47-16.06-9.39-21.04-16.84V43.87z M21.54,60.7V43.87C16.56,51.31,9.22,57.23,0.5,60.7H21.54z"/>
<path fill="#00461C" d="M234.14,31.85h2.79c2.65,0,6.16-0.69,6.16-4.71c0-3.66-3.37-4.17-5.51-4.17h-3.44V31.85z M234.07,43.93h2.61
	c3.37,0,7.18-0.91,7.18-4.93c0-4.5-3.88-4.97-7.58-4.97h-2.21V43.93z M231.57,20.79h6.02c4.14,0,8.02,1.38,8.02,6.24
	c0,3.23-1.49,5.15-4.61,5.77v0.07c3.19,0.58,5.37,2.68,5.37,6.02c0,5.52-4.5,7.22-9.75,7.22h-5.04V20.79z M260.44,36.78h-0.65
	c-3.95,0-8.67,0.4-8.67,4.46c0,2.43,1.74,3.34,3.84,3.34c5.37,0,5.48-4.68,5.48-6.68V36.78z M260.66,43.13h-0.07
	c-1.02,2.22-3.59,3.41-5.88,3.41c-5.26,0-6.09-3.56-6.09-5.22c0-6.21,6.6-6.49,11.39-6.49h0.43v-0.94c0-3.16-1.12-4.75-4.21-4.75
	c-1.92,0-3.74,0.43-5.44,1.52v-2.21c1.42-0.69,3.81-1.27,5.44-1.27c4.57,0,6.49,2.07,6.49,6.89v8.16c0,1.49,0,2.61,0.18,3.88h-2.25
	V43.13z M266.2,31.96c0-1.41,0-2.86-0.15-4.35h2.21v3.3h0.07c0.76-1.67,2.14-3.73,5.98-3.73c4.57,0,6.31,3.04,6.31,7.1v11.83h-2.29
	V34.86c0-3.48-1.23-5.73-4.39-5.73c-4.17,0-5.48,3.66-5.48,6.75v10.23h-2.28V31.96z M284.92,19.22h2.29v15.97l8.27-7.58h2.94
	l-9.03,8.2l10.12,10.3h-3.16l-9.14-9.5v9.5h-2.29V19.22z M62.56,25.39h-0.07l-3.75,10.69h7.57L62.56,25.39z M59.71,20.2h5.86
	L75.74,46.1h-5.75l-2.23-5.94h-10.5l-2.27,5.94h-5.38L59.71,20.2z M116.75,42.69c3.82,0,4.82-3.41,4.82-6.61
	c0-2.93-1.56-5.68-4.82-5.68c-3.23,0-4.79,2.82-4.79,5.68C111.96,39.24,112.96,42.69,116.75,42.69 M116.75,26.54
	c5.68,0,10.02,3.82,10.02,10.13c0,5.49-3.68,9.87-10.02,9.87c-6.31,0-9.99-4.38-9.99-9.87C106.77,30.37,111.11,26.54,116.75,26.54
	 M146.02,18.94h4.98v4.75h-4.98V18.94z M146.02,26.99h4.98V46.1h-4.98V26.99z M199.26,34.67c-0.15-2.41-1.26-4.49-4.04-4.49
	c-2.79,0-4.2,1.93-4.42,4.49H199.26z M202.6,44.69c-1.69,1.02-3.9,1.86-6.57,1.86c-6.31,0-9.98-3.64-9.98-9.91
	c0-5.53,2.93-10.09,8.87-10.09c7.09,0,9.09,4.86,9.09,11.54H190.8c0.22,3.08,2.37,4.82,5.46,4.82c2.41,0,4.49-0.89,6.35-1.93V44.69z
	 M215.16,42.69c3.3,0,4.38-3.49,4.38-6.2c0-2.67-1.26-6.08-4.45-6.08c-3.23,0-4.12,3.52-4.12,6.08
	C210.96,39.13,211.89,42.69,215.16,42.69 M219.86,45.14l-0.14-1.18h-0.07c-1.49,1.86-3.53,2.6-5.87,2.6
	c-5.86,0-8.02-4.82-8.02-10.06c0-5.27,2.15-9.95,8.02-9.95c2.49,0,4.23,0.85,5.72,2.67h0.07V18.94h4.97V46.1H220L219.86,45.14z
	 M184.96,46.1c-1.04,0.3-2.19,0.45-3.67,0.45c-3.9,0-6.05-2.41-6.05-6.2v-9.73h-3.68v-3.64h3.68v-2.62c1.92-0.86,3.62-2.1,4.97-3.61
	v6.23h4.42v3.64h-4.42v8.91c0,1.63,0.45,3.15,2.34,3.15c0.89,0,1.74-0.18,2.26-0.52L184.96,46.1z M136.29,42.09
	c0.69,0.38,1.57,0.59,2.53,0.6c0.04,0-0.03,0,0,0c1.39-0.02,2.58-0.31,3.79-0.75v3.71c-1.18,0.43-2.9,0.9-4.83,0.9
	c-0.06,0,0.06,0,0,0c-1.55,0-3-0.3-4.18-0.83c-2.31-1.02-3.85-2.91-4.61-5.36c-0.36-1.15-0.55-2.4-0.55-3.72c0-0.03,0-0.06,0-0.1
	c0-0.03,0-0.06,0-0.09c0-1.32,0.19-2.57,0.55-3.72c0.76-2.45,2.29-4.35,4.61-5.36c1.17-0.53,2.63-0.82,4.18-0.82c0.06,0-0.06,0,0,0
	c1.93,0,3.69,0.46,4.83,0.88v3.76c-0.98-0.38-2.41-0.76-3.79-0.78c-0.03,0,0.03,0,0,0c-0.97,0-1.84,0.22-2.53,0.6
	c-0.54,0.32-1,0.71-1.39,1.21c-0.83,1.1-1.25,2.61-1.26,4.33c0.01,1.72,0.43,3.24,1.26,4.34C135.29,41.38,135.75,41.77,136.29,42.09
	 M81.86,32.3c0,3.04,8.65,1.11,8.65,8.02c0,4.45-3.97,6.23-8.02,6.23c-1.79,0-4.05-0.61-5.34-1.06v-3.83
	c1.56,0.78,3.19,1.26,4.89,1.26c1.26,0,3.26-0.48,3.26-2.34c0-3.75-8.65-1.19-8.65-8.09c0-4.12,3.6-5.93,7.5-5.93
	c2.17,0,4.25,0.7,5.08,1.03V31c-1.52-0.52-2.63-0.81-4.45-0.81C83.46,30.18,81.86,30.66,81.86,32.3 M96.87,32.3
	c0,3.04,8.65,1.11,8.65,8.02c0,4.45-3.97,6.23-8.02,6.23c-1.79,0-4.05-0.61-5.34-1.06v-3.83c1.56,0.78,3.19,1.26,4.89,1.26
	c1.26,0,3.27-0.48,3.27-2.34c0-3.75-8.65-1.19-8.65-8.09c0-4.12,3.6-5.93,7.5-5.93c2.17,0,4.25,0.7,5.08,1.03V31
	c-1.52-0.52-2.63-0.81-4.45-0.81C98.46,30.18,96.87,30.66,96.87,32.3 M164.91,41.2c-0.78,1.04-1.97,1.71-3.48,1.71
	c-1.79,0-3.16-0.7-3.16-2.34c0-2.93,3.3-3.3,5.54-3.3h2.15C165.95,38.76,165.73,40.13,164.91,41.2 M170.56,41.83
	c-0.04-1.41-0.07-2.86-0.07-4.79V34.6c0-5.64-2.42-8.05-8.24-8.05c-2.06,0-4.44,0.72-6.49,1.67v4.04c1.67-1.26,3.78-2.08,5.9-2.08
	c2.93,0,4.31,1.04,4.31,4.12h-2.75c-2.08,0-4.53,0.19-6.42,1.12c-1.89,0.93-3.27,2.6-3.27,5.46c0,3.64,3.3,5.68,6.68,5.68
	c2.26,0,4.75-1.19,5.91-3.3h0.07c0.04,0.59,0.25,2.46,0.43,2.86h4.17C170.67,44.62,170.59,43.28,170.56,41.83"/>
</svg>
