<?xml version="1.0" encoding="UTF-8"?>
<!-- Generator: Adobe Illustrator 23.0.1, SVG Export Plug-In . SVG Version: 6.00 Build 0)  -->
<svg id="Layer_1" width="798.5" height="281.5" version="1.1" viewBox="0 0 798.5 281.5" xml:space="preserve" xmlns="http://www.w3.org/2000/svg">
<style id="style885" type="text/css">
	.st0{fill:#FAA74A;}
	.st1{fill:#1E3860;}
</style>
<g id="Logos" transform="translate(-36,-163.3)">
	<g id="g937">
		<g id="g935">
			<g id="g889">
				<path id="path887" class="st0" d="m287 165.9c-3-3-8.2-3-11.2 0l-4.6 4.6c-3 3-3 8.2 0 11.2l73 73-73 73c-3 3-3 8.2 0 11.2l4.6 4.6c3 3 8.2 3 11.2 0l88.6-88.6z"/>
			</g>
			<g id="g895">
				<g id="g893">
					<path id="path891" class="st1" d="m448.6 170.6-4.6-4.6c-3-3-8.2-3-11.2 0l-61.8 61.8 15.8 15.8 61.9-61.8c2.9-3.2 2.9-8.2-0.1-11.2z"/>
				</g>
			</g>
			<g id="g899">
				<path id="path897" class="st1" d="m774.5 244.2s-8.3-2.1-13-3.7c-14.6-5-28-12.8-28-27.2 0-16.5 14.2-27.5 35.4-27.5 14.1 0 25.1 4 32.8 11.8l2.6 2.6c3 3 8.2 3 11.2 0l4.6-4.6c3-3 3-8.2 0-11.2l-2.6-2.6c-12.3-11.7-29.4-18.1-48.6-18.1-17.6 0-31.7 4.6-43.4 14.2-11 9.4-16.6 21.4-16.6 35.8 0 35 32.6 43.7 61.6 51.4l1 0.2c25.3 5.9 38.1 16 38.1 29.9 0 17.4-14.6 27.8-39 27.8-15.4 0-28.8-5.1-37.9-14.2l-2.7-2.7c-3-3-8.2-3-11.2 0l-5.6 5.6c-3 3-3 8.2 0 11.2l2.7 2.7c13.1 13 32.2 20 54.7 20 18.7 0 33.8-4.6 46.1-14.1 11.7-9.1 17.8-21.3 17.8-36.5 0-32.3-28.5-43.6-60-50.8z"/>
			</g>
			<g id="g905">
				<g id="g903">
					<path id="path901" class="st1" d="m448.6 338.7-4.6 4.6c-3 3-8.2 3-11.2 0l-61.8-61.9 15.8-15.8 61.9 61.8c2.9 3.2 2.9 8.1-0.1 11.3z"/>
				</g>
			</g>
			<g id="g909">
				<path id="path907" class="st1" d="m569.7 185.9c37.9 0 68.6 30.9 68.6 68.6s-30.7 68.6-68.6 68.6-68.6-30.9-68.6-68.6 30.8-68.6 68.6-68.6m0-22.4c-50.2 0-91 40.8-91 91s40.8 91 91 91 91-40.8 91-91-40.6-91-91-91z"/>
			</g>
			<g id="g913">
				<path id="path911" class="st1" d="m210 163.5h-6.6c-4.3 0-7.8 3.5-7.8 7.8v23.4c-16.6-19.2-41.3-31.4-68.6-31.4-50.2 0-91 40.8-91 91s40.8 91 91 91c27.4 0 52-12.2 68.6-31.4v23.4c0 4.3 3.5 7.8 7.8 7.8h6.6c4.3 0 7.8-3.5 7.8-7.8v-165.8c0.1-4.5-3.5-8-7.8-8zm-14.4 91.4c-0.2 37.8-30.9 68.3-68.6 68.3-37.9 0-68.6-30.9-68.6-68.6 0-37.9 30.9-68.6 68.6-68.6s68.5 30.6 68.6 68.3z"/>
			</g>
			<g id="g933">
				<path id="path915" class="st1" d="m283.3 443.7v-49h27.2v7.4h-18.9v14.2h17v7.4h-17v19.8h-8.3z"/>
				<path id="path917" class="st1" d="m350.5 443.7h-8.5v-49h8.5z"/>
				<path id="path919" class="st1" d="m418.7 430.9v-36.2h8.2v49h-8.2l-25.1-35.8v35.8h-8.2v-49h8.6z"/>
				<path id="path921" class="st1" d="m469.2 432-4.3 11.5h-9l19-49h10.2l19.2 49h-9.1l-4.2-11.5zm10.9-29.4-8.5 22.6h16.8z"/>
				<path id="path923" class="st1" d="m567 430.9v-36.2h8.2v49h-8.2l-25.1-35.8v35.8h-8.2v-49h8.6z"/>
				<path id="path925" class="st1" d="m645.9 406.6c-3.4-3.2-8.2-5.1-13.6-5.1-9.6 0-16.6 7-16.6 17.8 0 10.9 7.2 17.8 16.8 17.8 5.6 0 9.9-1.6 13.9-5v9c-4.3 2.6-9.1 3.7-14.1 3.7-15 0-25.3-10.4-25.3-25.3 0-15 10.6-25.3 25.3-25.3 5 0 9.6 1.1 13.6 3.5z"/>
				<path id="path927" class="st1" d="m686.8 443.7h-8.5v-49h8.5z"/>
				<path id="path929" class="st1" d="m729.2 432-4.3 11.5h-9l19-49h10.2l19.2 49h-9.1l-4.2-11.5zm11.1-29.4-8.5 22.6h16.8z"/>
				<path id="path931" class="st1" d="m793.9 394.6h8.5v41.6h19.8v7.4h-28.3z"/>
			</g>
		</g>
	</g>
</g>

</svg>
