<?xml version="1.0" encoding="UTF-8"?>
<svg width="400" height="114.2" version="1.1" viewBox="0 0 400 114.2" xml:space="preserve" xmlns="http://www.w3.org/2000/svg" xmlns:cc="http://creativecommons.org/ns#" xmlns:dc="http://purl.org/dc/elements/1.1/" xmlns:rdf="http://www.w3.org/1999/02/22-rdf-syntax-ns#"><metadata><rdf:RDF><cc:Work rdf:about=""><dc:format>image/svg+xml</dc:format><dc:type rdf:resource="http://purl.org/dc/dcmitype/StillImage"/><dc:title/></cc:Work></rdf:RDF></metadata><defs><linearGradient id="linearGradient48" x2="1" gradientTransform="matrix(38.561 0 0 -38.561 80.776 725.34)" gradientUnits="userSpaceOnUse"><stop stop-color="#cbb156" offset="0"/><stop stop-color="#cbb156" offset=".2"/><stop stop-color="#fbe9bb" offset=".5"/><stop stop-color="#cbb156" offset=".85"/><stop stop-color="#cbb156" offset="1"/></linearGradient><linearGradient id="linearGradient74" x2="1" gradientTransform="matrix(38.561 0 0 -38.561 38.567 725.34)" gradientUnits="userSpaceOnUse"><stop stop-color="#cbb156" offset="0"/><stop stop-color="#cbb156" offset=".15"/><stop stop-color="#fbe9bb" offset=".5"/><stop stop-color="#cbb156" offset=".8"/><stop stop-color="#cbb156" offset="1"/></linearGradient><linearGradient id="linearGradient100" x2="1" gradientTransform="matrix(0 83.272 83.272 0 59.35 683.7)" gradientUnits="userSpaceOnUse"><stop stop-color="#795d12" offset="0"/><stop stop-color="#795d12" offset=".25"/><stop stop-color="#ecdba5" offset=".5"/><stop stop-color="#795d12" offset=".75"/><stop stop-color="#795d12" offset="1"/></linearGradient><linearGradient id="linearGradient126" x2="1" gradientTransform="matrix(0 83.272 83.272 0 98.549 683.7)" gradientUnits="userSpaceOnUse"><stop stop-color="#795d12" offset="0"/><stop stop-color="#795d12" offset=".25"/><stop stop-color="#ecdba5" offset=".5"/><stop stop-color="#795d12" offset=".75"/><stop stop-color="#795d12" offset="1"/></linearGradient></defs><g transform="matrix(1.3333 0 0 -1.3333 -48 1024.2)"><path d="m42.762 725.34c0-14.239 14.599-25.909 33.178-27.06-13.526 1.505-24.048 13.079-24.048 27.06 0 13.977 10.522 25.555 24.048 27.058-18.579-1.1504-33.178-12.823-33.178-27.058" fill="url(#linearGradient100)"/><path d="m81.959 752.39c13.528-1.505 24.048-13.081 24.048-27.058 0-13.977-10.52-25.555-24.048-27.06 18.577 1.1504 33.179 12.821 33.179 27.06 0 14.235-14.603 25.908-33.179 27.058z" fill="url(#linearGradient126)"/><path d="m306.84 698.29h-4.2194v21.116h4.2194z" fill="#002439"/><path d="m81.959 752.39c18.577-1.1504 24.043-12.823 24.043-27.058 0-14.239-5.4659-25.909-24.043-27.06v-12.014c20.242 1.5382 36.191 18.438 36.191 39.074 0 20.636-15.949 37.534-36.191 39.074z" fill="url(#linearGradient48)"/><path d="m39.75 725.34c0-20.636 15.947-37.536 36.189-39.074v12.014c-18.579 1.1504-24.048 12.821-24.048 27.06 0 14.235 5.4696 25.908 24.048 27.058v12.016c-20.242-1.54-36.189-18.438-36.189-39.074" fill="url(#linearGradient74)"/><g fill="#002439"><path d="m153.25 697.97c-6.0346 0-10.586 4.6552-10.586 10.828 0 6.1584 4.6866 10.939 10.666 10.939 4.0699 0 6.319-1.5881 8.1416-3.3017l0.74971-0.70724-2.8825-3.0856-0.75525 0.71463c-1.7247 1.6324-3.3017 2.3286-5.2757 2.3286-3.6175 0-6.3467-2.9139-6.3467-6.7807 0-3.8815 2.7884-6.8841 6.3467-6.8841 2.3784 0 3.8428 0.94361 5.4345 2.4652l0.72387 0.69247 2.8659-2.8179-0.72756-0.73863c-1.7801-1.8041-4.164-3.6526-8.354-3.6526"/><path d="m170.91 707.33 2.757 6.151 2.7403-6.151zm4.4595 12.215h-3.3479l-9.6189-21.251h4.478l2.2584 5.0375h9.0316l2.2288-5.0375h4.5888z"/><path d="m210.91 698.29h-4.2158v21.116h4.2158z"/><path d="m243.89 702.02c-3.695 0-6.4815 2.9379-6.4815 6.8859 0 3.8649 2.7625 6.7807 6.4206 6.7807 3.6969 0 6.4852-2.9379 6.4852-6.8896 0-3.8631-2.7625-6.777-6.4243-6.777m0 17.716c-6.0457 0-10.782-4.779-10.782-10.939 0-6.1731 4.6109-10.828 10.721-10.828 6.0476 0 10.784 4.7808 10.784 10.937 0 6.175-4.6091 10.83-10.723 10.83"/><path d="m297.59 698.29h-3.2518l-10.766 13.67v-13.67h-4.1622v21.118h3.5528l10.463-13.316v13.316h4.164z"/><path d="m220.16 698.29h-4.2194v18.872c6e-3 1.2354 1.0119 2.2454 2.2473 2.2454h13.513v-4.057h-11.541v-4.7346h9.8848l-1.2132-4.0237h-8.6716z"/><path d="m267.24 709.69h-4.4281v5.6598h4.454c1.4348 0 3.8409-0.35086 3.8409-2.7717 0-1.782-1.481-2.8881-3.8668-2.8881m3.6507-3.1835c2.8105 1.0175 4.4614 3.2703 4.4614 6.1528v0.0517c0 1.7506-0.62784 3.3442-1.7727 4.489-1.4256 1.4219-3.6101 2.2048-6.1454 2.2048h-6.5942c-1.2298 0-2.2362-1.0064-2.2454-2.2473v-18.868h4.2176v7.4048h3.5048l5.5194-7.4048h5.2295z"/><path d="m202.63 698.29h-12.692c-1.2391 0-2.2473 1.0045-2.2473 2.2399v18.878h4.2194v-17.066h10.719z"/><path d="m257.43 741.73c0-3.8668-2.7643-6.7825-6.428-6.7825-3.6969 0-6.4834 2.9398-6.4834 6.8896 0 3.8649 2.7643 6.7807 6.4298 6.7807 3.695 0 6.4815-2.9361 6.4815-6.8324zm-6.428 10.943c-6.0476 0-10.782-4.7827-10.782-10.943 0-6.1805 4.6109-10.841 10.729-10.841 6.0476 0 10.784 4.7864 10.784 10.948 0 6.1768-4.6128 10.836-10.731 10.836"/><path d="m269.95 731.22h-4.2194v18.881c6e-3 1.2391 1.0138 2.2454 2.2473 2.2454h13.523v-4.0533h-11.55v-4.7402h9.8885l-1.2095-4.0292h-8.679z"/><path d="m205.07 731.22h-3.2481l-10.777 13.683v-13.683h-4.1622v21.127h3.5528l10.47-13.323v13.323h4.164z"/><path d="m219.66 730.89c-6.0402 0-10.594 4.6608-10.594 10.843 0 6.1602 4.6885 10.941 10.675 10.941 4.0754 0 6.3227-1.5862 8.1398-3.3017l0.74972-0.70539-2.8825-3.093-0.7571 0.71647c-1.721 1.6342-3.2998 2.3322-5.2757 2.3322-3.6212 0-6.3504-2.9158-6.3504-6.7825 0-3.8871 2.7883-6.8915 6.3504-6.8915 2.3858 0 3.852 0.94176 5.4382 2.4615h2e-3l0.72386 0.69247 2.8678-2.8216-0.72755-0.73494c-1.7856-1.8078-4.177-3.6562-8.3595-3.6562"/><path d="m170.15 740.25 2.7588 6.1547 2.7422-6.1547zm4.4632 12.226h-3.346l-9.6281-21.263h4.4798l2.2602 5.0375h9.0335l2.2307-5.0375h4.5943z"/><path d="m152.22 735.21h-5.3643v4.6626h4.9839c2.6739 0 4.0311-0.75341 4.0311-2.2898 0-2.1439-2.552-2.3729-3.6507-2.3729m-5.3643 13.133h4.766c1.191 0 3.1872-0.2696 3.1872-2.131 0-0.88451-0.43395-2.3655-3.3516-2.3655h-4.6017zm10.369-6.0513c1.2021 1.0692 1.83 2.5187 1.83 4.2804 0 1.457-0.51335 2.7274-1.5364 3.7836-1.3295 1.2982-3.3017 1.9832-5.706 1.9832h-9.148v-21.127h9.5007c4.8325 0 7.9532 2.4467 7.9532 6.2876 0 2.0848-0.99531 3.7264-2.8936 4.7919"/><path d="m318.17 707.33 2.7588 6.151 2.7385-6.151zm4.4595 12.215h-3.346l-9.6152-21.251h4.4743l2.2602 5.0375h9.0261l2.2362-5.0375h4.5814z"/></g></g></svg>
