<?xml version="1.0" encoding="UTF-8" standalone="no"?>
<!-- Created with Inkscape (http://www.inkscape.org/) -->
<svg
   xmlns:svg="http://www.w3.org/2000/svg"
   xmlns="http://www.w3.org/2000/svg"
   version="1.0"
   width="143.38086"
   height="27.270008"
   id="svg2374">
  <defs
     id="defs2376" />
  <g
     transform="translate(0.70981,0.135)"
     id="layer1">
    <g
       transform="matrix(1.25,0,0,1.25,-80.625005,-45)"
       id="logotype">
      <path
         d="M 85.800003,57.300003 L 64.800003,57.300003 L 64.800003,36.300003 L 85.800003,36.300003 L 85.800003,57.300003 z "
         style="opacity:1;fill:#ffffff;fill-rule:nonzero;stroke:none"
         id="path82" />
      <path
         d="M 82.466995,51.063004 L 80.987,48.089996 L 80.983994,48.089005 C 81.722,47.352997 82.613998,46.276001 82.613998,44.459 C 82.613998,43.477997 82.453003,42.707001 82.147995,42.033005 C 83.089996,43.386002 83.645004,45.026993 83.645004,46.798996 C 83.645004,48.360001 83.210007,49.813004 82.466995,51.063004 z M 80.067001,53.651993 L 80.067001,48.559998 L 81.779007,52.061005 C 81.285995,52.669006 80.709,53.203995 80.067001,53.651993 z M 69.085007,52.397995 C 69.106003,52.391006 69.130005,52.382996 69.149002,52.378006 L 69.149994,52.376999 C 69.218994,52.354004 69.268005,52.337006 69.268005,52.337006 L 69.268005,52.328003 C 70.354996,51.925995 71.332993,50.951004 71.557999,49.546997 L 71.557999,54.278 C 70.617996,53.809006 69.781998,53.169998 69.085007,52.397995 z M 68.207993,42.356995 L 68.207993,51.242996 C 67.397003,49.955002 66.921005,48.434006 66.921005,46.798996 C 66.921005,45.164993 67.397003,43.645004 68.207993,42.356995 z M 71.557999,39.322006 L 71.557999,43.720993 C 71.281998,42.276001 69.947006,41.505997 69.065994,41.222 C 69.766006,40.442001 70.610001,39.796005 71.557999,39.322006 z M 75.283005,42.860992 C 74.973007,41.223007 74.106003,39.966995 72.703003,38.848999 C 73.516006,38.585007 74.382004,38.438004 75.283005,38.438004 L 75.283005,42.860992 z M 80.067001,40.873993 C 82.013,42.259995 82.335999,45.781998 80.067001,47.623001 L 80.067001,40.873993 z M 76.649002,38.559006 C 77.483994,38.697006 78.276001,38.957001 79.009003,39.322006 L 79.009003,41.554001 C 78.595993,40.335007 77.809006,39.376007 76.649002,38.559006 z M 79.009003,46.022003 L 79.009003,54.278 C 78.186996,54.688004 77.289993,54.966995 76.341995,55.087997 L 76.341995,49.442001 C 76.977005,49.102997 78.360992,47.998993 79.009003,46.022003 z M 76.341995,39.567001 C 79.151001,41.315994 79.048004,46.320007 76.341995,48.287994 L 76.341995,39.567001 z M 75.283005,45.645004 L 75.283005,55.162003 C 74.350006,55.162003 73.455002,55.001999 72.617996,54.720001 L 72.617996,49.464996 C 73.240005,49.121002 74.815994,47.973007 75.283005,45.645004 z M 72.617996,40.112 C 75.052994,41.697006 75.259995,46.490997 72.617996,48.330994 L 72.617996,40.112 z M 70.345993,46.621994 L 70.341995,46.615005 C 70.341995,46.615005 71.311005,46.031006 71.557999,44.828995 L 71.557999,48.412994 C 71.348999,47.320999 70.526001,46.744003 70.345993,46.621994 z M 69.268005,46.278 L 69.268005,42.289001 C 70.981003,42.979996 71.266006,45.263 69.268005,46.278 z M 69.268005,51.235992 L 69.268005,47.020004 C 71.199997,48.059998 71.026993,50.354996 69.268005,51.235992 z M 64.5,36 L 64.5,57.600006 L 86.100006,57.600006 L 86.100006,36 L 64.5,36"
         style="opacity:1;fill:#ee3a3f;fill-rule:nonzero;stroke:none"
         id="BPPR" />
      <g
         id="POPULAR">
        <path
           d="M 95.912003,47.108994 L 95.910004,42.584 C 96.925995,42.574005 98.100998,42.621002 98.100998,44.862 C 98.100998,47.123001 96.660995,47.108002 95.912003,47.108994 z M 97.639999,41.399994 L 90.886002,41.399994 C 91.156006,41.550995 91.498993,42.130005 91.498993,42.578003 L 91.498993,51.059998 C 91.492996,51.520996 91.084,52.119995 90.882996,52.199997 L 96.529007,52.199997 C 96.347,52.126999 95.910004,51.552002 95.910004,51.044998 L 95.910004,48.264999 L 98.054993,48.264999 C 99.425003,48.266998 102.02,47.761993 102.02,44.779007 C 102.02,42.537994 100.508,41.397995 97.639999,41.399994"
           style="opacity:1;fill:#211e1e;fill-rule:nonzero;stroke:none"
           id="P1" />
        <path
           d="M 109.41701,51.227005 C 108.256,51.227005 107.229,49.880005 107.229,46.815002 C 107.229,43.992996 107.95599,42.395004 109.383,42.395004 C 110.89,42.395004 111.61,43.912994 111.61,46.815002 C 111.61,49.388 110.998,51.227005 109.41701,51.227005 z M 109.354,41.167999 C 105.759,41.167999 102.856,43.276001 102.856,46.785995 C 102.856,48.242996 103.55,52.444 109.437,52.444 C 112.868,52.444 115.93401,50.804993 115.93401,46.785995 C 115.93401,43.578003 113.455,41.167999 109.354,41.167999"
           style="opacity:1;fill:#211e1e;fill-rule:nonzero;stroke:none"
           id="O" />
        <path
           d="M 121.705,47.108994 L 121.704,42.584 C 122.71899,42.574005 123.894,42.621002 123.894,44.862 C 123.894,47.123001 122.455,47.108002 121.705,47.108994 z M 123.43401,41.399994 L 116.679,41.399994 C 116.949,41.550995 117.29201,42.130005 117.29201,42.578003 L 117.29201,51.059998 C 117.28599,51.520996 116.87801,52.119995 116.676,52.199997 L 122.32201,52.199997 C 122.14101,52.126999 121.703,51.552002 121.704,51.044998 L 121.704,48.264999 L 123.84801,48.264999 C 125.21899,48.266998 127.813,47.761993 127.813,44.779007 C 127.813,42.537994 126.301,41.397995 123.43401,41.399994"
           style="opacity:1;fill:#211e1e;fill-rule:nonzero;stroke:none"
           id="P2" />
        <path
           d="M 149.674,50.630997 L 146.202,50.630997 L 146.202,42.466003 C 146.23599,41.990997 146.569,41.542999 146.841,41.399002 L 141.196,41.399002 C 141.468,41.531006 141.81,42.147995 141.81,42.595993 L 141.81,51.078003 C 141.80299,51.539993 141.394,52.119995 141.19299,52.199997 L 150.66,52.199997 L 151.72099,49.751007 C 151.31599,50.223999 150.82201,50.576996 149.674,50.630997"
           style="opacity:1;fill:#211e1e;fill-rule:nonzero;stroke:none"
           id="L" />
        <path
           d="M 154.88901,48.123993 L 156.451,44.039993 L 156.45799,44.044006 L 157.982,48.121994 L 154.88901,48.123993 z M 169.20399,42.617996 L 169.89101,42.617996 C 171.549,42.617996 171.703,43.692001 171.70599,44.563004 C 171.709,45.757004 171.02,46.595993 169.80701,46.600998 L 169.20399,46.600998 L 169.20399,42.617996 z M 169.22,46.848999 L 172.444,52.199997 L 178.069,52.199997 C 177.67,52.054001 176.84801,50.830994 176.515,50.339005 C 176.183,49.847 175.34599,48.703003 175.146,48.429993 C 174.506,47.557999 174.164,47.167999 173.87399,47.001999 C 173.88699,47.001999 173.873,46.994995 173.87399,46.983002 C 175.258,46.634995 176,45.546005 175.99699,44.143005 C 175.994,42.779999 175.15199,41.399002 172.472,41.399002 L 164.107,41.399002 C 164.61099,41.917007 164.733,42.300003 164.735,43.100006 L 164.735,51.281006 C 164.737,51.417999 164.741,51.891006 164.446,51.888 C 164.28301,51.888 164.192,51.830002 164.056,51.595001 L 159.841,41.399002 L 155.153,41.399002 C 155.315,41.658997 155.692,42.018997 155.446,42.709 L 152.09199,50.800003 C 151.726,51.591995 151.44099,51.871994 151.063,52.199997 L 153.843,52.199997 C 153.74899,51.996994 153.632,51.438995 153.90601,50.710999 L 154.383,49.447006 L 158.459,49.447006 L 158.953,50.791 C 159.145,51.266998 159.08501,51.792007 158.80701,52.199997 L 169.756,52.199997 C 169.627,52.102005 169.19099,51.757996 169.19099,51.175995 L 169.19099,46.852005 L 169.22,46.848999"
           style="opacity:1;fill:#211e1e;fill-rule:nonzero;stroke:none"
           id="AR" />
        <path
           d="M 137.692,41.399002 C 137.965,41.587006 138.244,42.041 138.25301,42.494995 L 138.243,48.059998 C 138.23801,49.272995 137.49699,50.570999 135.68401,50.561996 C 134.284,50.556 133.20599,49.692993 133.201,48.026001 L 133.201,42.634995 C 133.201,42.322998 133.31799,41.690994 133.806,41.399002 L 128.183,41.399002 C 128.44701,41.612 128.78301,42.108002 128.804,42.589005 L 128.804,48.147995 C 128.78799,50.529007 130.7,52.488007 134.431,52.470993 C 136.47501,52.460999 137.843,52.041 138.76401,51.063004 C 139.347,50.445999 139.91,49.470001 139.933,48.028 L 139.95399,42.632004 C 139.95399,42.210007 140.15601,41.733994 140.558,41.399002 L 137.692,41.399002"
           style="opacity:1;fill:#211e1e;fill-rule:nonzero;stroke:none"
           id="U" />
      </g>
    </g>
  </g>
</svg>
