<?xml version="1.0" encoding="UTF-8" standalone="no"?>
<!-- Created with Inkscape (http://www.inkscape.org/) -->

<svg
   xmlns:dc="http://purl.org/dc/elements/1.1/"
   xmlns:cc="http://creativecommons.org/ns#"
   xmlns:rdf="http://www.w3.org/1999/02/22-rdf-syntax-ns#"
   xmlns:svg="http://www.w3.org/2000/svg"
   xmlns="http://www.w3.org/2000/svg"
   xmlns:sodipodi="http://sodipodi.sourceforge.net/DTD/sodipodi-0.dtd"
   xmlns:inkscape="http://www.inkscape.org/namespaces/inkscape"
   width="325.32501"
   height="40.042961"
   id="svg3141"
   version="1.1"
   inkscape:version="0.48.0 r9654"
   sodipodi:docname="boh.svg">
  <defs
     id="defs3143">
    <clipPath
       clipPathUnits="userSpaceOnUse"
       id="clipPath3025">
      <path
         inkscape:connector-curvature="0"
         d="m 278.631,728.657 261.369,0 0,40.07 -261.369,0 0,-40.07 z"
         id="path3027" />
    </clipPath>
    <clipPath
       clipPathUnits="userSpaceOnUse"
       id="clipPath3061">
      <path
         inkscape:connector-curvature="0"
         d="m 354.1,731.6 185.9,0 0,22.882 -185.9,0 0,-22.882 z"
         id="path3063" />
    </clipPath>
    <clipPath
       clipPathUnits="userSpaceOnUse"
       id="clipPath3077">
      <path
         inkscape:connector-curvature="0"
         d="m 278.631,728.657 261.369,0 0,40.07 -261.369,0 0,-40.07 z"
         id="path3079" />
    </clipPath>
  </defs>
  <sodipodi:namedview
     id="base"
     pagecolor="#ffffff"
     bordercolor="#666666"
     borderopacity="1.0"
     inkscape:pageopacity="0.0"
     inkscape:pageshadow="2"
     inkscape:zoom="0.98994949"
     inkscape:cx="-21.286084"
     inkscape:cy="45.798348"
     inkscape:document-units="px"
     inkscape:current-layer="layer1"
     showgrid="false"
     showborder="false"
     inkscape:showpageshadow="false"
     inkscape:window-width="1366"
     inkscape:window-height="706"
     inkscape:window-x="-8"
     inkscape:window-y="-8"
     inkscape:window-maximized="1"
     fit-margin-top="0"
     fit-margin-left="0"
     fit-margin-right="0"
     fit-margin-bottom="0" />
  <metadata
     id="metadata3146">
    <rdf:RDF>
      <cc:Work
         rdf:about="">
        <dc:format>image/svg+xml</dc:format>
        <dc:type
           rdf:resource="http://purl.org/dc/dcmitype/StillImage" />
        <dc:title></dc:title>
      </cc:Work>
    </rdf:RDF>
  </metadata>
  <g
     inkscape:label="Layer 1"
     inkscape:groupmode="layer"
     id="layer1"
     transform="translate(-121.3965,-61.453764)">
    <g
       transform="matrix(1.7499972,0,0,-1.7500024,-498.27803,1381.7982)"
       id="g3021">
      <g
         id="g3023"
         clip-path="url(#clipPath3025)">
        <g
           id="g3029"
           transform="translate(380.6956,732.2775)">
          <path
             inkscape:connector-curvature="0"
             d="m 0,0 -5.529,0 c 0,0 0.885,0.427 0.885,1.947 l 0,8.138 c 0,1.584 -1.078,2.296 -2.239,2.66 -0.979,0.3 -2.213,-0.027 -2.935,-0.436 -1.229,-0.696 -2.495,-1.322 -3.763,-1.955 l 0,7.434 c 0,1.31 -0.155,1.494 -0.424,1.876 l 5.064,2.54 0,-8.708 c 1.783,0.736 3.931,2.543 6.282,1.641 C -1.627,14.741 0,13.397 0,11.665 L 0,0 z"
             style="fill:#1a64b7;fill-opacity:1;fill-rule:nonzero;stroke:none"
             id="path3031" />
        </g>
        <g
           id="g3033"
           transform="translate(371.7598,734.9911)">
          <path
             inkscape:connector-curvature="0"
             d="m 0,0 c 0,-1.175 -0.562,-2.715 -2.044,-2.715 l -2.601,10e-4 -0.005,9.99 c 0,0 1.863,0.001 2.44,0 1.226,0 2.215,-0.668 2.21,-2.319 L 0,0 z"
             style="fill:#1a64b7;fill-opacity:1;fill-rule:nonzero;stroke:none"
             id="path3035" />
        </g>
        <g
           id="g3037"
           transform="translate(362.8143,732.2775)">
          <path
             inkscape:connector-curvature="0"
             d="M 0,0 -8.714,0 C -7.469,1.585 -1.358,10.639 0,16.929 L 0,0 z"
             style="fill:#1a64b7;fill-opacity:1;fill-rule:nonzero;stroke:none"
             id="path3039" />
        </g>
        <g
           id="g3041"
           transform="translate(400.7942,747.3702)">
          <path
             inkscape:connector-curvature="0"
             d="M 0,0 C 0.893,0 1.848,-0.37 2.261,-1.028 2.835,-2.296 2.853,-4.013 2.206,-5.229 1.611,-6.028 0.599,-6.43 -0.339,-6.685 0.818,-6.949 2.326,-6.748 2.884,-8.018 3.558,-9.86 3.451,-12.094 2.551,-13.759 1.725,-15.02 0.293,-15.097 -1.109,-15.097 l -7.888,0 0,13.156 c 0,0.709 -0.493,1.509 -0.863,1.941 L 0,0 z m -1.156,-8.812 c -0.246,0.678 -0.708,0.693 -1.571,0.771 -1.155,0.03 -2.049,-0.191 -2.049,-1.094 l 0,-3.436 c 0,-1.355 2.172,-1.048 3.015,-0.75 0.575,0.257 0.789,1.123 0.837,1.459 0.055,1.269 0.154,2.064 -0.232,3.05 m -3.62,6.516 0,-3.497 c 0,-0.923 1.803,-0.539 2.419,-0.218 1.186,0.722 0.986,2.344 0.832,3.454 -0.077,0.493 -0.454,0.843 -0.955,0.955 -0.709,0.046 -2.203,0.385 -2.296,-0.694"
             style="fill:#1a64b7;fill-opacity:1;fill-rule:evenodd;stroke:none"
             id="path3043" />
        </g>
        <g
           id="g3045"
           transform="translate(481.5942,732.2896)">
          <path
             inkscape:connector-curvature="0"
             d="m 0,0 0,6.818 -4.339,0 0,-5.341 c 0,-0.862 0.6,-1.477 0.6,-1.477 l -4.848,0 0,13.605 c 0,0.677 -0.77,1.477 -0.77,1.477 l 5.018,0 0,-6.126 L 0,8.941 0,13.605 c 0,0.692 -0.615,1.477 -0.615,1.477 l 4.863,0 0,-13.605 C 4.248,0.615 4.864,0 4.864,0 L 0,0 z"
             style="fill:#1a64b7;fill-opacity:1;fill-rule:nonzero;stroke:none"
             id="path3047" />
        </g>
        <g
           id="g3049"
           transform="translate(407.6939,741.7016)">
          <path
             inkscape:connector-curvature="0"
             d="m 0,0 c 0.843,0.567 1.973,1.597 3.528,1.597 l 4.578,0 0,-9.427 c 0,-0.867 0.717,-1.581 0.717,-1.581 l -4.397,0 0,1.267 c -1.37,-0.634 -2.958,-1.932 -4.603,-1.248 -2.238,1.3 -1.866,4.241 -1.81,6.573 C -1.928,-1.563 -0.951,-0.722 0,0 M 2.461,-0.393 C 1.766,-0.566 1.45,-1.488 1.45,-1.922 1.359,-3.253 1.3,-3.85 1.405,-5.332 c 0.269,-2.198 1.286,-2.094 1.66,-2.019 0.463,0.06 1.361,0.539 1.361,1.661 l 0,4.711 c 0,0.539 -0.344,0.628 -0.344,0.628 -0.574,0.089 -1.068,0.121 -1.621,-0.042"
             style="fill:#1a64b7;fill-opacity:1;fill-rule:evenodd;stroke:none"
             id="path3051" />
        </g>
        <g
           id="g3053"
           transform="translate(460.1625,742.654)">
          <path
             inkscape:connector-curvature="0"
             d="M 0,0 0,1.54 C -0.06,3.201 3.513,4.199 5.609,4.981 6.325,5.186 7.368,5.362 7.864,4.7 8.374,4.145 8.526,3.395 8.696,2.67 L 5.706,1.404 C 5.544,2.051 5.456,2.878 4.776,3.171 4.293,3.26 3.605,2.872 3.605,1.869 l 0,-1.869 2.946,0 -1.016,-1.72 -1.93,0 0,-7.06 c 0,-0.883 0.658,-1.597 0.658,-1.597 l -4.263,0 0,8.657 -1.211,0 L 0,0 z"
             style="fill:#1a64b7;fill-opacity:1;fill-rule:nonzero;stroke:none"
             id="path3055" />
        </g>
      </g>
    </g>
    <g
       transform="matrix(1.7499972,0,0,-1.7500024,-498.27751,1381.799)"
       id="g3057">
      <g
         id="g3059"
         clip-path="url(#clipPath3061)">
        <g
           id="g3065"
           transform="translate(430.6824,746.1234)">
          <path
             inkscape:connector-curvature="0"
             d="m 0,0 4.427,1.87 0,-6.866 c 0,0 1.601,1.047 2.603,1.675 2.558,1.586 4.128,-0.763 3.599,-2.522 C 10.37,-6.809 9.492,-7.292 8.721,-7.848 8.456,-8.097 8.87,-8.631 8.87,-8.631 l 2.558,-4.397 c 0.373,-0.554 0.867,-0.808 0.867,-0.808 l -4.727,0 -2.572,5.086 c 0,0 0.553,0.343 1.181,0.747 C 7.629,-7 7.03,-5.849 6.647,-5.7 5.871,-5.454 5.291,-6.035 4.773,-6.497 4.337,-6.985 4.427,-7.509 4.427,-7.868 l 0,-4.532 c 0,-0.763 0.659,-1.436 0.659,-1.436 l -4.293,0 0,12.34 C 0.793,-0.404 0,0 0,0"
             style="fill:#1a64b7;fill-opacity:1;fill-rule:nonzero;stroke:none"
             id="path3067" />
        </g>
        <g
           id="g3069"
           transform="translate(448.5854,741.3394)">
          <path
             inkscape:connector-curvature="0"
             d="M 0,0 C 0.88,0.628 2.073,1.272 3.142,1.759 4.036,2.293 8.12,2.623 9.032,1.019 9.753,-0.486 9.707,-3.573 9.224,-5.754 9.065,-6.281 8.67,-7.13 7.822,-7.727 6.769,-8.497 4.225,-9.234 3.094,-9.611 2.466,-9.8 2.089,-9.737 1.618,-9.69 1.021,-9.611 0.33,-9.407 -0.451,-8.611 -1.855,-6.864 -1.629,-4.077 -1.358,-1.793 -1.215,-1.203 -0.989,-0.612 0,0 M 2.953,-0.031 C 1.994,-0.685 2.152,-2.135 2.089,-3.345 2.167,-4.209 1.889,-6.402 2.984,-7.413 3.742,-7.91 5.01,-7.555 5.403,-7.02 6.047,-6.204 5.955,-4.441 5.968,-3.062 5.955,-1.99 6.039,-0.613 5.191,0.097 4.516,0.43 3.533,0.336 2.953,-0.031"
             style="fill:#1a64b7;fill-opacity:1;fill-rule:evenodd;stroke:none"
             id="path3071" />
        </g>
      </g>
    </g>
    <g
       transform="matrix(1.7499972,0,0,-1.7500024,-498.27698,1381.7982)"
       id="g3073">
      <g
         id="g3075"
         clip-path="url(#clipPath3077)">
        <g
           id="g3081"
           transform="translate(503.6592,743.3549)">
          <path
             inkscape:connector-curvature="0"
             d="m 0,0 c -0.386,-0.416 -0.299,-1.062 -0.118,-1.782 0,0 0.746,-2.87 1.179,-4.713 L 3.006,0 5.624,0 8.207,-7.67 c 0,0 0.379,0.61 0.559,1.043 0.987,2.409 0.812,3.958 0.304,4.693 -0.237,0.301 -0.617,0.556 -0.975,0.714 l 2.424,2.181 c 0.68,-0.209 1.346,-0.742 1.639,-1.402 0.152,-0.531 0.096,-1.317 -0.148,-1.853 l -3.185,-8.775 -3.32,0 -1.99,6.103 -1.78,-6.103 -3.111,0 L -4.397,0 0,0 z"
             style="fill:#1a64b7;fill-opacity:1;fill-rule:nonzero;stroke:none"
             id="path3083" />
        </g>
        <g
           id="g3085"
           transform="translate(529.1983,748.333)">
          <path
             inkscape:connector-curvature="0"
             d="M 0,0 C 1.071,0.55 2.731,1.477 3.614,0.595 4.093,0.042 4.191,-1.006 3.765,-1.816 3.002,-2.922 1.597,-3.436 0.245,-3.448 -0.161,-3.397 -0.505,-3.16 -0.679,-2.756 -1.042,-1.819 -0.963,-0.542 0,0"
             style="fill:#1a64b7;fill-opacity:1;fill-rule:nonzero;stroke:none"
             id="path3087" />
        </g>
        <g
           id="g3089"
           transform="translate(533.0164,744.351)">
          <path
             inkscape:connector-curvature="0"
             d="m 0,0 0.005,-10.471 c 0,-0.882 0.629,-1.596 0.629,-1.596 l -4.458,0 0,8.657 c 0,1.166 -0.679,1.594 -0.679,1.594 L 0,0 z"
             style="fill:#1a64b7;fill-opacity:1;fill-rule:nonzero;stroke:none"
             id="path3091" />
        </g>
        <g
           id="g3093"
           transform="translate(421.9937,744.0351)">
          <path
             inkscape:connector-curvature="0"
             d="M 0,0 0,-2.139 C 1.695,-1.233 3.907,0.228 5.893,-1.153 7,-1.885 6.94,-3.276 6.94,-4.502 l 0,-5.939 c 0,-0.838 0.598,-1.316 0.598,-1.316 l -4.337,0 0,7.345 c 0,0.688 -0.165,1.196 -0.638,1.434 -0.692,0.233 -1.459,0.06 -1.989,-0.39 C 0.248,-3.605 0,-3.979 0,-4.667 l 0,-5.774 c 0,-0.838 0.598,-1.316 0.598,-1.316 l -4.218,0 0.015,8.63 c 0.015,0.854 -0.749,1.358 -0.749,1.358 L 0,0 z"
             style="fill:#1a64b7;fill-opacity:1;fill-rule:nonzero;stroke:none"
             id="path3095" />
        </g>
        <g
           id="g3097"
           transform="translate(518.3817,741.6886)">
          <path
             inkscape:connector-curvature="0"
             d="m 0,0 c 0.842,0.567 1.972,1.598 3.528,1.598 l 4.577,0 0,-9.427 c 0,-0.868 0.718,-1.581 0.718,-1.581 l -4.397,0 0,1.267 c -1.37,-0.634 -2.958,-1.932 -4.604,-1.248 -2.238,1.3 -1.865,4.24 -1.809,6.573 C -1.928,-1.562 -0.952,-0.722 0,0 M 2.462,-0.392 C 1.766,-0.566 1.449,-1.487 1.449,-1.921 1.359,-3.252 1.3,-3.85 1.404,-5.331 c 0.27,-2.198 1.287,-2.094 1.661,-2.02 0.463,0.061 1.361,0.54 1.361,1.661 l 0,4.712 c 0,0.538 -0.344,0.628 -0.344,0.628 -0.574,0.089 -1.068,0.12 -1.62,-0.042"
             style="fill:#1a64b7;fill-opacity:1;fill-rule:evenodd;stroke:none"
             id="path3099" />
        </g>
        <g
           id="g3101"
           transform="translate(489.8361,741.6942)">
          <path
             inkscape:connector-curvature="0"
             d="m 0,0 c 0.843,0.567 1.973,1.598 3.528,1.598 l 4.577,0 0,-9.427 c 0,-0.868 0.718,-1.582 0.718,-1.582 l -4.397,0 0,1.268 c -1.37,-0.634 -2.958,-1.932 -4.604,-1.248 -2.237,1.299 -1.865,4.24 -1.809,6.573 C -1.928,-1.563 -0.951,-0.722 0,0 M 2.462,-0.392 C 1.766,-0.566 1.449,-1.487 1.449,-1.921 1.359,-3.252 1.3,-3.85 1.404,-5.331 c 0.27,-2.199 1.287,-2.095 1.661,-2.02 0.463,0.061 1.361,0.539 1.361,1.661 l 0,4.712 c 0,0.538 -0.344,0.628 -0.344,0.628 -0.574,0.089 -1.068,0.12 -1.62,-0.042"
             style="fill:#1a64b7;fill-opacity:1;fill-rule:evenodd;stroke:none"
             id="path3103" />
        </g>
        <g
           id="g3105"
           transform="translate(535.5485,748.326)">
          <path
             inkscape:connector-curvature="0"
             d="M 0,0 C 1.071,0.55 2.731,1.477 3.614,0.595 4.093,0.041 4.191,-1.006 3.765,-1.816 3.002,-2.922 1.597,-3.436 0.245,-3.448 -0.161,-3.397 -0.505,-3.16 -0.679,-2.756 -1.042,-1.819 -0.963,-0.542 0,0"
             style="fill:#1a64b7;fill-opacity:1;fill-rule:nonzero;stroke:none"
             id="path3107" />
        </g>
        <g
           id="g3109"
           transform="translate(539.3661,744.3441)">
          <path
             inkscape:connector-curvature="0"
             d="m 0,0 0.006,-10.47 c 0,-0.883 0.628,-1.598 0.628,-1.598 l -4.458,0 0,8.657 c 0,1.167 -0.679,1.596 -0.679,1.596 L 0,0 z"
             style="fill:#1a64b7;fill-opacity:1;fill-rule:nonzero;stroke:none"
             id="path3111" />
        </g>
      </g>
    </g>
  </g>
</svg>
