<?xml version="1.0" encoding="UTF-8" standalone="no"?>
<!-- Created with Inkscape (http://www.inkscape.org/) -->

<svg
   xmlns:dc="http://purl.org/dc/elements/1.1/"
   xmlns:cc="http://creativecommons.org/ns#"
   xmlns:rdf="http://www.w3.org/1999/02/22-rdf-syntax-ns#"
   xmlns:svg="http://www.w3.org/2000/svg"
   xmlns="http://www.w3.org/2000/svg"
   xmlns:sodipodi="http://sodipodi.sourceforge.net/DTD/sodipodi-0.dtd"
   xmlns:inkscape="http://www.inkscape.org/namespaces/inkscape"
   width="350.00119"
   height="39.68"
   viewBox="0 0 92.604483 10.498666"
   version="1.1"
   id="svg2028"
   inkscape:version="0.92.0 r15299"
   sodipodi:docname="bank united.svg">
  <defs
     id="defs2022">
    <clipPath
       id="clipPath1609"
       clipPathUnits="userSpaceOnUse">
      <path
         inkscape:connector-curvature="0"
         id="path1607"
         d="M 27,736.74 H 288.001 V 765 H 27 Z" />
    </clipPath>
  </defs>
  <sodipodi:namedview
     id="base"
     pagecolor="#ffffff"
     bordercolor="#666666"
     borderopacity="1.0"
     inkscape:pageopacity="0.0"
     inkscape:pageshadow="2"
     inkscape:zoom="2.3045898"
     inkscape:cx="174.0006"
     inkscape:cy="18.84"
     inkscape:document-units="mm"
     inkscape:current-layer="layer1"
     showgrid="false"
     fit-margin-top="0"
     fit-margin-left="0"
     fit-margin-right="0"
     fit-margin-bottom="0"
     units="px"
     inkscape:window-width="1280"
     inkscape:window-height="744"
     inkscape:window-x="-4"
     inkscape:window-y="-4"
     inkscape:window-maximized="1" />
  <metadata
     id="metadata2025">
    <rdf:RDF>
      <cc:Work
         rdf:about="">
        <dc:format>image/svg+xml</dc:format>
        <dc:type
           rdf:resource="http://purl.org/dc/dcmitype/StillImage" />
        <dc:title></dc:title>
      </cc:Work>
    </rdf:RDF>
  </metadata>
  <g
     inkscape:label="Layer 1"
     inkscape:groupmode="layer"
     id="layer1"
     transform="translate(-7.6349613,-195.48014)">
    <g
       id="g1603"
       transform="matrix(0.35277777,0,0,-0.35277777,-1.6254554,465.61972)">
      <g
         id="g1605"
         clip-path="url(#clipPath1609)">
        <g
           id="g1611"
           transform="translate(71.8852,737.0732)">
          <path
             d="m 0,0 h 25.557 c 0.001,0.046 0.003,0.09 0.003,0.135 0,15.349 -10.576,27.792 -23.624,27.792 -4.213,0 -8.166,-1.303 -11.591,-3.578 C -4.322,24.34 0,13.441 0,0"
             style="fill:#0994dc;fill-opacity:1;fill-rule:nonzero;stroke:none"
             id="path1613"
             inkscape:connector-curvature="0" />
        </g>
        <g
           id="g1615"
           transform="translate(52.5607,737.0732)">
          <path
             d="m 0,0 c 0,13.439 4.322,24.337 9.655,24.349 -3.426,2.275 -7.378,3.578 -11.591,3.578 -13.047,0 -23.625,-12.443 -23.625,-27.792 0,-0.045 0.003,-0.089 0.004,-0.135 z"
             style="fill:#231f20;fill-opacity:1;fill-rule:nonzero;stroke:none"
             id="path1617"
             inkscape:connector-curvature="0" />
        </g>
        <g
           id="g1619"
           transform="translate(139.7236,745.1384)">
          <path
             d="m 0,0 c 0,-2.572 -1.796,-4.169 -4.687,-4.169 -1.212,0 -2.5,0.76 -2.5,2.167 0,1.434 1.284,2.178 2.556,2.279 L 0,0.627 Z m 5.84,-3.872 c -0.575,0 -0.831,0.142 -0.831,0.98 v 7.155 c 0,1.249 -0.067,2.699 -0.573,3.98 -1.028,2.672 -3.606,4.085 -7.454,4.085 -4.923,0 -8.007,-2.428 -8.25,-6.493 l -0.016,-0.259 h 4.972 l 0.014,0.228 C -6.169,7.883 -4.443,8.32 -3.018,8.32 -0.514,8.32 0,7.202 0,5.523 V 4.563 L -5.445,4.171 c -4.101,-0.289 -6.751,-2.756 -6.751,-6.284 0,-3.027 2.258,-6.286 7.212,-6.286 2.668,0 4.71,1.197 5.733,2.515 0.364,-1.235 1.476,-2.329 3.387,-2.329 1.138,0 1.592,0.194 2.343,0.517 l 0.198,0.084 v 3.883 L 6.375,-3.805 C 6.372,-3.806 6.105,-3.872 5.84,-3.872"
             style="fill:#231f20;fill-opacity:1;fill-rule:nonzero;stroke:none"
             id="path1621"
             inkscape:connector-curvature="0" />
        </g>
        <g
           id="g1623"
           transform="translate(157.8361,757.4662)">
          <path
             d="m 0,0 c -2.331,0 -4.342,-0.932 -5.519,-2.525 l -0.274,2.043 h -4.348 v -19.762 h 5.12 v 8.347 c -0.002,1.599 -0.004,3.411 0.609,4.808 0.47,1.05 1.393,2.303 3.115,2.303 2.092,0 2.945,-0.982 2.945,-3.391 v -12.067 h 5.12 V -7.138 C 6.768,-2.802 4.111,0 0,0"
             style="fill:#231f20;fill-opacity:1;fill-rule:nonzero;stroke:none"
             id="path1625"
             inkscape:connector-curvature="0" />
        </g>
        <g
           id="g1627"
           transform="translate(201.229,747.7041)">
          <path
             d="m 0,0 c 0,-3.907 -1.875,-6.059 -5.28,-6.059 -3.405,0 -5.281,2.152 -5.281,6.059 v 15.748 h -5.268 V -0.074 c 0,-6.768 3.944,-10.809 10.549,-10.809 6.605,0 10.548,4.041 10.548,10.809 V 15.748 H 0 Z"
             style="fill:#231f20;fill-opacity:1;fill-rule:nonzero;stroke:none"
             id="path1629"
             inkscape:connector-curvature="0" />
        </g>
        <g
           id="g1631"
           transform="translate(218.849,757.5518)">
          <path
             d="m 0,0 c -2.331,0 -4.343,-0.932 -5.518,-2.525 l -0.275,2.043 h -4.347 v -19.762 h 5.12 v 8.347 c -0.002,1.599 -0.004,3.411 0.608,4.808 0.47,1.05 1.392,2.303 3.115,2.303 2.092,0 2.945,-0.982 2.945,-3.39 V -20.244 H 6.767 V -7.138 C 6.767,-2.802 4.112,0 0,0"
             style="fill:#231f20;fill-opacity:1;fill-rule:nonzero;stroke:none"
             id="path1633"
             inkscape:connector-curvature="0" />
        </g>
        <path
           d="m 228.394,758.65 h 5.454 v 4.797 h -5.454 z"
           style="fill:#231f20;fill-opacity:1;fill-rule:nonzero;stroke:none"
           id="path1635"
           inkscape:connector-curvature="0" />
        <path
           d="m 228.543,737.308 h 5.193 v 19.762 h -5.193 z"
           style="fill:#231f20;fill-opacity:1;fill-rule:nonzero;stroke:none"
           id="path1637"
           inkscape:connector-curvature="0" />
        <g
           id="g1639"
           transform="translate(245.9336,741.7598)">
          <path
             d="m 0,0 c -1.355,0 -1.907,0.542 -1.907,1.87 v 9.136 h 4.855 v 4.304 h -4.855 v 6.377 h -5.12 V 15.31 h -3.522 v -4.304 h 3.522 V 1.462 c 0,-3.982 2.152,-6.175 6.063,-6.175 1.331,0 2.648,0.173 4.028,0.528 l 0.181,0.047 V 0.215 L 2.974,0.183 C 1.667,0.03 0.895,0 0,0"
             style="fill:#231f20;fill-opacity:1;fill-rule:nonzero;stroke:none"
             id="path1641"
             inkscape:connector-curvature="0" />
        </g>
        <g
           id="g1643"
           transform="translate(255.227,749.3593)">
          <path
             d="M 0,0 C 0.065,1.081 0.344,1.851 0.942,2.614 1.601,3.494 2.706,3.999 3.971,3.999 5.132,3.999 6.084,3.641 6.72,2.967 7.387,2.234 7.76,1.237 7.833,0 Z M 4.009,8.192 C 1.477,8.192 -0.711,7.321 -2.319,5.673 -4.156,3.799 -5.168,1 -5.168,-2.208 c 0,-3.2 1.08,-6.001 3.042,-7.886 1.725,-1.641 3.768,-2.44 6.245,-2.44 2.78,0 5.15,0.992 6.675,2.793 0.747,0.897 1.566,2.453 1.686,3.692 l 0.026,0.267 H 7.602 L 7.555,-5.964 C 7.397,-6.564 7.115,-7.061 6.692,-7.485 6.076,-8.101 5.334,-8.34 4.046,-8.34 c -0.996,0 -1.901,0.376 -2.686,1.117 -0.822,0.79 -1.313,2.034 -1.335,3.364 h 12.901 v 0.243 c 0,0.404 0.037,1.286 0.037,1.29 C 13.05,0.509 12.524,2.622 11.255,4.525 9.69,6.89 7.117,8.192 4.009,8.192"
             style="fill:#231f20;fill-opacity:1;fill-rule:nonzero;stroke:none"
             id="path1645"
             inkscape:connector-curvature="0" />
        </g>
        <g
           id="g1647"
           transform="translate(278.9729,741.2408)">
          <path
             d="m 0,0 c -1.199,0 -2.182,0.48 -2.921,1.425 -0.778,1.018 -1.173,2.552 -1.173,4.56 0,2.011 0.384,3.491 1.172,4.52 0.74,0.947 1.723,1.427 2.922,1.427 3.414,0 4.131,-3.234 4.131,-5.947 C 4.131,3.255 3.414,0 0,0 m 3.908,22.208 v -7.359 c -1.058,0.924 -2.797,1.462 -4.798,1.462 -1.909,0 -3.545,-0.542 -4.861,-1.613 -2.347,-1.93 -3.536,-4.886 -3.536,-8.787 0,-3.798 1.176,-6.693 3.499,-8.604 1.358,-1.103 3.039,-1.685 4.862,-1.685 2.187,0 4.103,0.804 5.253,2.177 l 0.244,-1.732 h 4.457 v 26.141 z"
             style="fill:#231f20;fill-opacity:1;fill-rule:nonzero;stroke:none"
             id="path1649"
             inkscape:connector-curvature="0" />
        </g>
        <g
           id="g1651"
           transform="translate(111.499,758.6453)">
          <path
             d="m 0,0 h 5.294 c 2.336,0 3.521,-0.942 3.521,-2.797 0,-1.835 -1.116,-2.726 -3.412,-2.726 H 0 Z m 0,-10.348 h 5.438 c 2.601,0 3.919,-1.1 3.919,-3.268 0,-2.655 -2.841,-2.942 -4.063,-2.942 H 0 Z m 11.393,2.403 c 2.102,1.194 2.861,3.624 2.861,5.426 0,2.321 -1.178,4.531 -3.075,5.773 C 9.648,4.242 7.722,4.702 5.116,4.702 h -10.44 v -26.163 h 10.44 c 2.788,0 5.042,0.304 6.982,1.786 1.766,1.35 2.699,3.404 2.699,5.941 0,2.451 -1.293,4.627 -3.404,5.789"
             style="fill:#231f20;fill-opacity:1;fill-rule:nonzero;stroke:none"
             id="path1653"
             inkscape:connector-curvature="0" />
        </g>
        <g
           id="g1655"
           transform="translate(178.4834,749.0585)">
          <path
             d="m 0,0 5.319,7.926 h -5.386 l -5.944,-8.48 v 14.859 h -5.12 v -26.141 h 5.12 v 4.447 l 2.843,3.716 4.124,-8.052 0.072,-0.111 H 6.37 Z"
             style="fill:#231f20;fill-opacity:1;fill-rule:nonzero;stroke:none"
             id="path1657"
             inkscape:connector-curvature="0" />
        </g>
      </g>
    </g>
  </g>
</svg>
