<?xml version="1.0" encoding="utf-8"?>
<!-- Generator: Adobe Illustrator 26.1.0, SVG Export Plug-In . SVG Version: 6.00 Build 0)  -->
<svg version="1.1" id="Layer_1" xmlns="http://www.w3.org/2000/svg" xmlns:xlink="http://www.w3.org/1999/xlink" x="0px" y="0px"
	 viewBox="0 0 297.8 96.2" style="enable-background:new 0 0 297.8 96.2;" xml:space="preserve">
<style type="text/css">
	.st0{fill:#002F6C;}
	.st1{fill:#3E87CB;}
	.st2{fill:#9ADBE8;}
	.st3{font-family:'TradeGothicNextLTPro-Rg';}
	.st4{font-size:10.18px;}
	.st5{fill:none;}
</style>
<g id="New_Co_logo">
	<path class="st0" d="M57.3,39.2c14.8-10.9,56.2-24.7,104.7-5l20.6-4.5C124.2,8,74.7,23.9,57.3,39.2z"/>
	<path class="st1" d="M57.3,39.2c21.1-20,85-39,158-4.5l21.1-4.6C153.4-6.5,81.1,14.7,57.3,39.2z"/>
	<path class="st2" d="M57.3,39.2c24.2-26,95-47.7,178.5-17.8l20.4-4.4C163-15.1,84.2,9,57.3,39.2z"/>
	<path class="st0" d="M141,82.2v1.5h-16.9v-1.5c3.5-0.4,4.9-1.4,4.9-5.1V60.6c0.1-7.6-1.2-9.5-6-9.5c-3.4,0-6.5,1.8-8.1,4.8v21.2
		c-0.1,3.7,1.4,4.8,4.9,5.1v1.5h-17.1v-1.5c3.6-0.4,5-1.4,5.1-5.1V60.3c0-4.2-0.3-9.2-5.4-9.2c-3.5,0.1-6.9,1.8-9,4.6v21.4
		c0.1,3.7,1.5,4.8,5.1,5.1v1.5H81.3v-1.6c3.9-0.4,5-1.7,4.9-5.1V57.5c0-4.4-0.5-5.1-4.9-5.1v-1.8l12-4.3v6.5c4-4.4,8.6-6.4,12.3-6.4
		c3.9,0.1,7.3,2.9,8.1,6.7c2.9-3.4,7.8-6.7,12.2-6.7c9.6,0,10.2,8.4,10.2,15.5v15.2C136.1,80.8,137.4,81.9,141,82.2z M171.1,70.1
		c-2.4,4.2-6.7,8.6-12,8.6c-8.6,0-12.4-9.7-12.6-17.3h24.6c-0.2-8.4-5.1-15-14.1-15c-9.9,0-16.2,8.3-16.2,19.8
		c0,9.7,6,18.3,15.2,18.2c8.3,0.1,14.3-6.7,16.8-13.9L171.1,70.1z M155.3,49.6c4.9,0,7.1,4.3,7.3,8.8h-15.8
		C147.6,53.6,150,49.6,155.3,49.6z M63.1,46.4c-6.4-0.2-12.3,3.4-15,9.2l-0.5-16.3h-1.9c-1.2,3.1-2.6,3.3-5.4,2.4
		c-1.3-0.4-2.9-1.1-4.8-1.6c-2.3-0.6-4.6-0.9-7-0.9c-16,0-27.2,11.9-27.2,28.1C1.1,85,13,95.1,28.5,95.2c7.7-0.1,15-3.7,19.7-9.8
		l-1.5-1.9c-5.5,5.5-9.7,7.6-17.5,7.7c-12.8,0-18.5-12-18.5-23.3c0-14.5,5.7-25.7,17.9-25.1c13.4,0.7,17,10.6,17.2,23.1
		c0,9.9,7,18.6,17.2,18.5c11.1,0.1,17.9-9.6,17.9-20.2S73.6,46.5,63.1,46.4z M73,69c-0.6,6.9-4,13.2-9.9,12.7
		c-7.3-0.6-10.3-9.6-9.3-20.9c0.7-7,4.1-12.1,9.8-11.7C72.3,49.9,73.6,61.7,73,69z M211.6,77.1l-0.1-31.5l-11.8,4.8
		c-0.4-2.5-2.7-4-5.3-4c-3.8,0-7.1,4-8.8,6.7v-6.8l-13,4.4v1.7c6.1-1.8,5.9,1.3,5.9,7v17.7c0,3.3-1.1,4.7-5.9,5.1v1.5h18.9v-1.5
		c-3.9-0.3-5.9-0.9-5.9-5.1V57.8c0-2.2,2.5-6,4.7-6.1c3.5-0.2,2.6,3.2,6.1,3.3c2,0.1,3.3-1.7,5.6-1.8c2.6-0.2,2.5,2.8,2.5,5v19
		c-0.1,3.3-1.2,4.8-6.1,5.1v1.6h19v-1.5C213.7,81.9,211.6,81.3,211.6,77.1z M280,84.3l-19.2-45.2h-1.9l-12.8,30.6
		c-2.2,5.4-5.7,8.6-11.8,8.6c-8,0.2-12.1-8.1-12.1-15.5c0-6.6,3.3-13.8,10-13.9c4.1,0,5.9,2.3,5.9,5.4c0.1,2,1.8,3.6,3.8,3.7
		c2.1,0,3.7-1.6,3.8-3.7c-0.4-5.6-7.5-8.1-12-8.1c-11.9,0-17.9,9.3-17.9,19.8c0,10.1,6.3,18.3,14.9,18.2c4.7,0,9.1-2.1,11.9-5.9
		c-1.2,3.2-2.6,6.3-4.3,9.3c-1.3,2.2-2.9,4-5.7,4.2V94h15.9v-1.9c-1.9,0-5.3-0.3-5.4-3.3s3.2-9.1,4.2-12.2h20.5l2.8,6.7
		c2.6,6.1,3.9,8.4-3.6,8.8V94h20.6v-1.9C282.9,92.2,281.5,87.5,280,84.3L280,84.3z M249,73l8.7-21.6l8.9,21.6H249z"/>
	<text transform="matrix(1 0 0 1 289.9019 93.9159)" class="st3 st4">®</text>
	<rect x="287.6" y="77.5" class="st5" width="2.5" height="23.2"/>
	<rect x="266.5" y="94" class="st5" width="31.8" height="2.5"/>
</g>
<g id="measure">
	<rect x="-53.4" y="-92.1" class="st5" width="396" height="288"/>
</g>
</svg>
