<svg xmlns="http://www.w3.org/2000/svg" width="170.857" height="35" viewBox="0 0 170.857 35"><path d="M7.03,34.971l-.085-.01-.058-.007c-.18-.022-.337-.049-.479-.078l-.04-.008a4.238,4.238,0,0,1-2.636-1.642V34.81H.763V19.156H3.732v5.52a4.357,4.357,0,0,1,3.208-1.734l.032,0,.043-.005a5.937,5.937,0,0,1,.6-.031,5.173,5.173,0,0,1,2.726.74,5.238,5.238,0,0,1,1.929,2.105,6.777,6.777,0,0,1,.711,3.163,6.908,6.908,0,0,1-.711,3.183,5.354,5.354,0,0,1-1.929,2.147A5.069,5.069,0,0,1,7.613,35C7.428,35,7.237,34.99,7.03,34.971ZM5.313,25.915a3.071,3.071,0,0,0-1.145,1.2,4.1,4.1,0,0,0,0,3.681,3.1,3.1,0,0,0,1.145,1.2,3,3,0,0,0,1.516.412,2.961,2.961,0,0,0,1.538-.424,3.143,3.143,0,0,0,1.145-1.205,3.785,3.785,0,0,0,.434-1.861,3.678,3.678,0,0,0-.434-1.83A3.031,3.031,0,0,0,8.367,25.9a3.1,3.1,0,0,0-1.538-.4A2.982,2.982,0,0,0,5.313,25.915ZM20.268,35h-.015a5.02,5.02,0,0,1-2.7-.761,5.343,5.343,0,0,1-1.93-2.147,6.908,6.908,0,0,1-.711-3.182,6.809,6.809,0,0,1,.711-3.153A5.09,5.09,0,0,1,20.274,22.9c.185,0,.374.01.593.031l.111.014a4.4,4.4,0,0,1,3.178,1.731V23.09h2.989V34.81H24.155V33.225A4.6,4.6,0,0,1,20.275,35Zm-.757-9.1a3.043,3.043,0,0,0-1.135,1.174,3.7,3.7,0,0,0-.435,1.831,3.816,3.816,0,0,0,.435,1.85,3.13,3.13,0,0,0,1.145,1.216,2.924,2.924,0,0,0,1.517.424,3.081,3.081,0,0,0,1.548-.413A3,3,0,0,0,23.731,30.8a4.243,4.243,0,0,0,0-3.7,3,3,0,0,0-1.145-1.185,3.075,3.075,0,0,0-1.548-.412A3.04,3.04,0,0,0,19.511,25.9ZM52.085,34.81,48.1,29.817V34.81H45.129V19.156H48.1v8.906l3.946-4.972H55.9l-5.174,5.881,5.217,5.838Zm-13.277,0V28.336a3.032,3.032,0,0,0-.7-2.147,2.484,2.484,0,0,0-1.909-.751,2.544,2.544,0,0,0-1.94.751,3,3,0,0,0-.711,2.147V34.81H30.581V23.09h2.968v1.275c1.118-1.5,3.506-1.444,3.506-1.444v0l.036,0a4.538,4.538,0,0,1,3.393,1.323,5.057,5.057,0,0,1,1.293,3.691V34.81Zm72.082-20.52a4.588,4.588,0,0,1-1.813-1.406,3.567,3.567,0,0,1-.732-1.968h2.99A1.623,1.623,0,0,0,112,12.037a2.327,2.327,0,0,0,1.453.445,2.26,2.26,0,0,0,1.325-.339,1.025,1.025,0,0,0,.477-.867.914.914,0,0,0-.584-.857,10.929,10.929,0,0,0-1.855-.624,15.881,15.881,0,0,1-2.154-.656A3.732,3.732,0,0,1,109.227,8.1a2.767,2.767,0,0,1-.605-1.882,3.034,3.034,0,0,1,.562-1.777,3.776,3.776,0,0,1,1.612-1.27,6.063,6.063,0,0,1,2.47-.464,5.053,5.053,0,0,1,3.351,1.047,3.877,3.877,0,0,1,1.378,2.824h-2.841a1.537,1.537,0,0,0-.583-1.111,2.171,2.171,0,0,0-1.389-.413,2.194,2.194,0,0,0-1.241.3.941.941,0,0,0-.435.824.969.969,0,0,0,.594.9,9.189,9.189,0,0,0,1.845.624,15.912,15.912,0,0,1,2.1.656A3.717,3.717,0,0,1,117.476,9.4a2.869,2.869,0,0,1,.624,1.872,3.1,3.1,0,0,1-.561,1.819,3.689,3.689,0,0,1-1.612,1.258,6.115,6.115,0,0,1-2.45.455A6.209,6.209,0,0,1,110.89,14.289Zm-22.531-.232a5.32,5.32,0,0,1-2.1-2.126,6.539,6.539,0,0,1-.753-3.173,6.652,6.652,0,0,1,.743-3.194,5.185,5.185,0,0,1,2.079-2.116A6.689,6.689,0,0,1,94.4,3.427a5.087,5.087,0,0,1,2.057,2.041A6.188,6.188,0,0,1,97.191,8.5a7.029,7.029,0,0,1-.085,1.142H88.518a2.92,2.92,0,0,0,.891,1.989,2.764,2.764,0,0,0,1.93.719,2.433,2.433,0,0,0,2.353-1.418h3.2a5.362,5.362,0,0,1-1.951,2.782A5.735,5.735,0,0,1,91.4,14.808,6.173,6.173,0,0,1,88.359,14.057Zm1.1-8.25a2.938,2.938,0,0,0-.922,1.85h5.577a2.35,2.35,0,0,0-.827-1.829,2.947,2.947,0,0,0-1.972-.689A2.706,2.706,0,0,0,89.462,5.807Zm-37.843,8.25a5.432,5.432,0,0,1-2.131-2.126,6.383,6.383,0,0,1-.774-3.173,6.25,6.25,0,0,1,.795-3.173,5.534,5.534,0,0,1,2.174-2.127,6.674,6.674,0,0,1,6.15,0,5.549,5.549,0,0,1,2.174,2.127A6.259,6.259,0,0,1,60.8,8.758a6.133,6.133,0,0,1-.817,3.173,5.7,5.7,0,0,1-2.205,2.126,6.469,6.469,0,0,1-3.107.751A6.227,6.227,0,0,1,51.619,14.057Zm.965-7.869a3.589,3.589,0,0,0-.858,2.57,3.646,3.646,0,0,0,.837,2.57,2.772,2.772,0,0,0,2.11.9,3.11,3.11,0,0,0,1.517-.391,2.866,2.866,0,0,0,1.134-1.175,3.963,3.963,0,0,0,.425-1.9,3.536,3.536,0,0,0-.881-2.57,2.906,2.906,0,0,0-2.153-.9A2.839,2.839,0,0,0,52.583,6.188Zm-22.066,8.1A4.591,4.591,0,0,1,28.7,12.884a3.566,3.566,0,0,1-.731-1.968h2.989a1.623,1.623,0,0,0,.669,1.121,2.327,2.327,0,0,0,1.453.445,2.26,2.26,0,0,0,1.325-.339,1.025,1.025,0,0,0,.477-.867.914.914,0,0,0-.584-.857,10.929,10.929,0,0,0-1.855-.624,15.881,15.881,0,0,1-2.154-.656A3.739,3.739,0,0,1,28.853,8.1a2.771,2.771,0,0,1-.605-1.882,3.034,3.034,0,0,1,.562-1.777,3.776,3.776,0,0,1,1.612-1.27,6.069,6.069,0,0,1,2.47-.464,5.052,5.052,0,0,1,3.351,1.047,3.877,3.877,0,0,1,1.379,2.824H34.78A1.537,1.537,0,0,0,34.2,5.468a2.171,2.171,0,0,0-1.389-.413,2.194,2.194,0,0,0-1.241.3.943.943,0,0,0-.435.824.969.969,0,0,0,.594.9,9.2,9.2,0,0,0,1.846.624,15.851,15.851,0,0,1,2.1.656A3.71,3.71,0,0,1,37.1,9.4a2.87,2.87,0,0,1,.625,1.872,3.1,3.1,0,0,1-.562,1.819,3.686,3.686,0,0,1-1.611,1.258,6.115,6.115,0,0,1-2.45.455A6.206,6.206,0,0,1,30.517,14.289ZM2.8,14.056A5.289,5.289,0,0,1,.743,11.941,6.561,6.561,0,0,1,0,8.758,6.567,6.567,0,0,1,.743,5.574,5.308,5.308,0,0,1,2.8,3.458a5.975,5.975,0,0,1,3.011-.75A5.8,5.8,0,0,1,9.427,3.8a5.294,5.294,0,0,1,1.919,3.056h-3.2a2.341,2.341,0,0,0-.858-1.2,2.508,2.508,0,0,0-1.5-.433,2.451,2.451,0,0,0-2.016.92,4.068,4.068,0,0,0-.742,2.613,4.032,4.032,0,0,0,.742,2.591,2.451,2.451,0,0,0,2.016.92,2.251,2.251,0,0,0,2.353-1.607h3.2a5.4,5.4,0,0,1-1.93,3.025,5.694,5.694,0,0,1-3.605,1.121A5.958,5.958,0,0,1,2.8,14.056Zm15.863.709a4.987,4.987,0,0,1-2.439-.582,4.1,4.1,0,0,1-1.665-1.714,5.649,5.649,0,0,1-.6-2.7V2.9h2.969V9.35a3.037,3.037,0,0,0,.7,2.147,2.486,2.486,0,0,0,1.909.752,2.511,2.511,0,0,0,1.93-.752,3.037,3.037,0,0,0,.7-2.147V2.9h2.991V14.617H22.161V13.329a4.248,4.248,0,0,1-2.956,1.408l-.032,0c-.249.024-.429.026-.489.026Zm81.221-.149V2.9h2.968V4.23a4.335,4.335,0,0,1,3.6-1.5h.01v3.11h-.784a3.011,3.011,0,0,0-2.11.656,3.022,3.022,0,0,0-.711,2.284v5.838Zm-19.934,0V8.144a2.924,2.924,0,0,0-.7-2.105,2.521,2.521,0,0,0-1.908-.729,2.557,2.557,0,0,0-1.919.729,2.9,2.9,0,0,0-.711,2.105v6.473H71.743V8.144a2.924,2.924,0,0,0-.7-2.105,2.521,2.521,0,0,0-1.909-.729,2.584,2.584,0,0,0-1.94.729,2.9,2.9,0,0,0-.711,2.105v6.473H63.513V2.9h2.969V4.23a3.893,3.893,0,0,1,2.335-1.373c.1-.023.2-.041.3-.057l.068-.011c.125-.019.253-.034.382-.043l.083,0c.095-.005.189-.014.287-.014l.041,0,.063,0a4.57,4.57,0,0,1,4.03,2.156,4.52,4.52,0,0,1,3.394-2.116l.017,0a5.4,5.4,0,0,1,.618-.038,4.725,4.725,0,0,1,3.489,1.322,4.984,4.984,0,0,1,1.325,3.691v6.875Zm-35.032,0q-3.754,0-3.754-3.639V5.3h-1.83V2.864h1.83V0h2.989V2.864h2.631V5.3H44.152V11a1.117,1.117,0,0,0,.288.856,1.405,1.405,0,0,0,.965.265h1.379v2.5Z" transform="translate(52.757)" fill="#0a225e"/><path d="M26.469,32H11.015A11.013,11.013,0,0,1,0,21.01,10.821,10.821,0,0,1,1.217,16,10.827,10.827,0,0,1,0,10.987,11.014,11.014,0,0,1,11.015,0H26.469A11.014,11.014,0,0,1,37.484,10.987,10.826,10.826,0,0,1,36.267,16a10.822,10.822,0,0,1,1.217,5.011A11.013,11.013,0,0,1,26.469,32ZM19.71,21.975v8.091h6.759a9.078,9.078,0,0,0,9.08-9.056A8.979,8.979,0,0,0,35,17.933a11,11,0,0,1-8.528,4.042ZM2.487,17.932a9.028,9.028,0,0,0,8.528,12.134h6.759V21.975H11.015A10.99,10.99,0,0,1,2.487,17.932Zm8.528-5.98A9.077,9.077,0,0,0,3.458,16a9.077,9.077,0,0,0,7.556,4.046H26.469A9.076,9.076,0,0,0,34.025,16a9.077,9.077,0,0,0-7.556-4.046Zm8.7-10.022v8.091h6.759A11,11,0,0,1,35,14.064a8.98,8.98,0,0,0,.551-3.077,9.078,9.078,0,0,0-9.08-9.057Zm-8.7,0a9.078,9.078,0,0,0-9.08,9.057,8.979,8.979,0,0,0,.551,3.077,10.993,10.993,0,0,1,8.528-4.043h6.759V1.931Z" transform="translate(0 2.864)" fill="#009dff"/></svg>