<?xml version="1.0" encoding="UTF-8" standalone="no"?>
<!-- Generator: Adobe Illustrator 22.0.1, SVG Export Plug-In . SVG Version: 6.00 Build 0)  -->

<svg
   version="1.1"
   id="Layer_1"
   x="0px"
   y="0px"
   width="270"
   height="40"
   viewBox="0 0 270.00001 40.000002"
   xml:space="preserve"
   xmlns="http://www.w3.org/2000/svg"
   xmlns:svg="http://www.w3.org/2000/svg"
   xmlns:rdf="http://www.w3.org/1999/02/22-rdf-syntax-ns#"
   xmlns:cc="http://creativecommons.org/ns#"><defs
   id="defs49" />
<style
   type="text/css"
   id="style2">
	.st0{fill:#1B459C;}
	.st1{fill:#00AE64;}
	.st2{fill:#FFFFFF;}
</style>

<desc
   id="desc6">Created with Sketch.</desc>
<g
   id="g44"
   transform="translate(2,2.15)">
	<path
   class="st0"
   d="m 63.7,18.1 c 0,1.5 -1.4,1.9 -3.1,1.9 h -4.3 v 4 c 1.5,0.3 2.2,0.9 2.2,1.3 v 0.1 H 53.4 V 12.3 C 52.5,12 51.8,11.4 51.8,11 v -0.1 h 13.3 v 3.6 H 65 c -0.4,0 -1,-0.7 -1.3,-1.6 h -7.4 v 4.9 h 7.4 z"
   id="path8" />
	<path
   class="st0"
   d="m 71.4,25.4 h -5.3 v -0.1 c 0,-0.4 0.6,-1 1.3,-1.3 v -9.4 c -0.7,-0.2 -1.3,-0.9 -1.3,-1.3 v -0.1 h 5.3 v 0.1 c 0,0.4 -0.6,1 -1.3,1.3 V 24 c 0.7,0.2 1.3,0.9 1.3,1.3 z"
   id="path10" />
	<path
   class="st0"
   d="m 84,18.8 c 0,1.5 -1.4,1.9 -3.1,1.9 H 77 V 24 c 1,0.2 1.8,0.9 1.8,1.3 v 0.1 H 74.4 V 14.6 c -0.7,-0.2 -1.3,-0.9 -1.3,-1.3 v -0.1 h 12.8 v 3.3 h -0.1 c -0.4,0 -1,-0.6 -1.3,-1.3 H 77 v 3.6 z"
   id="path12" />
	<path
   class="st0"
   d="m 99.3,13.2 v 3.3 h -0.1 c -0.4,0 -1,-0.6 -1.3,-1.3 H 94.4 V 24 c 1,0.2 1.8,0.9 1.8,1.3 v 0.1 H 90 v -0.1 c 0,-0.4 0.8,-1 1.8,-1.3 v -8.8 h -3.4 c -0.2,0.7 -0.9,1.3 -1.3,1.3 H 87 v -3.3 z"
   id="path14" />
	<path
   class="st0"
   d="m 104.6,18.2 c 1.2,-0.3 2.5,-0.4 3.7,-0.3 1.3,0 2.5,0.1 3.8,0.3 v -3.6 c -0.7,-0.2 -1.3,-0.9 -1.3,-1.3 v -0.1 h 5.3 v 0.1 c 0,0.4 -0.6,1 -1.3,1.3 V 24 c 0.7,0.2 1.3,0.9 1.3,1.3 v 0.1 h -3.9 v -5 c -1.2,-0.2 -2.5,-0.4 -3.8,-0.3 -1.2,0 -2.5,0.1 -3.7,0.3 V 24 c 0.7,0.2 1.3,0.9 1.3,1.3 v 0.1 h -4 V 14.6 c -0.7,-0.2 -1.3,-0.9 -1.3,-1.3 v -0.1 h 5.3 v 0.1 c 0,0.4 -0.6,1 -1.3,1.3 z"
   id="path16" />
	<path
   class="st0"
   d="m 139,10.9 v 3.6 0 c -0.4,0 -1.1,-0.7 -1.4,-1.6 h -4.4 v 11 c 0.9,0.3 1.6,0.9 1.6,1.3 v 0 h -6 v 0 c 0,-0.4 0.7,-1.1 1.6,-1.3 V 13 H 126 c -0.3,0.9 -0.9,1.6 -1.3,1.6 h -0.1 V 11 H 139 Z"
   id="path18" />
	<path
   class="st0"
   d="m 144.3,18.2 c 1.2,-0.3 2.5,-0.4 3.7,-0.3 1.3,0 2.5,0.1 3.8,0.3 v -3.6 c -0.7,-0.2 -1.3,-0.9 -1.3,-1.3 v -0.1 h 5.3 v 0.1 c 0,0.4 -0.6,1 -1.3,1.3 V 24 c 0.7,0.2 1.3,0.9 1.3,1.3 v 0.1 h -4 v -5 c -1.2,-0.2 -2.5,-0.4 -3.8,-0.3 -1.2,0 -2.5,0.1 -3.7,0.3 V 24 c 0.7,0.2 1.3,0.9 1.3,1.3 v 0.1 h -4 V 14.6 c -0.7,-0.2 -1.3,-0.9 -1.3,-1.3 v -0.1 h 5.3 v 0.1 c 0,0.4 -0.6,1 -1.3,1.3 z"
   id="path20" />
	<path
   class="st0"
   d="m 162.6,25.4 h -5.3 v -0.1 c 0,-0.4 0.6,-1 1.3,-1.3 v -9.4 c -0.7,-0.2 -1.3,-0.9 -1.3,-1.3 v -0.1 h 5.3 v 0.1 c 0,0.4 -0.6,1 -1.3,1.3 V 24 c 0.7,0.2 1.3,0.9 1.3,1.3 z"
   id="path22" />
	<path
   class="st0"
   d="m 169.5,25.4 h -3.9 V 14.6 c -0.7,-0.2 -1.3,-0.9 -1.3,-1.3 v -0.1 h 8.6 c 3,0 4.9,1 4.9,3.6 0,2 -1.3,3.1 -3.3,3.4 l 2.6,3.8 c 0.7,0.1 1.5,0.8 1.5,1.3 v 0.1 h -3.7 l -3.3,-5 h -3.3 V 24 c 0.7,0.2 1.3,0.9 1.3,1.3 z m 3,-6.8 c 2.2,0 2.7,-0.7 2.7,-1.7 0,-1 -0.4,-1.7 -2.7,-1.7 h -4.2 v 3.4 z"
   id="path24" />
	<path
   class="st0"
   d="m 180.7,14.6 c -0.7,-0.2 -1.3,-0.9 -1.3,-1.3 v -0.1 h 8.5 c 3.4,0 6,2 6,6.1 0,4.1 -2.6,6.1 -6,6.1 h -7.2 z m 6.2,8.8 c 2.9,0 4.3,-0.9 4.3,-4.1 0,-3.2 -1.4,-4.1 -4.3,-4.1 h -3.6 v 8.2 z"
   id="path26" />
	<path
   class="st1"
   d="M 40.1,10.7 C 40,4.8 35.3,0 29.4,0 H 0 v 25 c 0,5.9 4.8,10.6 10.7,10.7 h 29.4 z"
   id="path28" />
	<path
   class="st2"
   d="M 29.4,1.9 H 1.9 V 25 c 0,4.8 3.9,8.7 8.7,8.7 H 38.1 V 10.6 c 0,-4.8 -3.9,-8.7 -8.7,-8.7"
   id="path30" />
	<path
   class="st0"
   d="M 29.3,3.2 H 3.2 V 25 c 0,4.2 3.4,7.5 7.5,7.5 H 36.9 V 10.7 c 0,-4.1 -3.4,-7.5 -7.6,-7.5"
   id="path32" />
	<path
   class="st2"
   d="M 18,29 24,6.2 h -1.4 l -6,22.9 z m 12.2,-7.8 c 1,-0.2 1.9,-0.6 2.6,-1.4 C 33.4,19 33.7,18 33.4,17 33.2,16.1 32.6,15.3 31.8,14.7 31.1,14.2 30.3,13.9 29.5,13.9 h -6.4 c 1.6,0.5 2.8,1.7 3.3,3.3 0,0 1,3.1 -3.2,4 0,0 -0.1,0 0,0 0.8,0.3 1.5,0.8 2.2,1.5 0.5,0.5 0.8,1.2 1,1.8 0.7,3.3 -3.3,4.1 -3.3,4.1 h 6.2 c 2.2,0 3.1,-1.2 3.3,-1.4 0.7,-0.7 1,-1.7 0.8,-2.7 -0.2,-0.8 -0.6,-1.6 -1.3,-2.1 -0.5,-0.5 -1.2,-0.9 -1.9,-1.2 v 0 M 17,19.8 c 0.6,-0.6 0.8,-1.9 0.5,-3 -0.3,-1 -0.9,-1.9 -1.7,-2.5 -0.7,-0.5 -1.5,-0.9 -2.4,-1 H 6.6 c 1.7,0.5 3,1.8 3.6,3.5 0.7,3.5 -3.3,4.2 -3.3,4.2 h 7.5 c 0.9,0 1.9,-0.4 2.6,-1.2 m -0.7,-13 -0.1,5.1 H 6.5 V 6.8 Z"
   id="path34" />
	<path
   class="st0"
   d="m 212.6,23.1 c 2.5,0 3.4,-0.7 3.4,-2 0,-1.3 -0.9,-2.1 -3.4,-2.1 H 207 v 4.1 z m -0.1,-6.4 c 1.8,0 3.1,-0.4 3.1,-1.9 0,-1.4 -1.3,-1.6 -3.1,-1.6 H 207 v 3.5 z m 0.3,-5.7 c 3.4,0 5.6,0.9 5.6,3.6 0,1.7 -1.2,2.8 -3.2,3.3 2.3,0.4 3.6,1.6 3.6,3.5 0,2.3 -2,4.1 -5.4,4.1 H 204 v -13 c -0.9,-0.3 -1.5,-0.9 -1.5,-1.3 V 11 Z"
   id="path36" />
	<path
   class="st0"
   d="m 235.9,14.6 c -0.7,-0.2 -1.3,-0.9 -1.3,-1.3 v -0.1 h 3.8 l 8,8.3 v -6.9 c -0.7,-0.2 -1.3,-0.9 -1.3,-1.3 v -0.1 h 5 v 0.1 c 0,0.4 -0.6,1 -1.3,1.3 V 24 c 0.7,0.2 1.3,0.9 1.3,1.3 v 0.1 h -3.5 l -8.3,-8.5 V 24 c 0.7,0.2 1.3,0.9 1.3,1.3 v 0.1 h -3.7 z"
   id="path38" />
	<path
   class="st0"
   d="m 261,14.4 c -0.3,-0.3 -0.6,-0.6 -0.6,-1.1 v -0.1 h 5 v 0.1 c 0,0.6 -0.8,1.2 -1.4,1.3 l -4.4,3.7 4.9,5.7 c 0.6,0.2 1.5,0.7 1.5,1.3 v 0.1 h -3.7 l -4.6,-5.6 -1.9,1.5 V 24 c 0.7,0.2 1.3,0.9 1.3,1.3 v 0.1 h -3.9 V 14.6 c -0.7,-0.2 -1.3,-0.9 -1.3,-1.3 v -0.1 h 5.2 v 0.1 c 0,0.4 -0.6,1 -1.3,1.3 v 4.2 z"
   id="path40" />
	<path
   class="st0"
   d="m 226.2,16.2 -1.9,4.2 c 1.4,-0.1 2.8,-0.1 4.1,0 l -2,-4.3 h -0.2 z m -2.3,9.1 v 0.1 h -5.1 v -0.1 c 0,-0.6 0.8,-1.2 1.4,-1.3 l 4.4,-9.5 c -0.5,-0.2 -1,-0.7 -1,-1.1 v -0.1 h 5.8 v 0.1 c 0,0.4 -0.6,0.9 -1,1.1 l 4.7,9.5 c 0.6,0.1 1.4,0.7 1.4,1.3 v 0.1 H 229 v -0.1 c 0,-0.6 0.7,-1.1 1.2,-1.2 l -0.7,-1.5 c -2,-0.3 -4.1,-0.3 -6.1,0 l -0.7,1.5 c 0.7,0 1.2,0.5 1.2,1.2"
   id="path42" />
</g>
<metadata
   id="metadata866"><rdf:RDF><cc:Work
       rdf:about="" /></rdf:RDF></metadata></svg>
