<svg enable-background="new 0 0 164.7057495 51.1609497" height="176.223402" viewBox="0 0 164.7057495 51.1609497" width="567.461522" xmlns="http://www.w3.org/2000/svg" xmlns:xlink="http://www.w3.org/1999/xlink"><clipPath id="a"><path d="m1.4575043 6.6201172-.0009995.0009766v42.8470458l.0009995.0009766h42.8779983v-42.848999"/></clipPath><linearGradient id="b" gradientTransform="matrix(42.8631477 42.8631477 -42.8631477 42.8631477 28954.669922 -8726.518555)" gradientUnits="userSpaceOnUse" x1="-235.869095" x2="-234.86908" y1="439.612335" y2="439.612335"><stop offset="0" stop-color="#001d4d"/><stop offset=".0634528" stop-color="#002355"/><stop offset=".1610159" stop-color="#00326a"/><stop offset=".276074" stop-color="#004b8c"/><stop offset=".515337" stop-color="#0087ca"/><stop offset=".7300609" stop-color="#004b8c"/><stop offset=".7567244" stop-color="#004483"/><stop offset=".8546622" stop-color="#002f65"/><stop offset=".9391544" stop-color="#002253"/><stop offset="1" stop-color="#001d4d"/></linearGradient><clipPath id="c"><path d="m24.1855087 9.0361328c-2.3570023.8510132-3.7320023 2.1920166-4.3460007 3.6569824-.1920013.4589844-.3470001 1.0230103-.3720016 1.7559814l-.0039978.5910034v3.1260376c0 .3779907-.2040024.6369629-.5390015.8529663-.1710052.1119995-.3639984.2030029-.5550003.2800293l-.5090027.1950073-16.4000015 6.4119874v23.559021h10.848999v-2.2350464l7.939003-3.1989746.6210022-.2689819c.3959961-.1940308.9519958-.4990234 1.5059967-.9160156 1.0770035-.81604 2.5800018-2.1619873 2.5890045-4.4169922l-.0050049-3.9050293 20.8320084-8.5979614v-25.5610352"/></clipPath><linearGradient id="d" gradientUnits="userSpaceOnUse" x1="-1.62115097308" x2="45.79708862692" y1="24.91636464284" y2="24.91636464284"><stop offset="0" stop-color="#c8cacb"/><stop offset=".226994" stop-color="#ededee"/><stop offset=".368098" stop-color="#dddfe0"/><stop offset=".429448" stop-color="#e2e3e4"/><stop offset=".490798" stop-color="#a4a7a9"/><stop offset=".558282" stop-color="#fff"/><stop offset=".619632" stop-color="#dddfe0"/><stop offset=".699386" stop-color="#ededee"/><stop offset=".766871" stop-color="#f7f7f8"/><stop offset="1" stop-color="#d0d2d3"/></linearGradient><clipPath id="e"><path d="m9.5825043 33.3591309c3.7600021-1.4500122 7.4420013-2.9050293 11.1969986-4.5059814.5790024-.276001.9760056-.7040405 1.2430038-1.0810547v3.302002c.022995.723999-.5299988 1.6199951-1.6640015 2.1430054-3.4329987 1.5720215-7.1119995 2.8619995-10.776001 4.2770386m15.7669984-26.1240236c-2.1679993.8410034-2.9509964 1.7550049-2.9509964 3.4580078v3.6069946c0 2.4030151-3.4309998 3.4119873-3.4309998 3.4119873l-17.5070038 6.8469849v20.7710571h8.0040054v-4.1490479l9.6449966-3.8859863s2.9189987-1.0209961 2.9189987-3.3919678c0 0 .0090027-2.1410522.0410004-3.5950317.0309982-1.3300171.7700043-2.3099976 2.3600006-2.9519653l18.8050003-7.5950317v-7.6459961l-18.1959991 7.2440186c-2.2949982.9379883-2.6610031 1.9249878-2.6610031 1.9249878v-3.4459839c0-.302002-.1240005-1.5400391 3.1259995-2.8670044l17.7310028-7.1060181v-7.809021"/></clipPath><linearGradient id="f" gradientUnits="userSpaceOnUse" x1="1.27117520541" x2="43.21326050541" y1="26.82810081562" y2="26.82810081562"><stop offset="0" stop-color="#9d012d"/><stop offset=".177914" stop-color="#d11242"/><stop offset=".368098" stop-color="#d11242"/><stop offset=".429448" stop-color="#d11242"/><stop offset=".4301428" stop-color="#d01242"/><stop offset=".490798" stop-color="#8a0024"/><stop offset=".564417" stop-color="#ed3352"/><stop offset=".631902" stop-color="#c30e3d"/><stop offset=".877301" stop-color="#d11242"/><stop offset=".981595" stop-color="#c30e3d"/><stop offset="1" stop-color="#c30e3d"/></linearGradient><clipPath id="g"><path d="m-8.826492-6.496887h181.440002v67.320007h-181.440002z"/></clipPath><path clip-path="url(#a)" d="m-19.9679947 28.0446777 42.8639755 42.8640137 42.8639756-42.8640137-42.8639756-42.8639526z" fill="url(#b)"/><path d="m44.3330078 6.6188965h-42.8740005l-1.4589997-1.4579468h45.7929993" fill="#7e99c3"/><path d="m44.3330078 49.4641113h-42.8740005l-1.4589997 1.4580078h45.7929993" fill="#7e99c3"/><path d="m1.4590073 49.4631958v-42.8429565l-1.4590073-1.4589844v45.7609863" fill="#4d6d9f"/><path clip-path="url(#c)" d="m1.460495.365112h44.331001v49.099976h-44.331001z" fill="url(#d)"/><path clip-path="url(#e)" d="m1.460503 4.191101h41.774002v45.274109h-41.774002z" fill="url(#f)"/><path d="m44.3340073 26.5252075v22.9380493l1.4579925 1.4589844v-24.9979858" fill="#4d6d9f"/><path clip-path="url(#g)" d="m45.7963028 26.3562012v-.4329834l-20.8420029 8.6010132.0049973 4.0369873c0 1.8930054-1.3610001 3.3599854-2.5239944 4.2420044-.5559998.4180298-1.0930023.7340088-1.4490051.9069824l-8.6809998 3.5180054v2.2319946h.4000015v-1.9609985l7.8190002-3.151001.6289978-.2739868c.3810043-.18396.9570007-.4970093 1.5400009-.9349976 1.1409988-.8640137 2.6580048-2.2799683 2.6669998-4.5769653l-.0039978-3.7709961" fill="#003d80"/><path clip-path="url(#g)" d="m45.7908096 0-21.6730041 8.7420044c-2.2229996.802002-3.7649994 2.1050415-4.4639969 3.7680054-.2369995.5670166-.3639984 1.1640015-.387001 1.8309937l-.0039978 3.7190552c0 .2779541-.1330032.4829712-.451004.6859741-.1389999.0930176-.3079987.1779785-.5139999.2600098l-16.838997 6.5809935v.4290161l16.4729996-6.44104.512001-.1959839c.2339935-.0930176.4269943-.190979.5879974-.2969971.4319992-.2780151.6319962-.6030273.6319962-1.0219727v-3.1240234l.0050049-.585022c.0209961-.6139526.137001-1.164978.3559952-1.6859741.6529999-1.5570068 2.1150055-2.7839966 4.2350006-3.5490112l21.5310059-8.6790161" fill="#fff"/><g fill="#043673"><path clip-path="url(#g)" d="m58.0351028 43.0563354c2.4490051.3109741 4.1640015 1.3359985 4.1640015 3.4959717 0 1.4920044-.802002 2.6490479-2.0930023 3.3400269-1.1360016.6450195-2.7620087.9349976-4.5870056.9349976h-5.3889923v-.7349854c1.7809906-.1340332 1.9589996-.2900391 1.9589996-2.1600342v-8.68396c0-1.8710327-.1549988-2.026001-1.803009-2.1600342v-.7349854h6.2120056c1.6929932 0 2.7610016.2460327 3.5630035.7800293.802002.5109863 1.2919922 1.4469604 1.2919922 2.5159912 0 2.1369629-1.8259888 3.0050049-3.3179932 3.3179932m-2.671997-.2230224c2.2489929 0 3.2279968-.8909912 3.2279968-2.7390137 0-1.8259888-1.0690002-2.8049927-2.6040039-2.8049927-.5130005 0-.9360046.1329956-1.0919952.2670288-.178009.1329956-.2449951.4450073-.2449951 1.0020142v4.2749634m-.0000001 5.143982c0 1.625.4459991 2.0930176 1.7149963 2.0700073 1.446991-.0219727 2.9389954-.9349976 2.9389954-3.18396 0-2.1370239-1.4029999-3.184021-3.9859924-3.184021h-.6679993"/><path clip-path="url(#g)" d="m70.4598923 51.0948486c-.5130005 0-.9579926-.2000122-1.2480011-.4460449-.2889862-.2890015-.4449921-.5780029-.5559998-.8900146-.868988.5790405-1.9149933 1.3360596-2.4269867 1.3360596-1.7820129 0-2.8950043-1.4250488-2.8950043-2.8060303 0-1.1350098.5559998-1.7360229 1.7369995-2.1599731 1.3130035-.467041 3.0059967-1.0240479 3.5180054-1.4690552v-.5569458c0-1.4700317-.6230011-2.2940063-1.5590057-2.2940063-.3339996 0-.6230011.1339722-.822998.401001-.2680054.3119507-.4680023.8239746-.6460114 1.5139771-.1339874.5120239-.4229889.6690063-.8469849.6690063-.5120087 0-1.2240143-.4910278-1.2240143-1.0700073 0-.3560181.2670135-.6450195.7570038-.9790039.7570038-.5570068 2.2929993-1.3359985 3.5630035-1.5809937.822998 0 1.4920044.2000122 2.0480042.6229858.8909912.69104 1.1129913 1.6480103 1.1129913 2.8500366v3.8519897c0 1.0249634.3570099 1.3150024.7350006 1.3150024.2669983 0 .5350037-.0900269.7580109-.2009888l.243988.6679688m-4.118988-4.3870239c-.4450073.2460327-1.0470123.5570068-1.5140076.802002-.7570038.3560181-1.1580048.7790527-1.1580048 1.559021 0 1.2009888.8460083 1.6920166 1.4250031 1.6920166.401001 0 .8460083-.2000122 1.2470093-.5120239"/><path clip-path="url(#g)" d="m80.0315018 50.8273926v-.6679688c1.068985-.1339722 1.2029877-.2459717 1.2029877-1.8259888v-3.7410278c0-1.5809937-.6909943-2.2489624-1.7149963-2.2489624-.6900024 0-1.3359985.355957-1.9369965.8460083v5.3219604c0 1.4249878.1329956 1.5140381 1.1799927 1.6480103v.6679688h-5.1660004v-.6679688c1.4250031-.1779785 1.5370026-.2459717 1.5370026-1.7150269v-4.6089478c0-1.3810425-.1119995-1.447998-1.2480011-1.6700439v-.6009521c1.1800079-.1560059 2.4940033-.4680176 3.6970062-.8690186v1.6920166c.4449921-.3110352.8899994-.6450195 1.4250031-.9790039.644989-.4230347 1.1360016-.6459961 1.7809906-.6459961 1.7810059 0 2.8730011 1.2909546 2.8730011 3.4959717v4.2310181c0 1.4469604.1329956 1.5139771 1.3580017 1.6699829v.6679688"/><path clip-path="url(#g)" d="m94.1438065 48.7348022c-1.0020142 1.3800049-2.4720001 2.3600464-3.8070068 2.3600464-2.9620056 0-4.6990051-2.2940063-4.6990051-4.697998 0-1.6710205.802002-3.2070313 2.2490082-4.2980347 1.3359985-1.0019531 2.7610016-1.3359985 3.6289978-1.3359985.8249969 0 1.5590057.2449951 1.9380035.5560303.3109894.2449951.401001.4679565.401001.7579956-.0220032.5780029-.5570068 1.1350098-.8910065 1.1350098-.1329956 0-.2669983-.0670166-.4669952-.2449951-.8249969-.7350464-1.5599976-1.0690308-2.25-1.0690308-1.0910034 0-2.1820068.9799805-2.1820068 3.3629761 0 3.0050049 2.1159973 3.9850464 3.1840057 3.9850464.9359894 0 1.6029968-.2440186 2.4940033-1.0239868"/><path clip-path="url(#g)" d="m103.1841049 39.8939209c-.4450073-1.4029541-1.2020111-3.0059814-3.0510101-3.0059814-1.4019928 0-2.2709961 1.0239868-2.2709961 2.2709961 0 1.3810425.9129944 2.1160278 2.8059998 3.0510254 2.1150055 1.0689697 3.8970032 2.2269897 3.8970032 4.5419922 0 2.4719849-2.0940094 4.4089966-5.2550049 4.4089966-.845993 0-1.6040039-.1329956-2.2050018-.3330078-.6009979-.1790161-1.0019989-.3349609-1.2689972-.4680176-.1999969-.5349731-.4900055-2.4049683-.6459961-3.6519775l.7569885-.2230225c.401001 1.4030151 1.6040039 3.8080444 3.7860107 3.8080444 1.4909973 0 2.4049988-.9800415 2.4049988-2.4720459 0-1.4249878-1.0690002-2.2489624-2.7389984-3.1169434-1.9820099-1.0240479-3.8079987-2.2050171-3.8079987-4.4760132 0-2.31604 1.8479919-4.2080078 4.8990021-4.2080078 1.2909851 0 2.4269867.3779907 3.0059967.5559692.0889893.8240356.2229919 1.7590332.401001 3.1620483"/><path clip-path="url(#g)" d="m111.3558121 50.8273926v-.6679688c1.1579895-.1339722 1.2689972-.2890015 1.2689972-1.6030273v-3.8309937c0-1.7579956-.7350006-2.447998-1.826004-2.447998-.6459961 0-1.3359985.2449951-1.8710022.8010254v5.4779663c0 1.3140259.1119995 1.4690552 1.1809998 1.6030273v.6679688h-5.0769958v-.6679688c1.2910004-.1339722 1.446991-.2230225 1.446991-1.6480103v-10.4649657c0-1.3810425-.0669861-1.4250488-1.3359985-1.5370483v-.6229858c1.1360016-.1339722 2.628006-.4680176 3.7850037-.7799683v7.1489868c.7799988-.7579956 1.9160004-1.492981 3.0509949-1.492981 1.8930054 0 3.0730133 1.2019653 3.0730133 3.7409668v4.0079956c0 1.4249878.1559906 1.4920044 1.3579865 1.6480103v.6679688"/><path clip-path="url(#g)" d="m124.2482986 51.0948486c-.5119934 0-.9579926-.2000122-1.246994-.4460449-.2890015-.2890015-.4459991-.5780029-.5570068-.8900146-.8679962.5790405-1.9149933 1.3360596-2.4269867 1.3360596-1.7810059 0-2.8950043-1.4250488-2.8950043-2.8060303 0-1.1350098.5569916-1.7360229 1.7369995-2.1599731 1.3139954-.467041 3.0059967-1.0240479 3.5180054-1.4690552v-.5569458c0-1.4700317-.6230011-2.2940063-1.5590057-2.2940063-.3330078 0-.6230011.1339722-.822998.401001-.2680054.3119507-.4680023.8239746-.6460114 1.5139771-.1339874.5120239-.4229889.6690063-.845993.6690063-.5130005 0-1.2250061-.4910278-1.2250061-1.0700073 0-.3560181.2670135-.6450195.7570038-.9790039.7570038-.5570068 2.2940063-1.3359985 3.5630035-1.5809937.8240051 0 1.4920044.2000122 2.0480042.6229858.8909912.69104 1.1139984 1.6480103 1.1139984 2.8500366v3.8519897c0 1.0249634.3560028 1.3150024.7350006 1.3150024.2669983 0 .5339966-.0900269.7570038-.2009888l.2449951.6679688m-4.1199952-4.3870239c-.4450073.2460327-1.0460052.5570068-1.5140076.802002-.7570038.3560181-1.1580048.7790527-1.1580048 1.559021 0 1.2009888.8460083 1.6920166 1.4250031 1.6920166.401001 0 .8470001-.2000122 1.2470093-.5120239"/><path clip-path="url(#g)" d="m131.3792267 43.1226807c.7569885-1.3129883 1.67099-2.3599854 2.5829926-2.3599854.845993 0 1.4259949.6010132 1.4259949 1.2910156 0 .6459961-.423996 1.2249756-.9579926 1.4249878-.2900085.1119995-.5120087.0670166-.6459961-.065979-.3790131-.3120117-.6460114-.4680176-1.0019989-.4680176-.4900055 0-1.0240021.4230347-1.4470062 1.447998v4.1190186c0 1.4019775.1109924 1.5139771 1.826004 1.6480103v.6679688h-5.7460098v-.6679688c1.2700119-.1340332 1.4700089-.2460327 1.4700089-1.6480103v-4.7869873c0-1.2480469-.1330109-1.3370361-1.2690048-1.5599976v-.5780028c1.2470016-.1780396 2.4489975-.4460449 3.7190018-.8690186v2.4049683"/><path clip-path="url(#g)" d="m144.0943298 48.7565918c-1.3590088 1.8920288-3.029007 2.3380127-3.875 2.3380127-2.8720093 0-4.4980011-2.2039795-4.4980011-4.7650146 0-1.6259766.6459961-3.0289917 1.5809937-3.9639893.9570007-1.0020142 2.1820068-1.6029663 3.3619995-1.6029663 1.9820099 0 3.5180054 1.7149658 3.5180054 3.4959717 0 .4450073-.1329956.7119751-.6009979.7789917-.4000092.0670166-3.1399994.2670288-5.4780121.3569946.0670013 2.6279907 1.5370026 3.8519897 3.1180115 3.8519897.8679962 0 1.7139893-.3119507 2.4940033-1.0249634m-5.5000001-3.8290405c1.0239868 0 2.0039978-.0229492 3.0279999-.0669556.3569946 0 .4899902-.0670166.5119934-.4240112 0-1.1569824-.6009979-2.2700195-1.5809937-2.2700195-.9130096 0-1.7590026 1.0010376-1.9589996 2.7609863"/><path clip-path="url(#g)" d="m151.2993317 43.8131714c-.5350037-1.3589478-1.2690125-2.2489624-2.3380127-2.2489624-.6900024 0-1.2480011.5570068-1.2480011 1.3359985 0 .7799683.6460114 1.3139648 1.7369995 1.7819824 1.7600098.7559814 2.9400024 1.5360107 2.9400024 3.2059937 0 2.1380005-2.026001 3.2059937-3.875 3.2059937-1.1579895 0-2.2929993-.4229736-2.7159882-.756958-.1560059-.3330078-.3560028-1.8930054-.3560028-2.8720093l.6230011-.0670166c.4679871 1.4249878 1.4919891 2.8729858 2.8279877 2.8729858.7570038 0 1.3580017-.5579834 1.3580017-1.3359985 0-.7579956-.4449921-1.2929688-1.7139893-1.914978-1.1360016-.5349731-2.8280029-1.3590088-2.8280029-3.2070313 0-1.6699829 1.3799896-3.0509644 3.6289978-3.0509644.9799957 0 1.5809937.1790161 2.0709991.3779907.2230072.5130005.4680023 2.0050049.5350037 2.4949951"/><path clip-path="url(#g)" d="m60.0387344 19.7875977c-.2230072-.867981-.4450073-1.4249878-.802002-1.8709717-.4230042-.5339966-.9790039-.6900024-2.404007-.6900024h-1.3139954c-.7350006 0-.8240051.0449829-.8240051.757019v5.032959h2.0039978c1.9820099 0 2.1600037-.2009888 2.427002-1.6259766h.7350006v4.3870239h-.7350006c-.2440033-1.5140381-.4449921-1.7369995-2.427002-1.7369995h-2.0039977v3.7189941c0 2.026001.201004 2.1599731 2.1600037 2.315979v.7119751h-6.6360016v-.7119751c1.6929932-.1560059 1.8939972-.289978 1.8939972-2.315979v-8.4620361c0-1.9819946-.201004-2.1149902-1.848999-2.2489624v-.7350464h10.2649994c.0220032.5350342.1340027 2.1380005.2449951 3.3630371"/><path clip-path="url(#g)" d="m61.530632 30.7877197v-.6680298c1.3359985-.1560059 1.4689941-.2449951 1.4689941-1.8039551v-4.4750366c0-1.4259644-.1329956-1.5150146-1.2910004-1.6929932v-.6229858c1.2690125-.1560059 2.605011-.4450073 3.7410126-.8240356v7.6150513c0 1.5139771.1109924 1.6479492 1.4919891 1.8039551v.6680298m-4.2979888-13.071045c0-.8009644.6679993-1.4249878 1.4249878-1.4249878.802002 0 1.4260101.6240234 1.4260101 1.4249878 0 .757019-.6240082 1.4030151-1.447998 1.4030151-.7350006 0-1.4029999-.6459961-1.4029999-1.4030151"/><path clip-path="url(#g)" d="m71.9089432 23.0830688c.7569885-1.3129883 1.6699982-2.3599854 2.5829926-2.3599854.845993 0 1.4250031.6010132 1.4250031 1.2910156 0 .6459961-.4230042 1.2249756-.9570007 1.4249878-.2900085.1119995-.5130005.0670166-.6459961-.065979-.3790131-.3120117-.6460114-.4680176-1.0019989-.4680176-.4900055 0-1.0240021.4230347-1.4480133 1.4470215v4.1199951c0 1.4030151.1119995 1.5139771 1.826004 1.6480103v.6679688h-5.7449951v-.6679688c1.2700043-.1340332 1.4700012-.2449951 1.4700012-1.6480103v-4.7880248c0-1.2470093-.1340027-1.3359985-1.2689972-1.5579834v-.5789795c1.2459869-.1780396 2.4489899-.4460449 3.7179871-.8690186v2.4049683"/><path clip-path="url(#g)" d="m82.3518448 23.7733765c-.5350037-1.3579712-1.2690125-2.2489624-2.3380127-2.2489624-.6900024 0-1.246994.5570068-1.246994 1.3359985 0 .7799683.6459961 1.3139648 1.7369995 1.7819824 1.7590027.7559814 2.9389954 1.5360107 2.9389954 3.2059937 0 2.1380005-2.026001 3.2059937-3.875 3.2059937-1.1569977 0-2.2929993-.4229736-2.7159882-.756958-.1560059-.3340454-.3560028-1.8920288-.3560028-2.8720093l.6230011-.0670166c.4679871 1.4249878 1.4919891 2.8720093 2.8279877 2.8720093.7570038 0 1.3580017-.5560303 1.3580017-1.335022 0-.756958-.4449921-1.2919922-1.7139893-1.9159546-1.1360016-.5339966-2.8280029-1.3580322-2.8280029-3.2060547 0-1.6699829 1.3809967-3.0499878 3.6289978-3.0499878.9799957 0 1.5809937.1780396 2.0709991.3779907.2230072.5120239.4680023 2.0040283.5350037 2.4940186"/><path clip-path="url(#g)" d="m89.0852432 30.7879028c-.3790131.1780396-.7350006.2670288-.9130096.2670288-1.6029968 0-2.5159912-.8239746-2.5159912-2.7609863v-6.302002h-1.4480133l-.1109924-.2670288.6239929-.7349854h.9350128v-1.625l2.1369934-1.6480103.2899933.1110229v3.1619873h2.3160095c.2449951.2230225.1999969.8239746-.1340027 1.0020142h-2.1820068v5.5670168c0 1.7599487.802002 2.0039673 1.2920074 2.0039673.4449921 0 .845993-.1329956 1.2019958-.2890015l.2230072.6900024"/><path clip-path="url(#g)" d="m106.4305496 27.0244141c-.3110046 1.0690308-.8680115 2.7610474-1.2470093 3.5180054-.6009979.1340332-2.5820007.5790405-4.1409912.5790405-5.7680054 0-8.2390137-3.8519897-8.2390137-7.3699951 0-4.632019 3.5400085-7.7709961 8.7510071-7.7709961 1.8029938 0 3.4069977.46698 4.0079956.6009521.178009 1.2250366.3339996 2.2270508.4900055 3.5400391l-.779007.1560059c-.6679993-2.5380249-2.2489929-3.3850098-4.2089996-3.3850098-3.4069977 0-5.2549896 3.0739746-5.2549896 6.4140015 0 4.0969849 2.2709961 6.8579712 5.4329987 6.8579712 2.026001 0 3.3179932-1.2030029 4.4539948-3.4289551"/><path clip-path="url(#g)" d="m107.2056503 30.7877808v-.6680298c1.3359985-.1560059 1.4689941-.2449951 1.4689941-1.8039551v-4.4750366c0-1.4259644-.1329956-1.5150146-1.2910004-1.6929932v-.6229858c1.2690125-.1560059 2.605011-.4450073 3.7410126-.8240356v7.6150513c0 1.5139771.1109924 1.6479492 1.4919891 1.8039551v.6680298m-4.2979888-13.0710451c0-.8009644.6679993-1.4249878 1.4249878-1.4249878.802002 0 1.4250031.6240234 1.4250031 1.4249878 0 .757019-.6230011 1.4030151-1.446991 1.4030151-.7350006.0000001-1.4029999-.645996-1.4029999-1.4030151"/><path clip-path="url(#g)" d="m117.648262 30.7879639c-.3790131.1780396-.7350006.2670288-.9130096.2670288-1.6029968 0-2.5159912-.8239746-2.5159912-2.7609863v-6.302002h-1.4480133l-.1109924-.2670288.6239929-.7349854h.9350128v-1.625l2.1369934-1.6480103.2899933.1110229v3.1619873h2.3160095c.2449951.2230225.1999969.8239746-.1340027 1.0020142h-2.1820068v5.5670166c0 1.7599487.802002 2.0039673 1.2910004 2.0039673.4459991 0 .8470001-.1329956 1.2030029-.2890015l.2230072.6900024"/><path clip-path="url(#g)" d="m120.3355484 30.7877808v-.6680298c1.3359985-.1560059 1.4689941-.2449951 1.4689941-1.8039551v-4.4750366c0-1.4259644-.1329956-1.5150146-1.2910004-1.6929932v-.6229858c1.2690125-.1560059 2.605011-.4450073 3.7410126-.8240356v7.6150513c0 1.5139771.1109924 1.6479492 1.4919891 1.8039551v.6680298m-4.2979888-13.0710451c0-.8009644.6679993-1.4249878 1.4249878-1.4249878.8010101 0 1.4250031.6240234 1.4250031 1.4249878 0 .757019-.6239929 1.4030151-1.446991 1.4030151-.7350006.0000001-1.4029999-.645996-1.4029999-1.4030151"/><path clip-path="url(#g)" d="m135.6816559 27.8040161c-.3790131 1.1130371-.7350006 2.2270508-1.0240021 2.9840088h-7.7050095l-.2450104-.3339844c1.870018-2.8950195 3.4740219-5.6119995 5.2330093-8.572998h-1.4689941c-1.5370026 0-1.9819946.3339844-2.6280136 1.5809937l-.3569946.6900024-.6230011-.2669678c.2890015-1.0020142.6230011-2.4050293.8460083-3.3850098h.4899979c.1560059.355957.4459991.4899902 1.3139954.4899902h5.3220062l.1779938.2890015c-1.7369995 2.9179688-3.3399963 5.6119995-5.0769958 8.617981h1.6920013c1.6040039 0 2.2490082-.355957 3.0960083-1.8040161l.3559875-.5789795"/><path clip-path="url(#g)" d="m144.7879486 28.7176514c-1.3580017 1.8919678-3.0279999 2.3369751-3.8739929 2.3369751-2.8730011 0-4.4980011-2.2039795-4.4980011-4.7650146 0-1.6259766.644989-3.0279541 1.5800018-3.9639893.9579926-1.0020142 2.1829987-1.6019897 3.3629913-1.6019897 1.9820099 0 3.5180054 1.7139893 3.5180054 3.4949951 0 .4450073-.1329956.7130127-.6009979.7800293-.4000092.0669556-3.1399994.2669678-5.4780121.355957.0670013 2.6279907 1.5370026 3.8519897 3.1180115 3.8519897.8679962 0 1.7139893-.3109741 2.4940033-1.0239868m-5.5-3.8300171c1.0239868 0 2.0039978-.0219727 3.0279999-.0669556.3559875 0 .4899902-.0670166.5119934-.4230347 0-1.157959-.6009979-2.2709961-1.5809937-2.2709961-.9130096.0000001-1.7590027 1.0020142-1.9589996 2.7609864"/><path clip-path="url(#g)" d="m151.6681519 30.7879028v-.6679688c1.068985-.1339722 1.2029877-.2449951 1.2029877-1.8259888v-3.7410278c0-1.5809937-.6909943-2.2489624-1.7149963-2.2489624-.6900024 0-1.3359985.355957-1.9369965.8460083v5.3219604c0 1.4249878.1340027 1.5140381 1.1799927 1.6480103v.6679688h-5.1660004v-.6679688c1.4250031-.1779785 1.5360107-.2449951 1.5360107-1.7150269v-4.6089478c0-1.3810425-.1110077-1.447998-1.2470093-1.6700439v-.6009521c1.1800079-.1560059 2.4940033-.4680176 3.6970062-.8690186v1.6920166c.4449921-.3110352.8899994-.6450195 1.4250031-.9790039.6459961-.4230347 1.1360016-.6459961 1.7809906-.6459961 1.7810059 0 2.8730011 1.2909546 2.8730011 3.4959717v4.2310181c0 1.4469604.1329956 1.5139771 1.3580017 1.6699829v.6679688"/><path clip-path="url(#g)" d="m163.6137543 23.7733765c-.5340118-1.3579712-1.2690125-2.2489624-2.3380127-2.2489624-.6900024 0-1.246994.5570068-1.246994 1.3359985 0 .7799683.6459961 1.3139648 1.7369995 1.7819824 1.7599945.7559814 2.9400024 1.5360107 2.9400024 3.2059937 0 2.1380005-2.0270081 3.2059937-3.875 3.2059937-1.1580048 0-2.2940063-.4229736-2.7169952-.756958-.1560059-.3340454-.3560028-1.8920288-.3560028-2.8720093l.6230011-.0670166c.4679871 1.4249878 1.4919891 2.8720093 2.8279877 2.8720093.7580109 0 1.3590088-.5560303 1.3590088-1.335022 0-.756958-.4459991-1.2919922-1.7140045-1.9159546-1.1369934-.5339966-2.8289948-1.3580322-2.8289948-3.2060547 0-1.6699829 1.3809967-3.0499878 3.6299896-3.0499878.980011 0 1.5810089.1780396 2.0710144.3779907.2220001.5120239.4669952 2.0040283.5339966 2.4940186"/></g></svg>