<svg xmlns="http://www.w3.org/2000/svg" xmlns:xlink="http://www.w3.org/1999/xlink" version="1.1" id="Layer_1" x="0px" y="0px" viewBox="0.0 0.0 184.88797 25.4229736" style="enable-background:new 0 0 184.88797 25.4229736;" xml:space="preserve" width="855.2359741197581" height="116.92679333668568">
<style type="text/css">
	.st0{clip-path:url(#SVGID_2_);fill:#0057A7;}
	.st1{clip-path:url(#SVGID_4_);fill:#0057A7;}
	.st2{clip-path:url(#SVGID_6_);fill:#0057A7;}
	@media (prefers-color-scheme: dark) { .st0,.st1,.st2 {fill:#FFFFFF;} }
	.st3{clip-path:url(#SVGID_6_);fill:#FFFFFF;}
	.st4{clip-path:url(#SVGID_6_);fill:#FE3B1F;}
	.st5{clip-path:url(#SVGID_6_);fill:#0057A7;}
</style>
<g>
	<defs>
		<rect id="SVGID_1_" width="184.88797" height="25.4229736"/>
	</defs>
	<clipPath id="SVGID_2_">
		<use xlink:href="#SVGID_1_" style="overflow:visible;"/>
	</clipPath>
	<path class="st0" d="M72.8647156,9.1518555c0,2.4840088-2.0930176,4.2880249-4.9750061,4.2880249   c-1.5810242,0-2.9150085-0.34198-4.0440063-1.0429688c-0.3170166-0.1930542-0.6170044-0.4160156-0.9039917-0.6700439   l1.8859863-2.5750122c1.4720154,1.3690186,2.9869995,1.3110352,3.5069885,1.2410278c0.006012,0,0.0110168,0,0.0160217-0.0029907   c0.0350037-0.0040283,0.0690002-0.0090332,0.1019897-0.0159912c0.0469971-0.007019,0.0700073-0.0140381,0.0700073-0.0140381   c0.6329956-0.1279907,0.9989929-0.506958,0.9989929-1.0679932c0-0.7709961-0.7550049-0.9569702-2.4079895-1.3579712   c-0.006012,0-0.0160217-0.0020142-0.0230103-0.0040283l-0.1719971-0.0419922   c-0.0910034-0.0209961-0.1820068-0.0419922-0.2749939-0.0650024c-0.2350159-0.0559692-0.4720154-0.1190186-0.7050171-0.1870117   c-1.6439819-0.4909668-3.1319885-1.3800049-3.1319885-3.5780029c0-2.3299561,2.0119934-4.0229492,4.7820129-4.0229492   c1.3249817,0,2.3769836,0.2399902,3.3409729,0.7890015c0.1820068,0.1049805,0.3610229,0.2189941,0.5380249,0.3469849   c0.118988,0.0859985,0.2330017,0.1749878,0.3439941,0.2699585c0.0130005,0.0110474,0.2009888,0.1630249,0.2139893,0.1740112   l-1.743988,2.3800049c-0.0169983-0.0139771-0.210022-0.1690063-0.2279968-0.1820068   c-1.3760071-1.0619507-2.5339966-0.9259644-2.5339966-0.9259644c-1.006012,0-1.4550171,0.5349731-1.4550171,1.065979   c0,0.5960083,0.7000122,0.8110352,1.7900085,1.0690308c0.1000061,0.0229492,0.2049866,0.0469971,0.3119812,0.0719604   c0.1419983,0.0350342,0.2910156,0.0700073,0.4470215,0.1050415c0.1329956,0.0299683,0.2669983,0.0629883,0.4049988,0.0979614   c0.0090027,0.0020142,0.0159912,0.0040283,0.0249939,0.007019C71.0327148,5.7948608,72.8647156,6.6048584,72.8647156,9.1518555"/>
	<polygon class="st0" points="30.8997192,13.4008179 34.120697,13.4008179 34.120697,8.5558472 38.9687195,8.5558472    38.9687195,5.5638428 34.120697,5.5638428 34.120697,3.428833 39.8997192,3.428833 39.8997192,0.3828735 30.8997192,0.3828735  "/>
	<rect x="43.0400085" y="0.3829346" class="st0" width="3.256012" height="13.0180054"/>
	<polygon class="st0" points="74.024292,3.3757324 77.5122681,3.3757324 77.5122681,13.4007568 80.663269,13.4007568    80.663269,3.3757324 84.1172791,3.3757324 84.1172791,0.3837891 74.024292,0.3837891  "/>
	<polygon class="st0" points="97.1871948,5.2641602 93.1311646,5.2641602 93.1311646,0.3831787 89.8931885,0.3831787    89.8931885,13.4011841 93.1311646,13.4011841 93.1311646,8.4501953 97.1871948,8.4501953 97.1871948,13.4011841    100.426178,13.4011841 100.426178,0.3831787 97.1871948,0.3831787  "/>
	<path class="st0" d="M109.9501038,0.2073364c-3.6659851,0-6.6489868,2.9990234-6.6489868,6.6849976   c0,1.7950439,0.6869812,3.4760132,1.9339905,4.7330322c1.25,1.2589722,2.9240112,1.9520264,4.7149963,1.9520264   c3.7390137,0,6.6679993-2.9370117,6.6679993-6.6850586C116.618103,3.2063599,113.6271057,0.2073364,109.9501038,0.2073364    M113.3791199,6.892334c0,1.9620361-1.506012,3.4990234-3.4290161,3.4990234c-1.9020081,0-3.3930054-1.5369873-3.3930054-3.4990234   c0-1.9719849,1.4909973-3.5169678,3.3930054-3.5169678C111.8731079,3.3753662,113.3791199,4.9203491,113.3791199,6.892334"/>
	<rect x="133.2200012" y="0.3829346" class="st0" width="3.2559814" height="13.0180054"/>
	<polygon class="st0" points="149.3061218,3.2349243 149.3061218,0.3829346 140.0591125,0.3829346 140.0591125,3.3579712    145.4640808,3.3579712 139.8970642,11.0169678 139.8830872,11.0379639 139.8830872,13.4009399 149.3760681,13.4009399    149.3760681,10.3909302 144.1000671,10.3909302  "/>
	<path class="st0" d="M158.127594,0.2073364c-3.6669922,0-6.6499634,2.9990234-6.6499634,6.6849976   c0,1.7950439,0.6869507,3.4760132,1.93396,4.7330322c1.25,1.2589722,2.9240112,1.9520264,4.7160034,1.9520264   c3.7380371,0,6.6669922-2.9370117,6.6669922-6.6850586C164.7945862,3.2063599,161.8036194,0.2073364,158.127594,0.2073364    M161.5556335,6.892334c0,1.9620361-1.5060425,3.4990234-3.4280396,3.4990234   c-1.9030151,0-3.3939819-1.5369873-3.3939819-3.4990234c0-1.9719849,1.4909668-3.5169678,3.3939819-3.5169678   C160.0495911,3.3753662,161.5556335,4.9203491,161.5556335,6.892334"/>
	<polygon class="st0" points="175.7055359,0.3833618 175.7055359,7.9083862 171.0035095,0.4193726 170.9804993,0.3833618    167.6535339,0.3833618 167.6535339,13.4013672 170.7514954,13.4013672 170.7514954,5.5064087 175.6645203,13.3643799    175.6875305,13.4013672 178.7865295,13.4013672 178.7865295,0.3833618  "/>
	<path class="st0" d="M57.8602905,7.5327759c1.0029907-0.3889771,2.303009-1.447998,2.303009-3.2869873   c0-2.3949585-1.8950195-3.8619995-5.3860168-3.8619995h-4.8659973v12.9990234h3.5289917V8.7028198H54.72229l2.506012,4.6799927   h3.9379883L57.8602905,7.5327759z M54.1643066,6.25177h-0.7240295V3.020813h0.7240295   c1.1509705,0,2.2839966,0.2780151,2.2839966,1.4859619C56.4483032,5.8988037,55.3152771,6.25177,54.1643066,6.25177"/>
	<path class="st0" d="M127.4325867,7.5327759c1.0020142-0.3889771,2.302002-1.447998,2.302002-3.2869873   c0-2.3949585-1.8940125-3.8619995-5.3850098-3.8619995h-4.8659973v12.9990234h3.5289917V8.7028198h1.2810059l2.507019,4.6799927   h3.9369812L127.4325867,7.5327759z M123.7366028,6.25177h-0.7240295V3.020813h0.7240295   c1.1509705,0,2.2839966,0.2780151,2.2839966,1.4859619C126.0205994,5.8988037,124.8875732,6.25177,123.7366028,6.25177"/>
</g>
<g>
	<defs>
		<rect id="SVGID_3_" width="184.8869934" height="25.4229736"/>
	</defs>
	<clipPath id="SVGID_4_">
		<use xlink:href="#SVGID_3_" style="overflow:visible;"/>
	</clipPath>
	<path class="st1" d="M181.6134949,24.9057617c0.0709839,0.2080078,0.2479858,0.3120117,0.4779663,0.3120117   c0.2449951,0,0.4160156-0.1189575,0.4160156-0.3269653c0-0.1470337-0.0820313-0.2420044-0.2999878-0.2969971l-0.3370361-0.0889893   c-0.2600098-0.0680542-0.4500122-0.1990356-0.4500122-0.4840088c0-0.3179932,0.2640381-0.53302,0.6190186-0.53302   c0.3889771,0,0.617981,0.1989746,0.6890259,0.4959717h-0.2420044c-0.0580444-0.1679688-0.1990356-0.2909546-0.4470215-0.2909546   c-0.223999,0-0.3889771,0.1170044-0.3889771,0.30896c0,0.1600342,0.1040039,0.2360229,0.2999878,0.2880249l0.3209839,0.0830078   c0.2999878,0.0769653,0.4689941,0.2390137,0.4689941,0.5050049c0,0.3399658-0.2749634,0.5449829-0.6489868,0.5449829   s-0.6519775-0.1859741-0.7230225-0.5170288H181.6134949z"/>
	<polygon class="st1" points="183.9048157,25.3955688 183.3107605,23.9625854 183.3107605,25.3955688 183.08078,25.3955688    183.08078,23.515625 183.3537903,23.515625 183.9908142,25.0585938 184.6247864,23.515625 184.8877869,23.515625    184.8877869,25.3955688 184.6578064,25.3955688 184.6578064,23.9625854 184.0707703,25.3955688  "/>
</g>
<g>
	<defs>
		<rect id="SVGID_5_" width="184.88797" height="25.4229736"/>
	</defs>
	<clipPath id="SVGID_6_">
		<use xlink:href="#SVGID_5_" style="overflow:visible;"/>
	</clipPath>
	<path class="st2" d="M72.8647156,9.1168213c0,2.4840088-2.0930176,4.2880249-4.9750061,4.2880249   c-1.5810242,0-2.9150085-0.34198-4.0440063-1.0429688c-0.3170166-0.1930542-0.6170044-0.4160156-0.9039917-0.6700439   l1.8859863-2.5750122c1.4720154,1.3690186,2.9869995,1.3110352,3.5069885,1.2410278c0.006012,0,0.0110168,0,0.0160217-0.0029907   c0.0350037-0.0040283,0.0690002-0.0090332,0.1019897-0.0159912c0.0469971-0.007019,0.0700073-0.0140381,0.0700073-0.0140381   c0.6329956-0.1279907,0.9989929-0.506958,0.9989929-1.0679932c0-0.7709961-0.7550049-0.9569702-2.4079895-1.3579712   c-0.006012,0-0.0160217-0.0020142-0.0230103-0.0040283l-0.1719971-0.0419922   c-0.0910034-0.0209961-0.1820068-0.0419922-0.2749939-0.0650024c-0.2350159-0.0559692-0.4720154-0.1190186-0.7050171-0.1870117   c-1.6439819-0.4909668-3.1319885-1.3800049-3.1319885-3.5780029c0-2.3299561,2.0119934-4.0229492,4.7820129-4.0229492   c1.3249817,0,2.3769836,0.2399902,3.3409729,0.7890015c0.1820068,0.1049805,0.3610229,0.2189941,0.5380249,0.3469849   c0.118988,0.0859985,0.2330017,0.1749878,0.3439941,0.2699585c0.0130005,0.0110474,0.2009888,0.1630249,0.2139893,0.1740112   l-1.743988,2.3800049c-0.0169983-0.0139771-0.210022-0.1690063-0.2279968-0.1820068   c-1.3760071-1.0619507-2.5339966-0.9259644-2.5339966-0.9259644c-1.006012,0-1.4550171,0.5349731-1.4550171,1.065979   c0,0.5960083,0.7000122,0.8110352,1.7900085,1.0690308c0.1000061,0.0229492,0.2049866,0.0469971,0.3119812,0.0719604   c0.1419983,0.0350342,0.2910156,0.0700073,0.4470215,0.1050415c0.1329956,0.0299683,0.2669983,0.0629883,0.4049988,0.0979614   c0.0090027,0.0020142,0.0159912,0.0040283,0.0249939,0.007019C71.0327148,5.7598267,72.8647156,6.5698242,72.8647156,9.1168213"/>
	<polygon class="st3" points="25.1378174,0.1765137 -0.0001831,0.1765137 -0.0001831,21.7285156 3.3797913,25.3145142    25.1378174,25.3145142  "/>
	<path class="st4" d="M25.1387939,17.0582275V0.1752319H8.7657776C16.5087891,2.9442749,22.6037903,9.208252,25.1387939,17.0582275"/>
	<path class="st5" d="M23.3327942,25.314209H2.3027954c-1.2720032,0-2.3029785-1.0300293-2.3029785-2.302002V1.7211914   C5.3618164,1.7561646,10.3027954,3.597168,14.244812,6.6661987l-4.8950195,5.9450073l-6.321991,0.1589966l3.4570007,3.8549805   l-4.5220032,6.8580322l7.848999-3.5599976l4.6880188,3.5599976v-6.1080322l5.6769714-3.914978   c2.006012,3.4580078,3.1560059,7.4729614,3.1560059,11.7509766V25.314209z M14.4998169,6.8681641v5.743042l5.2379761,0.125   C18.3298035,10.4992065,16.5558167,8.5142212,14.4998169,6.8681641"/>
	<polygon class="st2" points="30.7924194,17.4584351 33.3233948,17.4584351 35.8313904,21.8734741 35.8313904,17.4584351    37.793396,17.4584351 37.793396,25.2914429 35.6234131,25.2914429 32.7644043,20.3724365 32.7644043,25.2914429    30.7924194,25.2914429  "/>
	<path class="st2" d="M41.3515015,17.4588623h2.9030151l2.4869995,7.8330078H44.364502l-0.4169922-1.4569702h-2.5960083   l-0.4159851,1.4569702h-2.0930176L41.3515015,17.4588623z M41.7895203,22.289856h1.7199707l-0.8549805-3.0129395   L41.7895203,22.289856z"/>
	<polygon class="st2" points="48.5743103,19.1893311 46.5473022,19.1893311 46.5473022,17.458374 52.8583069,17.458374    52.8583069,19.1893311 50.8312988,19.1893311 50.8312988,25.2913818 48.5743103,25.2913818  "/>
	<rect x="53.9630127" y="17.4579468" class="st2" width="2.2680054" height="7.8330078"/>
	<path class="st2" d="M57.605011,21.4244995v-0.0880127c0-2.3880005,1.7969971-3.9879761,4.1409912-3.9879761   c2.3890076,0,4.1520081,1.5009766,4.1520081,3.93396v0.0870361c0,2.4099731-1.6540222,4.0540161-4.1849976,4.0540161   C59.1830139,25.4235229,57.605011,23.77948,57.605011,21.4244995 M63.5540161,21.4024658v-0.0879517   c0-1.3909912-0.7010193-2.2130127-1.8080139-2.2130127c-1.1059875,0-1.79599,0.7999878-1.79599,2.223999v0.0880127   c0,1.4240112,0.7229919,2.2459717,1.8069763,2.2459717C62.8640137,23.6594849,63.5540161,22.8045044,63.5540161,21.4024658"/>
	<polygon class="st2" points="67.2854919,17.4584351 69.8164673,17.4584351 72.32547,21.8734741 72.32547,17.4584351    74.2864685,17.4584351 74.2864685,25.2914429 72.1164856,25.2914429 69.2574768,20.3724365 69.2574768,25.2914429    67.2854919,25.2914429  "/>
	<path class="st2" d="M77.8448792,17.4588623h2.9030151l2.4869995,7.8330078h-2.3780212l-0.4159851-1.4569702h-2.5960083   l-0.4169922,1.4569702h-2.0920105L77.8448792,17.4588623z M78.2828979,22.289856h1.7199707l-0.8549805-3.0129395   L78.2828979,22.289856z"/>
	<polygon class="st2" points="84.2843018,17.4584351 86.5412903,17.4584351 86.5412903,23.5494385 89.4992981,23.5494385    89.4992981,25.2914429 84.2843018,25.2914429  "/>
	<path class="st2" d="M93.0814209,21.4243164v-0.0879517c0-2.4100342,1.7089844-3.9980469,3.9989929-3.9980469   c2.0379944,0,3.4509888,0.9420166,3.6369934,3.0120239h-2.3110046c-0.0879822-0.7990112-0.526001-1.2379761-1.3150024-1.2379761   c-1.0079956,0-1.6439819,0.7890015-1.6439819,2.2129517v0.0880127c0,1.4130249,0.6029968,2.2130127,1.677002,2.2130127   c0.7879944,0,1.3469849-0.4160156,1.4570007-1.2819824h2.2349854c-0.1539917,2.0269775-1.6220093,3.0789795-3.6489868,3.0789795   C94.4294128,25.4233398,93.0814209,23.8233643,93.0814209,21.4243164"/>
	<path class="st2" d="M101.6871948,21.4244995v-0.0880127c0-2.3880005,1.7969971-3.9879761,4.1409912-3.9879761   c2.3890076,0,4.1520081,1.5009766,4.1520081,3.93396v0.0870361c0,2.4099731-1.6540222,4.0540161-4.1849976,4.0540161   C103.2651978,25.4235229,101.6871948,23.77948,101.6871948,21.4244995 M107.6362,21.4024658v-0.0879517   c0-1.3909912-0.7010193-2.2130127-1.8080139-2.2130127c-1.1059875,0-1.79599,0.7999878-1.79599,2.223999v0.0880127   c0,1.4240112,0.7229919,2.2459717,1.8069763,2.2459717C106.9461975,23.6594849,107.6362,22.8045044,107.6362,21.4024658"/>
	<path class="st2" d="M111.3674927,17.4580078h3.0679932c2.0480042,0,3.1879883,0.8330078,3.1879883,2.4869995v0.0440063   c0,1.117981-0.59198,1.7420044-1.4140015,2.0599976l1.8740234,3.242981h-2.3670044l-1.5880127-2.8049927h-0.526001v2.8049927   h-2.2349854V17.4580078z M114.3255005,21.0299683c0.7559814,0,1.1279907-0.3179932,1.1279907-0.9529419V20.03302   c0-0.6350098-0.3940125-0.8870239-1.1170044-0.8870239h-0.7340088v1.8839722H114.3255005z"/>
	<path class="st2" d="M119.1998901,17.4585571h2.980011c2.1469727,0,3.1439819,0.9530029,3.1439819,2.618042v0.0440063   c0,1.6430054-1.1059875,2.5310059-3.04599,2.5310059h-0.8430176v2.6399536h-2.2349854V17.4585571z M122.0809021,21.1175537   c0.7229919,0,1.1069946-0.3399658,1.1069946-0.9859619v-0.0440063c0-0.6680298-0.3950195-0.9420166-1.0960083-0.9420166h-0.6570129   v1.9719849H122.0809021z"/>
	<path class="st2" d="M126.1992188,21.4244995v-0.0880127c0-2.3880005,1.7969971-3.9879761,4.1409912-3.9879761   c2.3890076,0,4.1520081,1.5009766,4.1520081,3.93396v0.0870361c0,2.4099731-1.6540527,4.0540161-4.1849976,4.0540161   C127.7772217,25.4235229,126.1992188,23.77948,126.1992188,21.4244995 M132.1482239,21.4024658v-0.0879517   c0-1.3909912-0.7010193-2.2130127-1.8080139-2.2130127c-1.1059875,0-1.79599,0.7999878-1.79599,2.223999v0.0880127   c0,1.4240112,0.7229919,2.2459717,1.8069763,2.2459717C131.4582214,23.6594849,132.1482239,22.8045044,132.1482239,21.4024658"/>
	<path class="st2" d="M135.8794861,17.4580078h3.0679932c2.0479736,0,3.1879883,0.8330078,3.1879883,2.4869995v0.0440063   c0,1.117981-0.59198,1.7420044-1.4130249,2.0599976l1.8730469,3.242981h-2.3670044l-1.5880127-2.8049927h-0.526001v2.8049927   h-2.2349854V17.4580078z M138.8374939,21.0299683c0.7559814,0,1.1289673-0.3179932,1.1289673-0.9529419V20.03302   c0-0.6350098-0.3950195-0.8870239-1.117981-0.8870239h-0.7340088v1.8839722H138.8374939z"/>
	<path class="st2" d="M145.8692322,17.4588623h2.9030151l2.4869995,7.8330078h-2.3770142l-0.4169922-1.4569702h-2.5960083   l-0.4169922,1.4569702h-2.09198L145.8692322,17.4588623z M146.3072815,22.289856h1.7199707l-0.8549805-3.0129395   L146.3072815,22.289856z"/>
	<polygon class="st2" points="153.0921936,19.1893311 151.065155,19.1893311 151.065155,17.458374 157.3751526,17.458374    157.3751526,19.1893311 155.3491516,19.1893311 155.3491516,25.2913818 153.0921936,25.2913818  "/>
	<rect x="158.4809875" y="17.4579468" class="st2" width="2.2680054" height="7.8330078"/>
	<path class="st2" d="M162.1226501,21.4244995v-0.0880127c0-2.3880005,1.7969971-3.9879761,4.1409912-3.9879761   c2.3890381,0,4.1530151,1.5009766,4.1530151,3.93396v0.0870361c0,2.4099731-1.6550293,4.0540161-4.1849976,4.0540161   C163.7006531,25.4235229,162.1226501,23.77948,162.1226501,21.4244995 M168.0716858,21.4024658v-0.0879517   c0-1.3909912-0.7010498-2.2130127-1.8080444-2.2130127c-1.105957,0-1.7959595,0.7999878-1.7959595,2.223999v0.0880127   c0,1.4240112,0.7229614,2.2459717,1.8069458,2.2459717C167.3816833,23.6594849,168.0716858,22.8045044,168.0716858,21.4024658"/>
	<polygon class="st2" points="171.8031311,17.4584351 174.3340759,17.4584351 176.8431091,21.8734741 176.8431091,17.4584351    178.8041077,17.4584351 178.8041077,25.2914429 176.6351013,25.2914429 173.775116,20.3724365 173.775116,25.2914429    171.8031311,25.2914429  "/>
</g>
</svg>