<?xml version="1.0" encoding="UTF-8" standalone="no"?>
<!-- Created with Inkscape (http://www.inkscape.org/) -->

<svg
   xmlns:dc="http://purl.org/dc/elements/1.1/"
   xmlns:cc="http://creativecommons.org/ns#"
   xmlns:rdf="http://www.w3.org/1999/02/22-rdf-syntax-ns#"
   xmlns:svg="http://www.w3.org/2000/svg"
   xmlns="http://www.w3.org/2000/svg"
   xmlns:sodipodi="http://sodipodi.sourceforge.net/DTD/sodipodi-0.dtd"
   xmlns:inkscape="http://www.inkscape.org/namespaces/inkscape"
   width="102.04187mm"
   height="21.528839mm"
   viewBox="0 0 102.04187 21.528839"
   version="1.1"
   id="svg41245"
   inkscape:version="0.92.4 (5da689c313, 2019-01-14)"
   sodipodi:docname="glacier bancorp.svg">
  <defs
     id="defs41239" />
  <sodipodi:namedview
     id="base"
     pagecolor="#ffffff"
     bordercolor="#666666"
     borderopacity="1.0"
     inkscape:pageopacity="0.0"
     inkscape:pageshadow="2"
     inkscape:zoom="3.7419099"
     inkscape:cx="190.94527"
     inkscape:cy="38.794658"
     inkscape:document-units="mm"
     inkscape:current-layer="layer1"
     showgrid="false"
     fit-margin-top="0"
     fit-margin-left="0"
     fit-margin-right="0"
     fit-margin-bottom="0"
     inkscape:window-width="1920"
     inkscape:window-height="1001"
     inkscape:window-x="-9"
     inkscape:window-y="-9"
     inkscape:window-maximized="1" />
  <metadata
     id="metadata41242">
    <rdf:RDF>
      <cc:Work
         rdf:about="">
        <dc:format>image/svg+xml</dc:format>
        <dc:type
           rdf:resource="http://purl.org/dc/dcmitype/StillImage" />
        <dc:title></dc:title>
      </cc:Work>
    </rdf:RDF>
  </metadata>
  <g
     inkscape:label="Layer 1"
     inkscape:groupmode="layer"
     id="layer1"
     transform="translate(432.27689,-12.080816)">
    <g
       transform="translate(-328.58919,-349.65092)"
       id="g41207">
      <path
         d="m -78.640115,370.27961 c 0.332317,-0.64452 0.806803,-1.14512 1.423458,-1.50142 0.616656,-0.35631 1.337028,-0.53446 2.162175,-0.53446 0.968728,0 1.773414,0.26423 2.414411,0.79269 0.640645,0.52846 1.032934,1.24143 1.17722,2.13819 h -1.369484 c -0.136172,-0.53658 -0.402519,-0.95709 -0.798688,-1.26118 -0.396523,-0.30445 -0.883003,-0.4565 -1.459442,-0.4565 -0.528814,0 -0.990953,0.13018 -1.387475,0.39017 -0.396522,0.26035 -0.702733,0.62089 -0.918986,1.08127 -0.216253,0.46037 -0.324203,0.99095 -0.324203,1.59138 0,0.60043 0.106186,1.13136 0.318206,1.59173 0.212019,0.46038 0.516466,0.82092 0.912989,1.08091 0.396522,0.26035 0.858661,0.39053 1.387474,0.39053 0.672395,0 1.235075,-0.18415 1.687337,-0.5528 0.452613,-0.36795 0.694619,-0.88054 0.727075,-1.53741 v -0.20426 h -2.33045 v -1.16522 h 3.651602 v 4.60057 h -1.044927 l -0.144287,-1.20121 c -0.240241,0.35278 -0.582436,0.65299 -1.026936,0.901 -0.4445,0.24835 -0.971197,0.37253 -1.579739,0.37253 -0.776816,0 -1.465086,-0.17815 -2.065866,-0.53481 -0.600428,-0.35595 -1.068917,-0.85866 -1.405467,-1.50742 -0.336197,-0.64876 -0.504472,-1.39312 -0.504472,-2.23414 0,-0.84878 0.166158,-1.59562 0.498475,-2.24014"
         style="fill:#1c333a;fill-opacity:1;fill-rule:nonzero;stroke:none;stroke-width:0.35277778"
         id="path29487"
         inkscape:connector-curvature="0" />
      <path
         inkscape:connector-curvature="0"
         id="path29491"
         style="fill:#1c333a;fill-opacity:1;fill-rule:nonzero;stroke:none;stroke-width:0.35277778"
         d="m -70.631883,376.72408 h 1.297164 v -8.40846 h -1.297164 z" />
      <path
         d="m -64.623795,373.98515 h -1.609725 c -0.400403,0 -0.708731,0.078 -0.924983,0.23424 -0.2159,0.15628 -0.324203,0.3863 -0.324203,0.69074 0,0.26423 0.102306,0.47661 0.306211,0.63677 0.204258,0.16016 0.4826,0.24024 0.835025,0.24024 0.536222,0 0.954969,-0.14429 1.255183,-0.43251 0.300214,-0.28822 0.454378,-0.67274 0.462492,-1.15323 z m 1.945922,1.60972 v 1.12889 h -0.684741 c -0.400403,0 -0.688975,-0.084 -0.864659,-0.25223 -0.176389,-0.16792 -0.26423,-0.4124 -0.26423,-0.73272 -0.464609,0.70485 -1.141236,1.05727 -2.030236,1.05727 -0.688623,0 -1.241073,-0.16016 -1.657703,-0.48048 -0.416278,-0.32032 -0.624417,-0.76094 -0.624417,-1.32151 0,-0.63253 0.224014,-1.11901 0.672747,-1.45944 0.448381,-0.34007 1.100667,-0.51047 1.957564,-0.51047 h 1.549753 v -0.37253 c 0,-0.34396 -0.120297,-0.61419 -0.360539,-0.81068 -0.239889,-0.19615 -0.572205,-0.29422 -0.996597,-0.29422 -0.376767,0 -0.686858,0.0822 -0.930981,0.24624 -0.244475,0.16439 -0.390525,0.38241 -0.438502,0.65475 h -1.273528 c 0.06421,-0.61665 0.33655,-1.09502 0.817033,-1.43545 0.480484,-0.34043 1.109133,-0.51047 1.88595,-0.51047 0.824795,0 1.461206,0.19227 1.909939,0.57644 0.448381,0.38453 0.672394,0.93698 0.672394,1.6577 v 2.42641 c 0,0.28822 0.136173,0.4325 0.408517,0.4325 z"
         style="fill:#1c333a;fill-opacity:1;fill-rule:nonzero;stroke:none;stroke-width:0.35277778"
         id="path29495"
         inkscape:connector-curvature="0" />
      <path
         inkscape:connector-curvature="0"
         id="path29499"
         style="fill:#1c333a;fill-opacity:1;fill-rule:nonzero;stroke:none;stroke-width:0.35277778"
         d="m -57.714607,376.18931 c -0.496711,0.40464 -1.133122,0.60642 -1.909939,0.60642 -0.608542,0 -1.145116,-0.12982 -1.609372,-0.39017 -0.464608,-0.25999 -0.823031,-0.63041 -1.075267,-1.11089 -0.252236,-0.48084 -0.37853,-1.03294 -0.37853,-1.65771 0,-0.62477 0.128058,-1.17298 0.384528,-1.64571 0.256116,-0.47236 0.618772,-0.83855 1.087261,-1.0989 0.468489,-0.26035 1.010708,-0.39052 1.627363,-0.39052 0.768703,0 1.397353,0.20249 1.88595,0.60642 0.488598,0.40464 0.792692,0.95497 0.912989,1.65171 h -1.3335 c -0.08819,-0.35243 -0.26423,-0.63218 -0.528461,-0.84067 -0.26423,-0.20814 -0.588433,-0.31256 -0.972961,-0.31256 -0.5207,0 -0.939094,0.18838 -1.255183,0.56479 -0.316442,0.37642 -0.474486,0.86466 -0.474486,1.46544 0,0.60854 0.158044,1.10314 0.474486,1.48343 0.316089,0.3803 0.734483,0.57045 1.255183,0.57045 0.400403,0 0.73272,-0.10584 0.99695,-0.31821 0.264231,-0.21237 0.436386,-0.49848 0.516467,-0.85901 h 1.321505 c -0.120297,0.71296 -0.428625,1.27176 -0.924983,1.67569" />
      <path
         d="m -56.262539,370.57375 h 1.297164 v 6.14998 h -1.297164 z m 1.213203,-2.24013 c 0.152047,0.14852 0.228247,0.33443 0.228247,0.5588 0,0.22401 -0.0762,0.41028 -0.228247,0.55809 -0.1524,0.14852 -0.340431,0.2226 -0.564445,0.2226 -0.224366,0 -0.41275,-0.0741 -0.564797,-0.2226 -0.152047,-0.14781 -0.228247,-0.33408 -0.228247,-0.55809 0,-0.22437 0.0762,-0.41028 0.228247,-0.5588 0.152047,-0.14817 0.340431,-0.22225 0.564797,-0.22225 0.224014,0 0.412045,0.0741 0.564445,0.22225"
         style="fill:#1c333a;fill-opacity:1;fill-rule:nonzero;stroke:none;stroke-width:0.35277778"
         id="path29503"
         inkscape:connector-curvature="0" />
      <path
         inkscape:connector-curvature="0"
         id="path29507"
         style="fill:#1c333a;fill-opacity:1;fill-rule:nonzero;stroke:none;stroke-width:0.35277778"
         d="m -49.729447,372.97628 c -0.05609,-0.44838 -0.234244,-0.79869 -0.534458,-1.05092 -0.300214,-0.25224 -0.678745,-0.37854 -1.135239,-0.37854 -0.424392,0 -0.790928,0.13018 -1.098903,0.39018 -0.308328,0.2607 -0.48648,0.60677 -0.534458,1.03928 z m -4.330347,-0.97896 c 0.252236,-0.47625 0.604661,-0.8449 1.057275,-1.10525 0.452261,-0.26 0.970844,-0.39053 1.555397,-0.39053 0.592314,0 1.115131,0.1203 1.567392,0.36054 0.452614,0.24024 0.808919,0.58068 1.069269,1.02094 0.259997,0.44062 0.394053,0.95709 0.402167,1.54975 0,0.16017 -0.01199,0.32421 -0.03598,0.49248 h -4.636558 v 0.072 c 0.0321,0.53657 0.200025,0.96097 0.504472,1.27317 0.304448,0.31221 0.708731,0.46849 1.213203,0.46849 0.400403,0 0.736953,-0.0938 1.009297,-0.28222 0.271992,-0.18803 0.452261,-0.45438 0.540456,-0.79869 h 1.297164 c -0.112184,0.62442 -0.414514,1.137 -0.906992,1.53741 -0.492478,0.4004 -1.107017,0.60042 -1.843617,0.60042 -0.640997,0 -1.199444,-0.12982 -1.675694,-0.39017 -0.476603,-0.25999 -0.844903,-0.62653 -1.105253,-1.09925 -0.259997,-0.47237 -0.390172,-1.02094 -0.390172,-1.64536 0,-0.63253 0.125942,-1.1871 0.378178,-1.6637" />
      <path
         d="m -44.444272,370.57393 v 1.2132 h -0.576439 c -0.536928,0 -0.924983,0.17392 -1.165225,0.52247 -0.240242,0.34819 -0.360539,0.79092 -0.360539,1.32715 v 3.08715 h -1.297164 v -6.14997 h 1.153231 l 0.143933,0.92498 c 0.176389,-0.28857 0.404284,-0.5147 0.684742,-0.67874 0.280105,-0.16404 0.656519,-0.24624 1.129242,-0.24624 z"
         style="fill:#1c333a;fill-opacity:1;fill-rule:nonzero;stroke:none;stroke-width:0.35277778"
         id="path29511"
         inkscape:connector-curvature="0" />
      <path
         inkscape:connector-curvature="0"
         id="path29515"
         style="fill:#1c333a;fill-opacity:1;fill-rule:nonzero;stroke:none;stroke-width:0.35277778"
         d="m -37.194265,371.726 c -0.372886,0.31503 -0.903464,0.47484 -1.577269,0.47484 h -2.40912 v -3.57964 h 2.40912 c 0.681213,0 1.213908,0.15981 1.582913,0.47484 0.366537,0.31292 0.552098,0.75565 0.552098,1.31516 0,0.5595 -0.187678,1.00189 -0.557742,1.3148 m -1.565628,4.61857 h -2.420761 v -3.78213 h 2.420761 c 0.809625,0 1.441803,0.16051 1.878542,0.47766 0.431094,0.31291 0.649817,0.77046 0.649817,1.3596 0,0.60678 -0.215548,1.08691 -0.639939,1.42699 -0.428273,0.3436 -1.063625,0.51788 -1.88842,0.51788 m 1.056217,-3.99098 c 0.421217,-0.12171 0.758119,-0.32773 1.004358,-0.61418 0.297392,-0.34608 0.448028,-0.79693 0.448028,-1.34021 0,-0.66463 -0.222956,-1.19344 -0.662164,-1.57197 -0.437092,-0.37642 -1.066447,-0.56727 -1.870075,-0.56727 h -2.726619 c -0.03069,0 -0.05574,0.0247 -0.05574,0.0557 v 8.33437 c 0,0.0307 0.02505,0.0557 0.05574,0.0557 h 2.750255 c 0.945797,0 1.674636,-0.20461 2.166761,-0.60784 0.4953,-0.40604 0.746831,-0.97331 0.746831,-1.68627 0,-0.60043 -0.188383,-1.08444 -0.559153,-1.43934 -0.316794,-0.30268 -0.752475,-0.51011 -1.298222,-0.61877" />
      <path
         d="m -30.684104,374.39632 c -0.03845,0.60889 -0.2667,1.10525 -0.678039,1.47426 -0.412397,0.36971 -0.99448,0.55739 -1.73108,0.55739 -0.548217,0 -0.987425,-0.1263 -1.305278,-0.37536 -0.31362,-0.24553 -0.472722,-0.57714 -0.472722,-0.98601 0,-0.45403 0.166158,-0.79975 0.507647,-1.05692 0.341842,-0.25718 0.817386,-0.38771 1.413228,-0.38771 h 2.266244 z m -0.252942,-3.32422 v 0 c -0.421216,-0.37289 -1.010708,-0.56163 -1.751189,-0.56163 -0.620888,0 -1.142647,0.15381 -1.551516,0.4572 -0.410633,0.30516 -0.664281,0.71967 -0.753886,1.2319 -0.0028,0.0162 0.0018,0.0328 0.01235,0.0455 0.01058,0.0124 0.02611,0.0198 0.04269,0.0198 h 0.261761 c 0.02646,0 0.04939,-0.0187 0.05468,-0.0448 0.08396,-0.41239 0.297039,-0.74542 0.632883,-0.98989 0.337961,-0.24589 0.775758,-0.37042 1.301044,-0.37042 0.625828,0 1.121834,0.15946 1.474964,0.47414 0.351014,0.31291 0.529167,0.73977 0.529167,1.26823 v 0.67063 h -2.242608 c -0.723195,0 -1.297517,0.15805 -1.706386,0.46955 -0.413456,0.31538 -0.623006,0.76482 -0.623006,1.33632 0,0.51576 0.197203,0.9331 0.58667,1.24037 0.38488,0.30409 0.911577,0.45826 1.564216,0.45826 0.667103,0 1.219906,-0.14111 1.643945,-0.41981 0.34925,-0.22966 0.615244,-0.53234 0.793397,-0.90205 l 0.0194,1.19592 c 3.52e-4,0.0303 0.0254,0.0547 0.05574,0.0547 h 0.238125 c 0.03069,0 0.05574,-0.0251 0.05574,-0.0557 v -4.03649 c 0,-0.6484 -0.214841,-1.16698 -0.638175,-1.54163"
         style="fill:#1c333a;fill-opacity:1;fill-rule:nonzero;stroke:none;stroke-width:0.35277778"
         id="path29519"
         inkscape:connector-curvature="0" />
      <path
         inkscape:connector-curvature="0"
         id="path29523"
         style="fill:#1c333a;fill-opacity:1;fill-rule:nonzero;stroke:none;stroke-width:0.35277778"
         d="m -24.979652,371.21931 c -0.421922,-0.47025 -1.000831,-0.70908 -1.720144,-0.70908 -0.606073,0 -1.121128,0.17462 -1.53035,0.51929 -0.334434,0.28151 -0.591256,0.6551 -0.766234,1.11336 l -0.02928,-1.50671 c -3.53e-4,-0.03 -0.02505,-0.0543 -0.05574,-0.0543 h -0.238125 c -0.03069,0 -0.05539,0.0251 -0.05539,0.0557 v 6.01274 c 0,0.0307 0.02469,0.0554 0.05539,0.0554 h 0.262114 c 0.03069,0 0.05574,-0.0247 0.05574,-0.0554 v -2.90547 c 0,-0.87207 0.208139,-1.57727 0.619125,-2.09656 0.407458,-0.51541 0.965552,-0.77647 1.658761,-0.77647 0.623005,0 1.1176,0.20779 1.470025,0.61736 0.354541,0.41275 0.534105,1.01142 0.534105,1.77977 v 3.38137 c 0,0.0307 0.02505,0.0554 0.05574,0.0554 h 0.262114 c 0.03069,0 0.05539,-0.0247 0.05539,-0.0554 v -3.39337 c 0,-0.883 -0.213078,-1.5688 -0.633236,-2.03764 z" />
      <path
         d="m -22.048104,371.20848 c 0.370064,-0.23142 0.796925,-0.34854 1.268236,-0.34854 0.540808,0 1.008239,0.14605 1.389239,0.43497 0.379942,0.28787 0.627239,0.68368 0.735542,1.17616 0.0053,0.0254 0.02787,0.0437 0.05398,0.0437 h 0.274108 c 0.01658,0 0.0321,-0.007 0.04269,-0.0201 0.01058,-0.0131 0.01517,-0.0296 0.01199,-0.0462 -0.113594,-0.59055 -0.398638,-1.06644 -0.848077,-1.41428 -0.448734,-0.34784 -1.002947,-0.52388 -1.647472,-0.52388 -0.547512,0 -1.04387,0.133 -1.47567,0.39511 -0.4318,0.26247 -0.771525,0.6343 -1.008944,1.10596 -0.237067,0.4699 -0.357364,1.01318 -0.357364,1.61467 0,0.60924 0.120297,1.15852 0.357364,1.63195 0.237419,0.47554 0.575027,0.8516 1.002594,1.11795 0.427567,0.26635 0.922161,0.40146 1.470025,0.40146 0.644878,0 1.199092,-0.17639 1.647472,-0.52388 0.449086,-0.34783 0.738364,-0.82373 0.85972,-1.41393 0.0035,-0.0162 -7.06e-4,-0.0335 -0.01129,-0.0462 -0.01058,-0.0131 -0.02646,-0.0208 -0.04304,-0.0208 h -0.262114 c -0.02611,0 -0.04868,0.0183 -0.05433,0.0441 -0.107597,0.49213 -0.357011,0.88794 -0.741186,1.17581 -0.38488,0.28892 -0.854428,0.43533 -1.395236,0.43533 -0.471311,0 -0.897819,-0.11924 -1.267883,-0.35454 -0.370417,-0.23531 -0.664281,-0.56833 -0.873125,-0.98955 -0.209197,-0.42298 -0.315736,-0.91334 -0.315736,-1.45767 0,-0.53658 0.106539,-1.02094 0.315736,-1.43969 0.208844,-0.41734 0.502355,-0.74648 0.872772,-0.9779"
         style="fill:#1c333a;fill-opacity:1;fill-rule:nonzero;stroke:none;stroke-width:0.35277778"
         id="path29527"
         inkscape:connector-curvature="0" />
      <path
         inkscape:connector-curvature="0"
         id="path29531"
         style="fill:#1c333a;fill-opacity:1;fill-rule:nonzero;stroke:none;stroke-width:0.35277778"
         d="m -12.336132,373.63785 c 0,0.54434 -0.106186,1.03293 -0.315736,1.45168 -0.208492,0.41769 -0.502356,0.74859 -0.872772,0.9839 -0.370064,0.23495 -0.800806,0.35454 -1.279878,0.35454 -0.471664,0 -0.900289,-0.11959 -1.274233,-0.3549 -0.374298,-0.23495 -0.669925,-0.56585 -0.87877,-0.98354 -0.20955,-0.41875 -0.315736,-0.90734 -0.315736,-1.45168 0,-0.53657 0.106186,-1.02059 0.315736,-1.43969 0.208492,-0.41698 0.504472,-0.74824 0.87877,-0.98389 0.374297,-0.23531 0.802922,-0.35454 1.274233,-0.35454 0.478719,0 0.909461,0.11923 1.279878,0.35454 0.370416,0.23565 0.66428,0.56691 0.872772,0.98389 0.20955,0.4191 0.315736,0.90312 0.315736,1.43969 m -0.992717,-2.72627 c -0.431447,-0.26634 -0.928158,-0.4011 -1.475669,-0.4011 -0.547864,0 -1.044575,0.13476 -1.476022,0.4011 -0.4318,0.26635 -0.77082,0.6403 -1.008592,1.11161 -0.237067,0.4699 -0.357364,1.01317 -0.357364,1.61466 0,0.60925 0.120297,1.15641 0.357364,1.62666 0.237772,0.47131 0.576792,0.84525 1.008592,1.1116 0.431447,0.26635 0.928158,0.40111 1.476022,0.40111 0.547511,0 1.044222,-0.13476 1.475669,-0.40111 0.4318,-0.26635 0.77082,-0.64029 1.008592,-1.1116 0.237067,-0.47061 0.357364,-1.01777 0.357364,-1.62666 0,-0.60113 -0.120297,-1.14441 -0.357364,-1.61466 -0.237772,-0.47167 -0.577144,-0.84526 -1.008592,-1.11161" />
      <path
         d="m -8.6867518,370.58181 h -0.2617611 c -0.5760861,0 -1.0216444,0.14534 -1.3243281,0.4318 -0.223308,0.21131 -0.394052,0.48719 -0.510116,0.82303 l -0.02716,-1.2005 c -7.06e-4,-0.0303 -0.0254,-0.0543 -0.05539,-0.0543 h -0.238478 c -0.03069,0 -0.05574,0.025 -0.05574,0.0557 v 6.01274 c 0,0.0307 0.02505,0.0557 0.05574,0.0557 h 0.262114 c 0.03069,0 0.05574,-0.0251 0.05574,-0.0557 v -3.02436 c 0,-0.83608 0.129822,-1.50001 0.385939,-1.97379 0.250472,-0.46249 0.7267218,-0.69709 1.4156968,-0.69709 h 0.2977444 c 0.030692,0 0.055739,-0.0251 0.055739,-0.0557 v -0.26176 c 0,-0.0307 -0.025047,-0.0557 -0.055739,-0.0557"
         style="fill:#1c333a;fill-opacity:1;fill-rule:nonzero;stroke:none;stroke-width:0.35277778"
         id="path29535"
         inkscape:connector-curvature="0" />
      <path
         inkscape:connector-curvature="0"
         id="path29539"
         style="fill:#1c333a;fill-opacity:1;fill-rule:nonzero;stroke:none;stroke-width:0.35277778"
         d="m -2.5190675,373.63785 c 0,0.54434 -0.1058333,1.03293 -0.3153833,1.45168 -0.2088445,0.41734 -0.5044722,0.74824 -0.8787695,0.98354 -0.3739444,0.23531 -0.8025694,0.3549 -1.2742333,0.3549 -0.4716638,0 -0.899936,-0.11959 -1.2738805,-0.3549 -0.3742972,-0.23495 -0.669925,-0.56797 -0.8787694,-0.98954 -0.20955,-0.42262 -0.3157361,-0.90911 -0.3157361,-1.44568 0,-0.53657 0.1061861,-1.02059 0.3157361,-1.43969 0.2084917,-0.41698 0.5041194,-0.74824 0.8787694,-0.98389 0.3742972,-0.23531 0.8029222,-0.35454 1.2738805,-0.35454 0.4713111,0 0.8999361,0.11923 1.2742333,0.35454 0.37465,0.23601 0.6702778,0.56691 0.8787695,0.98389 0.20955,0.4191 0.3153833,0.90312 0.3153833,1.43969 m -0.9863666,-2.73226 v 0 c -0.4282723,-0.26212 -0.9225139,-0.39511 -1.470025,-0.39511 -0.6212417,0 -1.1673417,0.17991 -1.6238361,0.53551 -0.3781778,0.29457 -0.6632222,0.67663 -0.8505472,1.13806 l -0.029633,-1.54763 c -7.056e-4,-0.0303 -0.0254,-0.0547 -0.055739,-0.0547 h -0.238125 c -0.030692,0 -0.055739,0.025 -0.055739,0.0557 v 8.39399 c 0,0.0307 0.025047,0.0557 0.055739,0.0557 h 0.2617611 c 0.030692,0 0.055739,-0.0251 0.055739,-0.0557 V 375.087 c 0.1770944,0.45826 0.4519083,0.83961 0.8202083,1.13595 0.4561417,0.36794 1.0149416,0.55421 1.6601722,0.55421 0.5478639,0 1.0424583,-0.13511 1.470025,-0.40111 0.4275666,-0.26635 0.7648222,-0.64241 1.0029472,-1.11795 0.2367138,-0.47414 0.3566583,-1.01918 0.3566583,-1.62031 0,-0.60889 -0.1199445,-1.15605 -0.3566583,-1.62631 -0.238125,-0.47166 -0.5753806,-0.84384 -1.0029472,-1.10595" />
      <path
         d="m -82.658853,372.49616 c 0,5.66879 -4.595636,10.26442 -10.264422,10.26442 -5.668786,0 -10.264425,-4.59563 -10.264425,-10.26442 0,-5.66879 4.595639,-10.26442 10.264425,-10.26442 5.668786,0 10.264422,4.59563 10.264422,10.26442"
         style="fill:#24bc65;fill-opacity:1;fill-rule:nonzero;stroke:none;stroke-width:0.35277778"
         id="path29543"
         inkscape:connector-curvature="0" />
      <path
         inkscape:connector-curvature="0"
         id="path29547"
         style="fill:#ffffff;fill-opacity:1;fill-rule:nonzero;stroke:none;stroke-width:0.35277778"
         d="m -93.298101,364.00452 -5.559425,4.93289 v 3.78742 l 5.559425,-4.93289 z" />
      <path
         d="m -98.857455,377.51041 4.530019,-4.01955 v -3.78742 l -4.530019,4.01955 z"
         style="fill:#ffffff;fill-opacity:1;fill-rule:nonzero;stroke:none;stroke-width:0.35277778"
         id="path29551"
         inkscape:connector-curvature="0" />
      <path
         inkscape:connector-curvature="0"
         id="path29555"
         style="fill:#ffffff;fill-opacity:1;fill-rule:nonzero;stroke:none;stroke-width:0.35277778"
         d="m -95.400727,375.44017 -3.456869,3.06987 h 3.456869 z" />
      <path
         d="m -92.548448,364.00453 5.559425,4.93289 v 3.78742 l -5.559425,-4.93289 z"
         style="fill:#ffffff;fill-opacity:1;fill-rule:nonzero;stroke:none;stroke-width:0.35277778"
         id="path29559"
         inkscape:connector-curvature="0" />
      <path
         inkscape:connector-curvature="0"
         id="path29563"
         style="fill:#ffffff;fill-opacity:1;fill-rule:nonzero;stroke:none;stroke-width:0.35277778"
         d="m -86.989094,377.51042 -4.530019,-4.01955 v -3.78742 l 4.530019,4.01955 z" />
      <path
         d="m -90.445928,375.44018 3.456869,3.06987 h -3.456869 z"
         style="fill:#ffffff;fill-opacity:1;fill-rule:nonzero;stroke:none;stroke-width:0.35277778"
         id="path29567"
         inkscape:connector-curvature="0" />
    </g>
  </g>
</svg>
