<?xml version="1.0" encoding="utf-8"?>
<!-- Generator: Adobe Illustrator 22.0.1, SVG Export Plug-In . SVG Version: 6.00 Build 0)  -->
<svg version="1.1" id="Layer_1" xmlns="http://www.w3.org/2000/svg" xmlns:xlink="http://www.w3.org/1999/xlink" x="0px" y="0px"
	 width="250.1px" height="44.25px" viewBox="0 0 250.1 44.25" enable-background="new 0 0 250.1 44.25" xml:space="preserve">
<g>
	<path fill="#CC0000" d="M194.52,22.77c-0.85,0.01-1.67-0.24-2.36-0.73l-1.29,1.22c0.48,0.61,0.75,1.35,0.77,2.12
		c0,2.13-1.73,3.86-3.86,3.86c-2.13,0-3.86-1.73-3.86-3.86c-0.01-0.76,0.24-1.51,0.69-2.12l-1.29-1.22
		c-0.67,0.44-1.44,0.7-2.24,0.73c-1.02,0.02-2-0.36-2.73-1.07c-0.72-0.74-1.13-1.74-1.13-2.77c0-2.13,1.73-3.86,3.86-3.86
		c0.84,0.02,1.66,0.31,2.32,0.83l1.29-1.24c-0.46-0.68-0.7-1.49-0.69-2.31c0-2.13,1.73-3.86,3.86-3.86c1.03-0.01,2.02,0.4,2.75,1.13
		c0.71,0.72,1.11,1.7,1.1,2.72c-0.02,0.83-0.29,1.64-0.77,2.31l1.29,1.24c0.66-0.56,1.5-0.85,2.36-0.81
		c2.12-0.21,4.01,1.33,4.23,3.46s-1.33,4.01-3.46,4.23c-0.26,0.03-0.51,0.03-0.77,0 M246.07,14.2h-40.24
		c-0.63-1.2-1.48-2.26-2.52-3.13c-1.56-1.35-3.64-1.92-5.66-1.56l-0.35,0.08l0.04-0.37c0.24-2.1-0.46-4.2-1.93-5.73
		c-3.71-4.2-10.12-4.6-14.32-0.89c-0.31,0.28-0.61,0.57-0.89,0.89c-1.4,1.56-2.08,3.64-1.89,5.73l0.06,0.37l-0.36-0.08
		c-2.07-0.35-4.18,0.22-5.79,1.56c-4.26,3.55-4.84,9.89-1.29,14.15c0.39,0.47,0.82,0.9,1.29,1.29c1.61,1.35,3.72,1.92,5.79,1.56
		l0.36-0.07l-0.05,0.37c-0.19,2.09,0.49,4.16,1.89,5.73c3.71,4.2,10.13,4.59,14.33,0.88c0.31-0.27,0.6-0.57,0.88-0.88
		c1.47-1.52,2.17-3.62,1.93-5.73L197.3,28l0.36,0.07c2.02,0.36,4.1-0.22,5.66-1.56c1.25-1.16,2.2-2.6,2.77-4.21h20.51
		c1.16-0.06,2.16,0.83,2.22,1.99c0,0.03,0,0.06,0,0.09c0,1.21-0.99,2.18-2.19,2.18c-0.01,0-0.02,0-0.03,0h-1.87V37.5h8.16v-8.73
		c0-1.2,0.97-2.17,2.17-2.18c0.02,0,0.03,0,0.05,0c1.25-0.04,2.31,0.92,2.39,2.17v8.78h8.07V26.61h-1.8
		c-1.2,0.03-2.19-0.91-2.23-2.11c0-0.02,0-0.03,0-0.05c0.01-1.17,0.97-2.12,2.14-2.11c0.03,0,0.06,0,0.09,0H246
		c2.22,0.01,4.04-1.78,4.05-4.01c0-0.01,0-0.01,0-0.02c0-2.24-1.81-4.06-4.05-4.07"/>
	<path d="M16.55,9.41L7.33,20.14V9.41H0.05v27.97h7.28v-8.62l2.98-3.13l7.52,11.75h9.05L15.25,20.42L25.59,9.41H16.55 M39.1,25.12
		c-0.12-2.27-1.73-4.16-3.96-4.16c-2.35,0-3.92,1.69-4.31,4.15L39.1,25.12L39.1,25.12z M30.84,28.84c0.12,2.79,1.72,4.62,4.55,4.62
		c1.6,0.09,3.1-0.79,3.8-2.23h6.23c-1.21,4.73-5.56,6.74-10.1,6.74c-6.62,0-11.12-4-11.12-10.81c0-6.23,4.97-10.69,10.97-10.69
		c7.29,0,10.94,5.48,10.62,12.38L30.84,28.84L30.84,28.84z M49.8,44.2h-3.13v-5.4h2.28c1.52,0,2.66-0.86,2.66-2.27
		c0-1.09-1.29-4.23-1.69-5.33l-5.25-14.15h7.08l3.86,13.24h0.08l3.86-13.24h6.77L58.3,39.18C56.68,43.68,54.31,44.2,49.8,44.2z
		 M86.96,22.07c2.22-1.01,3.66-3.21,3.69-5.64c0-5.84-5.29-7.09-10.11-7.01H67.45v27.98h13.43c6,0,10.89-2.04,10.89-8.7
		C91.89,25.64,89.9,22.9,86.96,22.07z M74.74,15.05h5.64c1.53,0,2.98,0.68,2.98,2.7c0,2.02-1.72,2.66-2.98,2.66h-5.64V15.05z
		 M80.58,31.54h-5.84v-6.42h5.84c2.19,0,3.92,0.82,3.92,3.29C84.5,30.72,82.89,31.54,80.58,31.54z M107.02,35.46
		c0.05,0.66,0.18,1.31,0.39,1.93h6.65c-0.78-1.61-0.78-3.49-0.78-5.21v-8.91c0-5.76-4.66-6.81-9.48-6.81
		c-2.23-0.07-4.44,0.41-6.43,1.41c-1.96,1.11-3.17,3.19-3.17,5.44l0.01,0.01h6.23c0.32-1.75,1.49-2.57,3.33-2.57
		c1.38,0,3.22,0.59,3.22,2.12c0,1.24-0.62,1.64-1.76,1.88c-4.63,0.97-11.83,0.46-11.83,7.08c0,4.22,3.08,6.15,6.94,6.15
		C102.76,37.96,105.3,37.26,107.02,35.46z M102.78,28.96c1.45-0.39,3.18-0.51,4.12-1.09c0.16,4.19-0.9,6-4.07,6l-0.01-0.02
		c-1.49,0-2.78-0.71-2.78-2.31C100.04,29.94,101.33,29.35,102.78,28.96z M136.82,24.34v13.05h-6.63v-9.84c0-2.79,0.31-5.6-3.33-5.6
		c-2.51,0-3.6,2.12-3.6,4.35v11.09h-6.66V17.05h6.43v2.79h0.08c1.22-2.08,3.96-3.37,6.38-3.37
		C136.27,16.46,136.82,21.4,136.82,24.34z M146.79,37.38h-6.66V9.41h6.66v14.42l6.07-6.78h7.71l-7.44,7.68l8.39,12.65h-8.04
		l-4.97-8.18l-1.72,1.68V37.38z"/>
</g>
</svg>
