<svg width="160" height="24" viewBox="0 0 160 24" fill="none" xmlns="http://www.w3.org/2000/svg">
<g id="Logo" clip-path="url(#clip0_2866_29105)">
<path id="Mark" d="M4.85854 15.5825C3.59638 15.5825 2.43861 14.8707 1.87396 13.7367L0.0376602 10.0641C-0.0714739 9.84105 0.0898547 9.58008 0.336593 9.58008H9.7411C11.0033 9.58008 12.161 10.2966 12.7257 11.4259L14.562 15.1032C14.6711 15.3262 14.5098 15.5872 14.2631 15.5872H4.85854V15.5825ZM18.747 17.5848H2.79448L4.87278 21.7462C5.43743 22.8755 6.59045 23.5919 7.85735 23.5919H23.8052L21.7269 19.4306C21.1622 18.3013 20.0092 17.5896 18.7423 17.5896M21.7269 5.74141L23.8052 1.58008H7.85735C6.5952 1.58008 5.43743 2.29657 4.87278 3.42587L2.79448 7.5872H18.7423C20.0045 7.5872 21.1622 6.87545 21.7269 5.74141Z" fill="#1751E8"/>
<path id="Type" fill-rule="evenodd" clip-rule="evenodd" d="M153.693 14.4674V14.6572L159.477 23.5919H156.521L151.677 15.8197H148.72V23.5919H146.239V0H148.72V13.5564H151.582L156.208 7.23606H159.069L153.693 14.4674ZM43.6766 13.5232H35.0598V21.2954H45.4085V23.5872H32.5117V1.57061H45.0621V3.90039H35.0598V11.2266H43.6766V13.5232ZM53.9636 21.2622H54.1534L59.0597 7.23606H61.7976L55.724 23.5872H52.4548L46.3527 7.23606H49.0241L53.9636 21.2622ZM70.7563 6.82326C66.4146 6.82326 62.8322 10.2491 62.8322 15.4733C62.8322 20.6975 65.9449 23.9953 70.9129 23.9953C74.6899 23.9953 77.3945 21.8268 78.3055 18.7758L75.8856 18.2112C75.3494 20.4745 73.2426 21.7983 70.9461 21.7983C67.5487 21.7983 65.4087 19.7533 65.3802 16.1044H78.5285V15.1934C78.5285 10.2871 75.6958 6.828 70.761 6.828L70.7563 6.82326ZM65.4419 14.0878C65.6317 11.0036 68.0849 9.05813 70.7563 9.05813C73.4277 9.05813 75.8192 10.6951 75.9757 14.0878H65.4419ZM84.2082 9.96916H84.398V9.96441C84.8677 8.57889 86.4715 6.81851 88.863 6.81851H89.9354V9.30486H88.4549C85.4703 9.30486 84.2414 11.7295 84.2414 14.8422V23.5872H81.755V7.23132H84.2082V9.96916ZM103.98 12.1424V11.9526C105.741 11.0083 106.78 9.37132 106.78 7.20288C106.78 3.99528 104.294 1.57061 100.113 1.57061H93.0053V23.5872H100.744C104.455 23.5872 107.539 21.2907 107.539 17.3286C107.539 14.2159 105.461 12.6406 103.985 12.1376L103.98 12.1424ZM95.5534 3.8387H100.113C102.472 3.8387 104.17 5.22423 104.17 7.39268C104.17 9.56112 102.505 11.1032 100.018 11.1032H95.5534V3.8387ZM100.303 21.3571H95.5534V13.2432H100.018C102.566 13.2432 104.896 14.3773 104.896 17.2717C104.896 20.1661 102.913 21.3618 100.303 21.3618V21.3571ZM122.875 9.87426H123.064V7.23607H125.579V23.5872H123.064V21.0059H122.969C122.561 21.6702 121.052 23.9953 117.498 23.9953C112.81 23.9953 109.508 20.4698 109.508 15.4401C109.508 10.4104 112.654 6.82326 117.309 6.82326C120.701 6.82326 122.405 9.02492 122.875 9.87426ZM112.056 15.4733C112.056 19.2788 114.476 21.7651 117.622 21.7651C121.052 21.7651 123.159 18.9039 123.159 15.4733C123.159 11.4164 120.801 9.0866 117.593 9.0866C114.386 9.0866 112.056 11.6679 112.056 15.4733ZM136.763 6.82325C134.215 6.82325 132.455 8.14709 131.762 9.62277H131.572V7.23131H129.086V23.5872H131.572V13.8363C131.572 11.1317 133.584 9.14828 136.166 9.14828C138.462 9.14828 140.379 10.847 140.379 13.4567V23.5824H142.865V13.2954C142.865 9.67971 140.569 6.81376 136.763 6.81376V6.82325Z" fill="#231F20"/>
</g>
<defs>
<clipPath id="clip0_2866_29105">
<rect width="159.478" height="24" fill="white"/>
</clipPath>
</defs>
</svg>
