<?xml version="1.0" encoding="utf-8"?>
<svg xmlns="http://www.w3.org/2000/svg" width="312px" height="39px">
<path fill="#E17025" d="M20.79,7.85l2.15-6h-1.3c-0.96,0-2.74,2.83-2.74,2.83h-0.25V3.74c0.3-0.37,0.46-0.82,0.47-1.3c0.14-0.91-0.48-1.75-1.39-1.89c-0.78,0-1.36,0.82-1.36,1.83c-0.01,0.46,0.13,0.92,0.4,1.3v0.95h-0.31c0,0-1.53-2.78-2.5-2.78c-0.58,0-1.3,0-1.3,0l2.19,5.98c0.93-0.33,1.91-0.49,2.89-0.49c1.05,0,2.09,0.19,3.07,0.54 M40.05,34.91h265.36v2.18H40.05V34.91z"/>
<path fill="#0F4C8B" d="M26.77,8.33c-1.02,0.24-1.99,0.69-2.84,1.3c1,0.92,1.85,1.99,2.5,3.18c2.23-0.45,2.83,0.08,3.1-0.17c1.14-1.12,1.66-2.73,1.41-4.31c-1.02-1.53-2.27-2.89-3.71-4.05c0,0,0,0.12,0,0.19c0.22,1.7-0.67,2.98-0.49,3.89 M30.29,14.71c-0.99-0.22-2.01-0.25-3.01-0.1c0.5,1.29,0.83,2.64,0.99,4.02c2.02,0.56,2.32,1.3,2.67,1.13c1.54-0.53,2.72-1.78,3.16-3.35c-0.3-1.79-0.83-3.53-1.58-5.19c-0.04,0.08-0.07,0.17-0.1,0.26c-0.53,1.63-1.89,2.39-2.13,3.27 M34.37,19.25c-0.14,0.1-0.25,0.22-0.34,0.36c-1,1.4-2.53,1.72-3.01,2.5c-0.8-0.46-1.68-0.79-2.59-0.96c-0.06,1.37-0.3,2.72-0.7,4.03c1.97,1.19,2.04,2,2.41,2c1.36-0.02,2.64-0.62,3.53-1.65c0.48-1.81,0.73-3.68,0.73-5.55c0-0.22,0-0.45,0-0.67 M26.94,27.19c-0.57,1.26-1.33,2.43-2.26,3.46c1,1.83,0.71,2.52,1.02,2.68c1.08,0.57,2.35,0.71,3.53,0.38c1.34-1.49,2.43-3.17,3.25-4.99c-1.47,0.6-2.85,0.22-3.61,0.65C28.37,28.53,27.71,27.79,26.94,27.19 M8.63,8.33c1.02,0.25,1.98,0.69,2.84,1.3c-1,0.91-1.85,1.98-2.5,3.16c-2.23-0.45-2.78,0.08-3.1-0.18C4.73,11.5,4.2,9.91,4.45,8.33c1.03-1.53,2.28-2.9,3.71-4.06c0,0,0,0.13,0,0.19C7.94,6.18,8.83,7.45,8.65,8.36 M5.1,14.73c0.99-0.22,2.01-0.25,3.01-0.1c-0.51,1.29-0.84,2.63-0.99,4.01c-2.02,0.56-2.32,1.3-2.67,1.14C2.91,19.25,1.72,18,1.29,16.43c0.3-1.79,0.82-3.53,1.57-5.19c0.05,0.08,0.08,0.16,0.1,0.25C3.5,13.08,4.89,13.85,5.1,14.73 M1,19.25c0.14,0.1,0.26,0.22,0.35,0.36c1,1.41,2.59,1.72,3.01,2.5c0.82-0.47,1.72-0.8,2.66-0.96c0.04,1.37,0.26,2.72,0.64,4.03c-1.96,1.21-2.02,2.01-2.4,2c-1.37-0.03-2.66-0.65-3.53-1.7C1.25,23.7,1.01,21.86,1,20.01c0-0.23,0-0.45,0-0.69 M8.42,27.2c0.58,1.26,1.34,2.43,2.27,3.46c-1,1.82-0.71,2.52-1.04,2.68c-1.06,0.56-2.3,0.69-3.46,0.36c-1.34-1.48-2.44-3.17-3.25-4.99c1.45,0.61,2.84,0.23,3.61,0.66c0.51-0.84,1.16-1.57,1.93-2.18 M10.74,6.12c-0.04-0.54,0.38-1.01,0.92-1.05c0.54-0.04,1.01,0.38,1.05,0.92c0.04,0.54-0.38,1.01-0.92,1.05c-0.03,0-0.05,0-0.08,0c-0.53-0.01-0.97-0.44-0.97-0.97 M22.85,6.12c0.01-0.54,0.45-0.97,0.99-0.97c0.54,0.06,0.93,0.55,0.87,1.09c-0.05,0.45-0.41,0.81-0.87,0.87C23.29,7.1,22.85,6.66,22.85,6.12L22.85,6.12 M23.53,34.37c-0.02-0.78-0.15-1.55-0.4-2.3c-1.14,0.87-2.48,1.46-3.89,1.72c-0.03,0.64-0.16,1.27-0.36,1.88h-0.61c-0.08-0.41-0.3-0.71-0.56-0.71s-0.49,0.3-0.57,0.71h-0.57c-0.21-0.61-0.33-1.24-0.36-1.88c-1.41-0.26-2.74-0.85-3.89-1.71c-0.24,0.74-0.38,1.52-0.4,2.3c-0.89,0-1.97,1.12-3.66,1.3c1.54,1.23,3.3,2.17,5.19,2.76c1.24-0.22,2.35-0.92,3.07-1.95h0.69c0.09,0.39,0.31,0.66,0.57,0.66s0.47-0.27,0.56-0.66h0.69c0.73,1.02,1.83,1.71,3.06,1.93c1.88-0.59,3.64-1.52,5.19-2.75c-1.7-0.14-2.76-1.3-3.67-1.3 M45.58,23.27v2.18c0,1.17,0,1.97,1.18,2.19v1h-6.04v-1c1.19-0.22,1.19-1.02,1.19-2.19V12.56c0-1.17,0-1.97-1.19-2.19v-1h8.86c4.69,0,6.8,2.49,6.8,5.54c0,4.77-4.45,6.39-8.26,7.59L45.58,23.27z M45.58,20.98c2.59-0.95,6.9-2.37,6.9-5.69c0-2.37-1.96-3.59-4.12-3.59h-2.78L45.58,20.98L45.58,20.98z M73.02,26.37c0.31,0.68,0.93,1.17,1.67,1.3v1h-4.75l-4.94-8.31h-2.88v5.1c0,1.17,0,1.97,1.18,2.19v1h-6.04v-1c1.19-0.22,1.19-1.02,1.19-2.19V12.56c0-1.17,0-1.97-1.19-2.19v-1h9.69c3.24,0,6.29,1.67,6.29,5.19c0.03,2.57-1.81,4.77-4.34,5.19L73.02,26.37z M65.5,18.01c2.05,0,4.07-0.73,4.07-3.07c0-2.35-2.15-3.18-4.24-3.24h-3.2v6.32C62.13,18.01,65.5,18.01,65.5,18.01z M74.42,19.01c-0.07-5.48,4.32-9.98,9.8-10.04c0.17,0,0.34,0,0.51,0.01c5.4-0.22,9.94,3.98,10.16,9.38c0.01,0.18,0.01,0.35,0.01,0.53c0.25,5.39-3.91,9.96-9.3,10.21c-0.32,0.02-0.65,0.01-0.97,0c-5.33,0.3-9.9-3.79-10.2-9.12c-0.02-0.31-0.02-0.61-0.01-0.92 M91.02,18.86c0-3.89-2.11-7.37-6.26-7.37c-4.45,0-6.48,3.55-6.48,7.63s2.02,7.48,6.34,7.48s6.37-3.72,6.37-7.78 M99.67,21.41l0.83,0.82c-0.38,0.37-0.6,0.87-0.62,1.4c0,2.1,2.7,2.94,4.37,2.94c1.92,0,4.59-0.95,4.59-3.24c0-5.1-12.14-1.5-12.14-8.79c0-4.14,4.1-5.56,7.57-5.56c3.08-0.13,6.05,1.22,7.96,3.64l-3.07,2.7l-0.92-0.62c0.16-0.24,0.25-0.52,0.25-0.8c0-1.92-2.72-2.43-4.21-2.43c-1.49,0-3.89,0.32-3.89,2.28c0,4.11,12.36,1.19,12.36,8.99c0,4.49-4.46,6.32-8.34,6.32c-4.29,0-6.48-1.53-8.69-4.97L99.67,21.41z M119.88,23.27v2.18c0,1.17,0,1.97,1.19,2.19v1h-6.04v-1c1.18-0.22,1.18-1.02,1.18-2.19V12.56c0-1.17,0-1.97-1.18-2.19v-1h8.84c4.69,0,6.8,2.49,6.8,5.54c0,4.77-4.45,6.39-8.25,7.59L119.88,23.27z M119.88,20.98c2.59-0.95,6.91-2.37,6.91-5.69c0-2.37-1.97-3.59-4.12-3.59h-2.79V20.98z M131.57,27.64c1.18-0.22,1.18-1.02,1.18-2.19V12.56c0-1.17,0-1.97-1.18-2.19v-1h14.89v3.89h-1.3c-0.35-1.54-0.78-1.6-2.2-1.57h-6.48v4.97h4.72c1.02,0,1.92-0.13,2.06-1.3h1.3v5.02h-1.3c-0.14-1.22-1.04-1.3-2.06-1.3h-4.72v7.34h7.13c1.3,0,2.05-0.35,2.28-1.75h1.3v4.07h-15.56L131.57,27.64z M165.34,26.37c0.31,0.68,0.93,1.17,1.67,1.3v1h-4.75l-4.93-8.31h-2.89v5.1c0,1.17,0,1.97,1.18,2.19v1h-6.04v-1c1.19-0.22,1.19-1.02,1.19-2.19V12.56c0-1.17,0-1.97-1.19-2.19v-1h9.69c3.24,0,6.29,1.67,6.29,5.19c0.03,2.57-1.81,4.77-4.34,5.19L165.34,26.37z M157.82,18.01c2.05,0,4.07-0.73,4.07-3.07c0-2.35-2.15-3.18-4.23-3.24h-3.22v6.32C154.45,18.01,157.82,18.01,157.82,18.01z M173.8,25.45c0,1.17,0,1.97,1.18,2.19v1h-6.04v-1c1.19-0.22,1.19-1.02,1.19-2.19V12.56c0-1.17,0-1.97-1.19-2.19v-1h6.04v1c-1.18,0.22-1.18,1.02-1.18,2.19V25.45z M193.48,9.37v3.99h-1.3c-0.18-1.5-0.8-1.67-2.02-1.67h-2.88v13.76c0,1.17,0,1.97,1.18,2.19v1h-6.04v-1c1.19-0.22,1.19-1.02,1.19-2.19V11.69h-2.89c-1.22,0-1.83,0.17-2.02,1.67h-1.3V9.37L193.48,9.37L193.48,9.37z M197.08,12.54c-0.38-0.7-1-2.05-1.84-2.17v-1h6.16v1c-0.82,0-0.95,0.65-0.52,1.47l3.27,6.37l3.05-5.67c0.43-0.84,0.92-2.07-0.57-2.17v-1h5.56v1c-1.02,0.25-1.3,0.89-1.75,1.72l-4.84,9.08v4.28c0,1.17,0,1.97,1.19,2.19v1h-6.08v-1c1.18-0.22,1.18-1.02,1.18-2.19v-4.34L197.08,12.54z M227.1,27.5c1.18-0.22,1.18-1.02,1.18-2.19V12.42c0-1.17,0-1.97-1.18-2.19v-1h10.44c2.59-0.19,4.85,1.76,5.03,4.36c0,0.07,0.01,0.14,0.01,0.21c-0.08,2.02-1.49,3.73-3.45,4.2l0,0c2.61,0.24,4.62,2.42,4.64,5.04c0,3.76-3.24,5.41-6.64,5.41H227.1V27.5z M235.51,16.84c1.87,0,3.4-0.54,3.4-2.67c0-1.92-1.5-2.59-3.15-2.59h-3.81v5.29L235.51,16.84z M235.84,26.18c2.17,0,4.27-0.87,4.27-3.32c0-2.7-2.22-3.7-4.62-3.7h-3.54v7.02H235.84z M262.42,26.09c0.27,0.71,0.49,1.3,1.3,1.41v1h-6.32v-1c1.37-0.22,1.23-0.89,0.78-2l-1.65-4.02h-6.55l-1.5,4.02c-0.43,1.1-0.4,1.67,0.83,2v1h-5.29v-1c1,0,1.3-1.22,1.65-1.97l6.24-16.3h3.89L262.42,26.09z M255.72,19.16l-2.59-6.39l-2.43,6.39H255.72z M269.44,12.98v12.33c0,1.17,0,1.97,1.18,2.19v1h-5.07v-1c1.19-0.22,1.19-1.02,1.19-2.19V12.42c0-1.17,0-1.97-1.19-2.19v-1h5.51l8.44,8.58v-5.39c0-1.17,0-1.97-1.19-2.19v-1h5.07v1c-1.18,0.22-1.18,1.02-1.18,2.19v12.89c0,1.17,0,1.97,1.18,2.19v1h-5.07v-1c1.19-0.22,1.19-1.02,1.19-2.19v-2.53L269.44,12.98z M302.8,26.33c0.31,0.58,0.84,1,1.48,1.17v1h-6.48v-1c1.3-0.12,1.1-0.6,0.73-1.17l-5.19-7.78l-2.59,2.59v4.24c0,1.17,0,1.97,1.18,2.19v1h-6.02v-1c1.19-0.22,1.19-1.02,1.19-2.19V12.42c0-1.17,0-1.97-1.19-2.19v-1h6.04v1c-1.18,0.22-1.18,1.02-1.18,2.19v5.28l5.74-5.99c0.86-0.91,0.45-1.3-0.6-1.48v-1h7.04v1c-1.3,0-2.07,0.89-2.97,1.75l-4.07,3.89L302.8,26.33z M308.41,5.95c-1.43,0-2.59,1.16-2.59,2.59s1.16,2.59,2.59,2.59S311,9.97,311,8.54S309.84,5.95,308.41,5.95 M308.41,6.47c1.15-0.01,2.08,0.92,2.09,2.06c0.01,1.15-0.92,2.08-2.06,2.09s-2.08-0.92-2.09-2.06c0,0,0-0.01,0-0.01C306.34,7.4,307.27,6.47,308.41,6.47 M308.07,8.68h0.18l0.64,1.05h0.75V9.54c-0.12,0-0.14,0-0.23-0.19l-0.44-0.73c0.31-0.07,0.54-0.34,0.54-0.66c0-0.44-0.35-0.71-0.89-0.71h-1.3v0.21l0,0c0.06,0,0.1,0,0.1,0.18v1.71c0,0.13,0,0.18-0.1,0.19l0,0v0.19h0.97V9.54l0,0c-0.08,0-0.09,0-0.09-0.18L308.07,8.68z M308.07,8.31V7.62h0.27c0.3,0,0.44,0.12,0.44,0.34c0,0.22-0.1,0.38-0.44,0.38L308.07,8.31z"/></svg>