<?xml version="1.0" encoding="utf-8"?>
<!-- Generator: Adobe Illustrator 25.2.0, SVG Export Plug-In . SVG Version: 6.00 Build 0)  -->
<svg version="1.1" id="Layer_1" xmlns="http://www.w3.org/2000/svg" xmlns:xlink="http://www.w3.org/1999/xlink" x="0px" y="0px"
	 viewBox="0 0 850 200" style="enable-background:new 0 0 850 200;" xml:space="preserve">
<style type="text/css">
	.st0{fill:#000033;}
	.st1{fill:#CC0000;}
</style>
<g>
	<polygon class="st0" points="101.7,92.4 75.8,92.4 67.8,67.8 59.8,92.4 33.9,92.4 54.8,107.7 46.8,132.3 67.8,117.1 88.8,132.3 
		80.8,107.7 	"/>
</g>
<path class="st1" d="M67.5,51c13.3,0,25.8,5.1,35.2,14.5c9.4,9.3,14.5,21.8,14.5,35.1c0,13.3-5.1,25.7-14.5,35
	c-9.3,9.3-21.8,14.4-35.1,14.4c-13.3,0-25.8-5.2-35.1-14.5c-9.3-9.3-14.4-21.8-14.4-35.2C18.1,73.1,40.2,51,67.5,51L67.5,51
	 M67.4,46.6C67.4,46.6,67.4,46.6,67.4,46.6c-29.5,0-53.7,24.2-53.7,53.7c0,30.1,23.9,54,53.9,54.1c0,0,0,0,0,0
	c29.8,0,53.8-24,53.9-53.8C121.5,70.7,97.4,46.6,67.4,46.6L67.4,46.6z"/>
<path class="st0" d="M190.4,70.2h-53.1l-0.5,19l1.5,0.1l0.1-0.1c5.6-11.6,11-17,17.1-17h3.2v51.3c0,3.6-2.9,5.2-10,5.5l-0.2,0v1.5
	h30.8V129l-0.2,0c-7.1-0.2-10-1.8-10-5.5V72.3h3.2c6,0,11.5,5.4,17.2,17l0.1,0.1l1.5-0.1L190.4,70.2z"/>
<path class="st0" d="M222.8,120l-0.1,0.2c-3.5,4.6-6.6,7.2-12,7.2c-8.3,0-13.3-6.3-13.3-16.9v-1.9h26.4l0-0.2
	c0.4-5.4-1.1-10.3-4.2-13.6c-3-3.2-7.4-4.9-12.7-4.9c-11,0-19.6,9.3-19.6,21.2c0,11.9,8.1,20.2,19.6,20.2c7.4,0,12.8-3.2,17.1-10.1
	l0.1-0.2L222.8,120z M197.5,106.6c0.6-9.5,3.7-14.7,8.7-14.7c2.2,0,4,0.7,5.2,2.1c2.1,2.3,2.9,6.5,2.3,12.7H197.5z"/>
<path class="st0" d="M268.5,129.1c-3.6-0.7-4.9-1.7-8.7-7l-10.1-14l6.6-8.2c4.5-5.5,6.9-7.2,11.7-8l0.2,0v-1.4h-17v1.4l0.2,0
	c2.3,0.4,3.6,1.2,4.1,2.3c0.5,1.4-0.2,3.3-2.3,6l-4.7,6.1l-6.2-9.1c-1.2-1.8-1.8-3-1.5-3.8c0.3-0.7,1.5-1.2,3.8-1.5l0.2,0v-1.4
	h-20.9v1.4l0.2,0c4,0.6,5.3,1.6,9.1,6.9l9.5,13.1l-7.7,9.4c-4.3,5.2-6.8,7-11,7.8l-0.2,0v1.4h17.2v-1.4l-0.2,0
	c-2.8-0.4-4.4-1.2-4.9-2.4c-0.5-1.3,0.2-3.1,2.2-5.7l5.8-7.3l6.8,10c1.2,1.8,1.9,3,1.5,3.9c-0.3,0.8-1.7,1.3-4.3,1.6l-0.2,0v1.4
	h20.9v-1.4L268.5,129.1z"/>
<g>
	<path class="st0" d="M309.5,126.7c-2.3,1-3.9,1.1-4.9,0.4c-0.9-0.6-1.4-2-1.4-4.2v-20c0-8.6-4.9-12.8-15.1-12.8
		c-9.7,0-16.2,3.6-16.2,9c0,3.1,2.2,5.3,5.2,5.3c3.3,0,5.4-2,5.4-5.3c0-1.6-0.8-3.2-2.2-4.6c1.5-1.4,4.1-2.3,6.8-2.3
		c4.7,0,6.8,2.8,6.8,9.3v6.1c-0.7,0.3-2.2,0.5-4.1,0.9c-4,0.7-10,1.7-14.2,4.1c-3.3,1.8-5.3,5.1-5.3,8.9c0,2.6,1,5,2.7,6.7
		c2,2,4.9,3,8.5,3c4.6,0,8.8-2.2,12.7-6.8h0.1c0.6,4.8,2.6,6.6,7.3,6.6c3.1,0,5.3-1,8.4-3l0.1-0.1l-0.5-1.2L309.5,126.7z
		 M293.9,109.5V122c-2.1,2.9-4.9,4.7-7.4,4.7c-4,0-6.2-2.4-6.2-6.8C280.4,114.5,282.3,111.8,293.9,109.5z"/>
	<path class="st0" d="M329.6,105.4c-7.2-1.9-9.9-3.8-9.9-7.1c0-3.7,2.8-6.4,6.8-6.4c5.2,0,7.7,3.2,12.5,11.1l0.1,0.1h1.5V89.8h-1.2
		l-2.1,2.6c-2.8-1.6-6.4-2.6-9.7-2.6c-8.8,0-14.7,5.2-14.7,12.8c0,6.9,4.4,9.5,12.6,11.8c8.2,2.3,10.8,4.3,10.8,8.3
		c0,3.2-2.5,6.4-7.2,6.4c-5.9,0-9.1-2.7-14.8-12.5l-0.1-0.1h-1.5v14.7h1.2l2.8-3c2.7,1.7,8.2,3,11.3,3c10.2,0,14.7-6.7,14.7-13.4
		C342.7,110.5,337.7,107.6,329.6,105.4z"/>
</g>
<g>
	<path class="st0" d="M418.6,114c-4.2,9.2-11.5,14.3-20.4,14.3c-15.5,0-20.9-15.1-20.9-28c0-14.3,4.9-29.5,18.7-29.5
		c8.6,0,15,5.9,19.9,18.6l0,0.1h1.5V68.3h-1.1l-3.7,4c-4.6-2.3-9.8-3.5-15.4-3.5c-18,0-31.6,14-31.6,32.5c0,9.1,2.8,16.9,8.1,22.3
		c5.3,5.5,12.7,8.4,21.4,8.4c15.5,0,22.5-10.7,25.3-17l0.1-0.2l-1.8-1L418.6,114z"/>
	<path class="st0" d="M464.7,127.8l-0.5-1.2l-0.2,0.1c-2.3,1-3.9,1.1-4.9,0.4c-0.9-0.6-1.4-2-1.4-4.2v-20c0-8.6-4.9-12.8-15.1-12.8
		c-9.7,0-16.2,3.6-16.2,9c0,3.1,2.2,5.3,5.2,5.3c3.3,0,5.4-2,5.4-5.3c0-1.6-0.8-3.2-2.2-4.6c1.5-1.4,4.1-2.3,6.8-2.3
		c4.7,0,6.8,2.8,6.8,9.3v6.1c-0.7,0.3-2.2,0.5-4.1,0.9c-4,0.7-10,1.7-14.2,4.1c-3.3,1.8-5.3,5.1-5.3,8.9c0,2.6,1,5,2.7,6.7
		c2,2,4.9,3,8.5,3c4.6,0,8.8-2.2,12.7-6.8h0.1c0.6,4.8,2.6,6.6,7.3,6.6c3.1,0,5.3-1,8.4-3L464.7,127.8z M448.4,109.5V122
		c-2.1,2.9-4.9,4.7-7.4,4.7c-4,0-6.2-2.4-6.2-6.8C434.9,114.5,436.8,111.8,448.4,109.5z"/>
	<path class="st0" d="M490.7,89.8c-4.6,0-8.8,1.9-12.9,5.9v-5.4L462.5,91v1.4l0.2,0c4.9,0.1,5.9,1.7,5.9,4.1v46c0,2.5-0.9,3-5.9,3.1
		l-0.2,0v1.4h23.7v-1.4l-0.2,0c-6.6-0.1-8-0.6-8-3.1v-13.6c3.3,1.7,6.2,2.4,10.1,2.4c10.8,0,18.4-8.7,18.4-21.3
		C506.6,97.7,500.4,89.8,490.7,89.8z M478,97.9c2.8-2.9,5.4-4.2,8.4-4.2c6.1,0,10,6.6,10,16.7c0,12.4-3.3,18.7-9.8,18.7
		c-4.2,0-7-2.1-8.7-6.4V97.9z"/>
	<path class="st0" d="M520.2,83.4c3.5,0,5.9-2.4,5.9-6c0-3.6-2.3-5.9-5.9-5.9c-3.5,0-5.8,2.5-5.8,6.1
		C514.4,81.1,516.7,83.4,520.2,83.4z"/>
	<path class="st0" d="M525.4,126V90.3L509.7,91v1.4l0.2,0c5.3,0.1,6.1,2,6.1,4.1V126c0,2.4-1.1,3-6.1,3.1l-0.2,0v1.4h22v-1.4l-0.2,0
		C526.1,129,525.4,128.4,525.4,126z"/>
	<path class="st0" d="M560.5,121.8c-2.1,3.8-4.4,5.7-7,5.7c-3.4,0-4.8-1.9-4.8-6.9V93.9h12.2v-3.1h-12.2V76.4l-9.4,3.4v10.9l-8,1.9
		V94h8v25.7c0,7.8,3.4,11.6,10.5,11.6c5.3,0,9.2-2.8,12.1-8.7l0.1-0.2l-1.4-0.9L560.5,121.8z"/>
	<path class="st0" d="M603.2,126.7c-2.3,1-3.9,1.1-4.9,0.4c-0.9-0.6-1.4-2-1.4-4.2v-20c0-8.6-4.9-12.8-15.1-12.8
		c-9.7,0-16.2,3.6-16.2,9c0,3.1,2.2,5.3,5.2,5.3c3.3,0,5.4-2,5.4-5.3c0-1.6-0.8-3.2-2.2-4.6c1.5-1.4,4.1-2.3,6.8-2.3
		c4.7,0,6.8,2.8,6.8,9.3v6.1c-0.7,0.3-2.2,0.5-4.1,0.9c-4,0.7-10,1.7-14.2,4.1c-3.3,1.8-5.3,5.1-5.3,8.9c0,2.6,1,5,2.7,6.7
		c2,2,4.9,3,8.5,3c4.6,0,8.8-2.2,12.7-6.8h0.1c0.6,4.8,2.6,6.6,7.3,6.6c3.1,0,5.3-1,8.4-3l0.1-0.1l-0.5-1.2L603.2,126.7z
		 M587.6,109.5V122c-2.1,2.9-4.9,4.7-7.4,4.7c-4,0-6.2-2.4-6.2-6.8C574.1,114.5,576,111.8,587.6,109.5z"/>
	<path class="st0" d="M620.9,126V68.5L604.8,69l-0.2,0v1.4l0.2,0c6,0.2,6.7,1.5,6.7,4.2V126c0,2.3-0.8,3-6,3.1l-0.2,0v1.4H627v-1.4
		l-0.2,0C621.7,129,620.9,128.3,620.9,126z"/>
	<path class="st0" d="M680,98.6c10.7-1.1,17.1-6.2,17.1-13.8c0-12.7-14.7-14.5-23.5-14.5h-27.2v1.4l0.2,0c5.7,0.2,9.2,1.2,9.2,5.5
		v46.4c0,3.2-1.5,5.2-9.2,5.5l-0.2,0v1.5h28c22.7,0,25.1-12,25.1-17.2C699.6,104.4,692.6,99.2,680,98.6z M673.8,97.7h-7.4V72.3h7.1
		c11.4,0,12.9,6.8,12.9,12.8C686.3,93.8,682.4,97.7,673.8,97.7z M674.8,128.5h-8.5V99.8h7.7c11.9,0,14.4,7.5,14.4,13.7
		C688.4,123,686.2,128.5,674.8,128.5z"/>
	<path class="st0" d="M743.1,126.7c-2.3,1-3.9,1.1-4.9,0.4c-0.9-0.6-1.4-2-1.4-4.2v-20c0-8.6-4.9-12.8-15.1-12.8
		c-9.7,0-16.2,3.6-16.2,9c0,3.1,2.2,5.3,5.2,5.3c3.3,0,5.4-2,5.4-5.3c0-1.6-0.8-3.2-2.2-4.6c1.5-1.4,4.1-2.3,6.8-2.3
		c4.7,0,6.8,2.8,6.8,9.3v6.1c-0.7,0.3-2.2,0.5-4.1,0.9c-4,0.7-10,1.7-14.2,4.1c-3.3,1.8-5.3,5.1-5.3,8.9c0,2.6,1,5,2.7,6.7
		c2,2,4.9,3,8.5,3c4.6,0,8.8-2.2,12.7-6.8h0.1c0.6,4.8,2.6,6.6,7.3,6.6c3.1,0,5.3-1,8.4-3l0.1-0.1l-0.5-1.2L743.1,126.7z
		 M727.5,109.5V122c-2.1,2.9-4.9,4.7-7.4,4.7c-4,0-6.2-2.4-6.2-6.8C714,114.5,715.9,111.8,727.5,109.5z"/>
	<path class="st0" d="M785.6,126v-23.7c0-7.9-3.8-12.2-10.8-12.2c-5.6,0-10.8,3.2-14.7,9.1v-8.8L744.8,91v1.4l0.2,0
		c4.9,0.1,5.9,1.7,5.9,4.1V126c0,2.4-1.1,3-5.9,3.1l-0.2,0v1.4h20.6v-1.4l-0.2,0c-3.9-0.1-4.9-0.7-4.9-3.1v-24.1
		c2.4-4.6,5.6-7.1,9.1-7.1c4.8,0,6.8,2.6,6.8,9.1V126c0,2.4-1,3-5,3.1l-0.2,0v1.4h20.7v-1.4l-0.2,0C786.3,129,785.6,128.3,785.6,126
		z"/>
	<path class="st0" d="M839.3,129.1c-3.9-0.4-4.7-1-8.4-6.3l-12.8-18.1l4.5-4.5c5.6-5.4,8.6-7.3,13.5-8.3l0.2,0v-1.4h-18.6v1.4l0.2,0
		c2.9,0.5,4.6,1.4,5,2.6c0.4,1.1-0.4,2.6-2.2,4.5l-12.3,12.6V68.5L792.2,69l-0.2,0v1.4l0.2,0c6,0.2,6.7,1.5,6.7,4.2V126
		c0,2.3-0.8,3-5.9,3.1l-0.2,0v1.4h20.1v-1.4l-0.2,0c-3.4-0.1-4.4-0.7-4.4-3.1v-11.6l3.6-3.6l9.4,13.6c1.1,1.6,1.4,2.6,1.1,3.3
		c-0.3,0.7-1.5,1.2-3.6,1.4l-0.2,0v1.4h20.8v-1.4L839.3,129.1z"/>
</g>
</svg>
