<?xml version="1.0" encoding="utf-8"?>
<svg xmlns="http://www.w3.org/2000/svg" width="300px" height="69.5px">
<path id="Bank" fill="#505759" d="M265.44,25.98c-3.63,0-6.75,1.61-8.47,2.61l-0.03-2.02h-3.02v25.98h3.22V31.39
	c2.84-1.75,5.42-2.57,7.99-2.57c3.91,0,5.31,2.02,5.31,6.75v16.97h3.22V34.92C273.67,29.2,271.34,25.98,265.44,25.98z M240.04,25.98
	c-3.53,0-6.58,1.1-8.77,2.71l1.34,2.23c1.95-1.27,4.46-2.09,7.06-2.09c4.66,0,6.14,1.78,6.14,6.58v1.47h-2.84
	c-8.64,0-13.26,3.02-13.26,8.71c0,4.73,3.29,7.54,8.4,7.54c2.71,0,5.28-0.89,7.88-2.43l0.03,1.85h3.02V34.85
	C249.02,29.06,246.45,25.98,240.04,25.98z M245.8,48.02c-2.43,1.47-4.87,2.26-7.27,2.26c-3.36,0-5.45-1.75-5.45-4.83
	c0-3.87,3.56-5.93,10.15-5.93h2.57L245.8,48.02L245.8,48.02z M285.32,38.52l12.82-11.96h-4.22l-12.17,11.69V16.96h-3.19v35.58h3.19
	V38.93l13.03,13.61H299L285.32,38.52z M219.72,34.2c3.32-0.96,5.69-3.84,5.69-8.19c0-5.79-3.77-9.05-11.04-9.05h-9.94v35.58h9.6
	c8.05,0,12.55-3.63,12.55-9.94C226.57,37.87,224.14,34.96,219.72,34.2z M207.86,19.84h5.07c6.38,0,8.98,1.92,8.98,6.48
	c0,4.39-2.88,6.75-8.95,6.75h-5.11L207.86,19.84L207.86,19.84z M213.45,49.66h-5.59V35.88h6.14c6.1,0,9.12,2.06,9.12,6.82
	C223.11,47.16,219.96,49.66,213.45,49.66z"/>
<path fill="#009639" d="M46.14,59.09c0.03-1.44-0.03-2.95-0.21-4.22c-3.5-1.34-6.31-2.78-8.84-4.25c-0.96-0.55-1.34-0.69-1.78-0.69
	c-0.48,0-0.93,0.21-1.75,0.69c-5.59,3.22-15.39,7.03-21.18,7.13c-0.03-1.2,0.14-2.23,0.27-3.19c-1.06,0.07-2.54,0.07-3.94-0.03
	c-0.21,0.79-0.34,1.95-0.34,3.05c0,2.33,1.3,4.11,4.32,4.11c5.79,0,16.62-4.11,22.62-7.44C38.88,56.24,42.51,57.89,46.14,59.09z
	 M53.58,47.88c-1.61-0.34-3.36-0.72-4.42-0.72c-0.93,0-1.44,0.51-1.44,1.44c0,1.47,0.99,5.52,0.99,9.97c0,2.88-0.21,5.07-0.58,6.51
	c-3.02-0.45-7.06-2.02-11-4.35c-0.99-0.58-1.41-0.72-1.82-0.72c-0.41,0-0.82,0.14-1.78,0.69c-3.84,2.19-7.92,3.87-10.93,4.39
	c-0.24-0.79-0.45-1.82-0.58-2.74c-1.3,0.48-2.78,0.89-3.8,1.1c0.41,3.67,1.3,5.62,3.94,5.62c2.71,0,8.81-2.23,13.16-4.73
	c4.35,2.5,10.45,4.73,12.92,4.73c2.06,0,3.02-0.75,3.6-2.4c0.69-1.92,0.93-4.46,0.93-7.44c0-2.26-0.27-5.07-0.75-7.85
	c1.06,0.21,2.13,0.34,2.84,0.48C54.61,50.79,54.13,49.18,53.58,47.88z M59.65,23.92c-1.44-0.03-2.95,0.03-4.22,0.21
	c-1.34,3.5-2.78,6.31-4.25,8.84c-0.55,0.96-0.69,1.34-0.69,1.78c0,0.48,0.21,0.93,0.69,1.75c3.22,5.59,7.03,15.39,7.13,21.18
	c-1.2,0.03-2.23-0.14-3.19-0.27c0.07,1.06,0.07,2.54-0.03,3.94c0.79,0.21,1.95,0.34,3.05,0.34c2.33,0,4.11-1.3,4.11-4.32
	c0-5.79-4.11-16.62-7.44-22.62C56.8,31.19,58.45,27.55,59.65,23.92z M18.69,51.44c-0.21,1.06-0.34,2.13-0.48,2.84
	c1.06-0.24,2.67-0.72,3.98-1.27c0.34-1.61,0.72-3.36,0.72-4.42c0-0.93-0.51-1.44-1.44-1.44c-1.47,0-5.52,0.99-9.97,0.99
	c-2.88,0-5.07-0.21-6.51-0.58c0.45-3.02,2.02-7.06,4.35-11c0.58-0.99,0.72-1.41,0.72-1.82s-0.14-0.82-0.69-1.78
	c-2.19-3.84-3.87-7.92-4.39-10.93c0.79-0.24,1.82-0.45,2.74-0.58c-0.48-1.3-0.89-2.78-1.1-3.8C2.95,18.06,1,18.95,1,21.59
	c0,2.71,2.23,8.81,4.73,13.16C3.23,39.1,1,45.2,1,47.67c0,2.06,0.75,3.02,2.4,3.6c1.92,0.69,4.46,0.93,7.44,0.93
	C13.1,52.2,15.91,51.92,18.69,51.44z M69.62,21.83c0-2.06-0.75-3.02-2.4-3.6c-1.92-0.69-4.46-0.93-7.44-0.93
	c-2.26,0-5.07,0.27-7.85,0.75c0.21-1.06,0.34-2.13,0.48-2.84c-1.06,0.24-2.67,0.72-3.98,1.27c-0.34,1.61-0.72,3.36-0.72,4.42
	c0,0.93,0.51,1.44,1.44,1.44c1.47,0,5.52-0.99,9.97-0.99c2.88,0,5.07,0.21,6.51,0.58c-0.45,3.02-2.02,7.06-4.35,11
	c-0.58,0.99-0.72,1.41-0.72,1.82s0.14,0.82,0.69,1.78c2.19,3.84,3.87,7.92,4.39,10.93c-0.79,0.24-1.82,0.45-2.74,0.58
	c0.48,1.3,0.89,2.78,1.1,3.8c3.67-0.41,5.62-1.3,5.62-3.94c0-2.71-2.23-8.81-4.73-13.16C67.39,30.4,69.62,24.3,69.62,21.83z
	 M24.48,10.41c-0.03,1.44,0.03,2.95,0.21,4.22c3.5,1.34,6.31,2.78,8.84,4.25c0.96,0.55,1.34,0.69,1.78,0.69
	c0.48,0,0.93-0.21,1.75-0.69c5.59-3.22,15.39-7.03,21.18-7.13c0.03,1.2-0.14,2.23-0.27,3.19c1.06-0.07,2.54-0.07,3.94,0.03
	c0.21-0.79,0.34-1.95,0.34-3.05c0-2.33-1.3-4.11-4.32-4.11c-5.79,0-16.62,4.11-22.62,7.44C31.75,13.26,28.11,11.61,24.48,10.41z
	 M10.97,45.58c1.44,0.03,2.95-0.03,4.22-0.21c1.34-3.5,2.78-6.31,4.25-8.84c0.55-0.96,0.69-1.34,0.69-1.78
	c0-0.48-0.21-0.93-0.69-1.75c-3.22-5.59-7.03-15.39-7.13-21.18c1.2-0.03,2.23,0.14,3.19,0.27c-0.07-1.06-0.07-2.54,0.03-3.94
	c-0.79-0.21-1.95-0.34-3.05-0.34c-2.33,0-4.11,1.3-4.11,4.32c0,5.79,4.11,16.62,7.44,22.62C13.82,38.31,12.17,41.95,10.97,45.58z
	 M17.04,21.62c1.61,0.34,3.36,0.72,4.42,0.72c0.93,0,1.44-0.51,1.44-1.44c0-1.47-0.99-5.52-0.99-9.97c0-2.88,0.21-5.07,0.58-6.51
	c3.02,0.45,7.06,2.02,11,4.35c0.99,0.58,1.41,0.72,1.82,0.72c0.41,0,0.82-0.14,1.78-0.69c3.84-2.19,7.92-3.87,10.93-4.39
	c0.24,0.79,0.45,1.82,0.58,2.74c1.3-0.48,2.78-0.89,3.8-1.1c-0.41-3.67-1.3-5.62-3.94-5.62c-2.71,0-8.81,2.23-13.16,4.73
	c-4.35-2.5-10.45-4.73-12.92-4.73c-2.06,0-3.02,0.75-3.6,2.4c-0.69,1.92-0.93,4.46-0.93,7.44c0,2.26,0.27,5.07,0.75,7.85
	c-1.06-0.21-2.13-0.34-2.84-0.48C16.01,18.71,16.49,20.32,17.04,21.62z M134.1,25.98c-4.15,0-7.47,1.17-9.97,2.84l2.4,4.59
	c1.89-1.2,4.42-1.85,6.79-1.85c2.74,0,4.11,1.23,4.11,3.46v0.72h-1.92c-8.5,0-13.23,3.15-13.23,9.19c0,4.76,3.22,8.19,8.33,8.19
	c2.84,0,5.21-0.82,7.27-2.37l0.07,1.78h6.34v-17.1C144.28,29.09,140.95,25.98,134.1,25.98z M137.42,45.99
	c-1.51,1.1-3.12,1.65-4.73,1.65c-2.09,0-3.43-1.23-3.43-3.19c0-2.57,2.23-3.8,7.06-3.8h1.1V45.99L137.42,45.99z M187.74,16.96v10.21
	c-1.68-0.82-3.32-1.2-5.28-1.2c-6.48,0-11.89,4.83-11.89,13.71c0,7.61,4.22,13.44,11.14,13.44c2.57,0,4.7-0.72,6.86-2.4l0.03,1.82
	h6.2V16.96H187.74z M187.74,45.55c-1.41,0.99-2.74,1.44-4.25,1.44c-3.19,0-5.66-2.54-5.66-7.51c0-4.97,2.37-7.34,5.83-7.34
	c1.44,0,2.64,0.31,4.08,1.03V45.55z M156.86,23.1h13.78v-6.14h-21.29v35.58h7.51V37.53H168v-6.1h-11.14L156.86,23.1L156.86,23.1z
	 M116.55,16.96l-5.11,25.57l-5.86-25.57h-7.95l-6.24,25.71l-5-25.71h-7.71l8.47,35.58h7.92l6.48-26.32l5.83,26.32h7.92l8.74-35.58
	C124.02,16.96,116.55,16.96,116.55,16.96z"/></svg>